G04*
G04 #@! TF.GenerationSoftware,Altium Limited,Altium Designer,23.5.1 (21)*
G04*
G04 Layer_Physical_Order=1*
G04 Layer_Color=255*
%FSLAX44Y44*%
%MOMM*%
G71*
G04*
G04 #@! TF.SameCoordinates,AB7613CA-6E89-4F34-93EF-E32F2A1E61AB*
G04*
G04*
G04 #@! TF.FilePolarity,Positive*
G04*
G01*
G75*
%ADD18C,1.2000*%
%ADD19R,1.2000X1.2000*%
%ADD20C,2.0000*%
%ADD30C,1.2500*%
%ADD31R,1.2500X1.2500*%
%ADD34R,1.2000X1.2000*%
%ADD35R,1.2500X1.2500*%
%ADD40C,0.7620*%
%ADD41O,2.6416X1.3208*%
%ADD42C,1.5000*%
%ADD43R,1.5000X1.5000*%
%ADD44R,1.5500X1.5500*%
%ADD45C,1.5500*%
%ADD46C,3.4290*%
%ADD47R,1.4000X1.4000*%
%ADD48C,1.4000*%
%ADD49C,1.6000*%
%ADD50R,1.6000X1.6000*%
%ADD51R,1.5500X1.5500*%
%ADD52R,1.5000X1.5000*%
%ADD53C,1.3080*%
%ADD54C,0.6000*%
G36*
X690121Y491991D02*
X693652Y491526D01*
X697092Y490604D01*
X700383Y489241D01*
X703468Y487460D01*
X706293Y485292D01*
X708812Y482773D01*
X710980Y479948D01*
X712761Y476863D01*
X714124Y473573D01*
X715046Y470132D01*
X715511Y466601D01*
X715511Y464820D01*
Y464820D01*
D01*
X715511Y31750D01*
X715511Y29886D01*
X715024Y26189D01*
X714059Y22588D01*
X712633Y19144D01*
X710769Y15915D01*
X708499Y12957D01*
X705863Y10321D01*
X702905Y8051D01*
X699676Y6187D01*
X696232Y4761D01*
X692630Y3796D01*
X688934Y3309D01*
X687070Y3309D01*
D01*
X687070D01*
X30480D01*
D01*
X30480D01*
X28616Y3309D01*
X24920Y3796D01*
X21318Y4761D01*
X17874Y6187D01*
X14645Y8051D01*
X11687Y10321D01*
X9051Y12957D01*
X6781Y15915D01*
X4917Y19144D01*
X3491Y22588D01*
X2526Y26189D01*
X2039Y29886D01*
X2039Y31750D01*
Y31750D01*
D01*
Y462280D01*
Y464227D01*
X2547Y468089D01*
X3555Y471851D01*
X5046Y475449D01*
X6993Y478822D01*
X9364Y481912D01*
X12118Y484666D01*
X15208Y487037D01*
X18581Y488984D01*
X22179Y490475D01*
X25941Y491483D01*
X29803Y491991D01*
X688340D01*
X690121Y491991D01*
D02*
G37*
%LPC*%
G36*
X682542Y476972D02*
X678898D01*
X675323Y476261D01*
X671956Y474866D01*
X668926Y472841D01*
X666349Y470264D01*
X664324Y467234D01*
X662929Y463867D01*
X662218Y460292D01*
Y456648D01*
X662929Y453073D01*
X664324Y449706D01*
X666349Y446676D01*
X668926Y444099D01*
X671956Y442074D01*
X675323Y440679D01*
X678898Y439968D01*
X682542D01*
X686117Y440679D01*
X689484Y442074D01*
X692514Y444099D01*
X695091Y446676D01*
X697116Y449706D01*
X698511Y453073D01*
X699222Y456648D01*
Y460292D01*
X698511Y463867D01*
X697116Y467234D01*
X695091Y470264D01*
X692514Y472841D01*
X689484Y474866D01*
X686117Y476261D01*
X682542Y476972D01*
D02*
G37*
G36*
X38652D02*
X35008D01*
X31433Y476261D01*
X28066Y474866D01*
X25036Y472841D01*
X22459Y470264D01*
X20434Y467234D01*
X19039Y463867D01*
X18328Y460292D01*
Y456648D01*
X19039Y453073D01*
X20434Y449706D01*
X22459Y446676D01*
X25036Y444099D01*
X28066Y442074D01*
X31433Y440679D01*
X35008Y439968D01*
X38652D01*
X42227Y440679D01*
X45594Y442074D01*
X48624Y444099D01*
X51201Y446676D01*
X53226Y449706D01*
X54621Y453073D01*
X55332Y456648D01*
Y460292D01*
X54621Y463867D01*
X53226Y467234D01*
X51201Y470264D01*
X48624Y472841D01*
X45594Y474866D01*
X42227Y476261D01*
X38652Y476972D01*
D02*
G37*
G36*
X253720Y421210D02*
X253365D01*
Y414325D01*
X260250D01*
Y414680D01*
X259737Y416592D01*
X258748Y418307D01*
X257347Y419707D01*
X255633Y420697D01*
X253720Y421210D01*
D02*
G37*
G36*
X252095D02*
X251740D01*
X249827Y420697D01*
X248113Y419707D01*
X246712Y418307D01*
X245723Y416592D01*
X245210Y414680D01*
Y414325D01*
X252095D01*
Y421210D01*
D02*
G37*
G36*
X298170D02*
X296190D01*
X294277Y420697D01*
X292563Y419707D01*
X291162Y418307D01*
X290173Y416592D01*
X289660Y414680D01*
Y412700D01*
X290173Y410787D01*
X291162Y409072D01*
X292563Y407672D01*
X294277Y406682D01*
X296190Y406170D01*
X298170D01*
X300083Y406682D01*
X301797Y407672D01*
X303197Y409072D01*
X304188Y410787D01*
X304700Y412700D01*
Y414680D01*
X304188Y416592D01*
X303197Y418307D01*
X301797Y419707D01*
X300083Y420697D01*
X298170Y421210D01*
D02*
G37*
G36*
X260250Y413055D02*
X253365D01*
Y406170D01*
X253720D01*
X255633Y406682D01*
X257347Y407672D01*
X258748Y409072D01*
X259737Y410787D01*
X260250Y412700D01*
Y413055D01*
D02*
G37*
G36*
X252095D02*
X245210D01*
Y412700D01*
X245723Y410787D01*
X246712Y409072D01*
X248113Y407672D01*
X249827Y406682D01*
X251740Y406170D01*
X252095D01*
Y413055D01*
D02*
G37*
G36*
X210540Y418670D02*
X208560D01*
X206647Y418157D01*
X204933Y417167D01*
X203533Y415767D01*
X202542Y414052D01*
X202030Y412140D01*
Y410160D01*
X202542Y408247D01*
X203533Y406532D01*
X204933Y405132D01*
X206647Y404142D01*
X208560Y403630D01*
X210540D01*
X212453Y404142D01*
X214167Y405132D01*
X215567Y406532D01*
X216558Y408247D01*
X217070Y410160D01*
Y412140D01*
X216558Y414052D01*
X215567Y415767D01*
X214167Y417167D01*
X212453Y418157D01*
X210540Y418670D01*
D02*
G37*
G36*
X596264Y409730D02*
X595745D01*
Y401595D01*
X603880D01*
Y402114D01*
X603282Y404345D01*
X602127Y406345D01*
X600495Y407977D01*
X598495Y409132D01*
X596264Y409730D01*
D02*
G37*
G36*
X594475D02*
X593955D01*
X591725Y409132D01*
X589725Y407977D01*
X588092Y406345D01*
X586937Y404345D01*
X586340Y402114D01*
Y401595D01*
X594475D01*
Y409730D01*
D02*
G37*
G36*
X417715Y413900D02*
X415405D01*
X413175Y413302D01*
X411175Y412148D01*
X409542Y410515D01*
X408388Y408515D01*
X407790Y406285D01*
Y403975D01*
X408388Y401745D01*
X409542Y399745D01*
X411175Y398112D01*
X413175Y396958D01*
X415405Y396360D01*
X417715D01*
X419945Y396958D01*
X421945Y398112D01*
X423578Y399745D01*
X424732Y401745D01*
X425330Y403975D01*
Y406285D01*
X424732Y408515D01*
X423578Y410515D01*
X421945Y412148D01*
X419945Y413302D01*
X417715Y413900D01*
D02*
G37*
G36*
X603880Y400325D02*
X595745D01*
Y392190D01*
X596264D01*
X598495Y392788D01*
X600495Y393942D01*
X602127Y395575D01*
X603282Y397575D01*
X603880Y399805D01*
Y400325D01*
D02*
G37*
G36*
X594475D02*
X586340D01*
Y399805D01*
X586937Y397575D01*
X588092Y395575D01*
X589725Y393942D01*
X591725Y392788D01*
X593955Y392190D01*
X594475D01*
Y400325D01*
D02*
G37*
G36*
X531265Y409730D02*
X528956D01*
X526725Y409132D01*
X524725Y407977D01*
X523092Y406345D01*
X521938Y404345D01*
X521340Y402114D01*
Y399805D01*
X521938Y397575D01*
X523092Y395575D01*
X524725Y393942D01*
X526725Y392788D01*
X528956Y392190D01*
X531265D01*
X533495Y392788D01*
X535495Y393942D01*
X537128Y395575D01*
X538283Y397575D01*
X538880Y399805D01*
Y402114D01*
X538283Y404345D01*
X537128Y406345D01*
X535495Y407977D01*
X533495Y409132D01*
X531265Y409730D01*
D02*
G37*
G36*
X488600Y397000D02*
X481965D01*
Y390365D01*
X488600D01*
Y397000D01*
D02*
G37*
G36*
X480695D02*
X474060D01*
Y390365D01*
X480695D01*
Y397000D01*
D02*
G37*
G36*
X99980Y400650D02*
X85440D01*
Y386110D01*
X99980D01*
Y400650D01*
D02*
G37*
G36*
X488600Y389095D02*
X481965D01*
Y382460D01*
X488600D01*
Y389095D01*
D02*
G37*
G36*
X480695D02*
X474060D01*
Y382460D01*
X480695D01*
Y389095D01*
D02*
G37*
G36*
X664424Y401160D02*
X661456D01*
X658590Y400392D01*
X656020Y398908D01*
X653922Y396810D01*
X652438Y394240D01*
X651670Y391374D01*
Y388406D01*
X652438Y385540D01*
X653922Y382970D01*
X656020Y380872D01*
X658590Y379388D01*
X661456Y378620D01*
X664424D01*
X667290Y379388D01*
X669860Y380872D01*
X671958Y382970D01*
X673442Y385540D01*
X674210Y388406D01*
Y391374D01*
X673442Y394240D01*
X671958Y396810D01*
X669860Y398908D01*
X667290Y400392D01*
X664424Y401160D01*
D02*
G37*
G36*
X162940Y395350D02*
X144400D01*
Y376810D01*
X162940D01*
Y395350D01*
D02*
G37*
G36*
X417715Y388500D02*
X415405D01*
X413175Y387902D01*
X411175Y386748D01*
X409542Y385115D01*
X408388Y383115D01*
X407790Y380885D01*
Y378575D01*
X408388Y376345D01*
X409542Y374345D01*
X411175Y372712D01*
X413175Y371558D01*
X415405Y370960D01*
X417715D01*
X419945Y371558D01*
X421945Y372712D01*
X423578Y374345D01*
X424732Y376345D01*
X425330Y378575D01*
Y380885D01*
X424732Y383115D01*
X423578Y385115D01*
X421945Y386748D01*
X419945Y387902D01*
X417715Y388500D01*
D02*
G37*
G36*
X341515D02*
X339205D01*
X336975Y387902D01*
X334975Y386748D01*
X333342Y385115D01*
X332188Y383115D01*
X331590Y380885D01*
Y378575D01*
X332188Y376345D01*
X333342Y374345D01*
X334975Y372712D01*
X336975Y371558D01*
X339205Y370960D01*
X341515D01*
X343745Y371558D01*
X345745Y372712D01*
X347378Y374345D01*
X348532Y376345D01*
X349130Y378575D01*
Y380885D01*
X348532Y383115D01*
X347378Y385115D01*
X345745Y386748D01*
X343745Y387902D01*
X341515Y388500D01*
D02*
G37*
G36*
X426066Y446523D02*
X290450D01*
X288468Y446129D01*
X286787Y445006D01*
X268651Y426870D01*
X267528Y425190D01*
X267134Y423208D01*
Y338556D01*
X267528Y336574D01*
X268651Y334894D01*
X289660Y313885D01*
Y306170D01*
X304700D01*
Y321210D01*
X296985D01*
X277493Y340702D01*
Y421062D01*
X292595Y436164D01*
X423921D01*
X432971Y427115D01*
Y375525D01*
X420221Y362776D01*
X419850Y362528D01*
X417715Y363100D01*
X415405D01*
X413175Y362502D01*
X411175Y361348D01*
X409542Y359715D01*
X408388Y357715D01*
X407790Y355485D01*
Y353175D01*
X408388Y350945D01*
X409542Y348945D01*
X411175Y347312D01*
X413175Y346158D01*
X415405Y345560D01*
X417715D01*
X419945Y346158D01*
X421945Y347312D01*
X423578Y348945D01*
X424732Y350945D01*
X425330Y353175D01*
Y353607D01*
X426452Y354357D01*
X441813Y369717D01*
X442935Y371398D01*
X443330Y373380D01*
Y429260D01*
X442935Y431242D01*
X441813Y432923D01*
X429729Y445006D01*
X428048Y446129D01*
X426066Y446523D01*
D02*
G37*
G36*
X482287Y377000D02*
X480373D01*
X478524Y376505D01*
X476866Y375547D01*
X475513Y374194D01*
X474555Y372536D01*
X474060Y370687D01*
Y368773D01*
X474555Y366924D01*
X475513Y365266D01*
X476866Y363913D01*
X478524Y362955D01*
X480373Y362460D01*
X482287D01*
X484136Y362955D01*
X485794Y363913D01*
X487147Y365266D01*
X488105Y366924D01*
X488600Y368773D01*
Y370687D01*
X488105Y372536D01*
X487147Y374194D01*
X485794Y375547D01*
X484136Y376505D01*
X482287Y377000D01*
D02*
G37*
G36*
X664424Y375760D02*
X661456D01*
X658590Y374992D01*
X656020Y373508D01*
X653922Y371410D01*
X652438Y368840D01*
X651670Y365974D01*
Y363006D01*
X652438Y360140D01*
X653922Y357570D01*
X656020Y355472D01*
X658590Y353988D01*
X661456Y353220D01*
X664424D01*
X667290Y353988D01*
X669860Y355472D01*
X671958Y357570D01*
X673442Y360140D01*
X674210Y363006D01*
Y365974D01*
X673442Y368840D01*
X671958Y371410D01*
X669860Y373508D01*
X667290Y374992D01*
X664424Y375760D01*
D02*
G37*
G36*
X93667Y380650D02*
X91753D01*
X89904Y380155D01*
X88246Y379197D01*
X86893Y377844D01*
X85935Y376186D01*
X85440Y374337D01*
Y372423D01*
X85935Y370574D01*
X86893Y368916D01*
X88246Y367563D01*
X89904Y366605D01*
X91753Y366110D01*
X92655D01*
X101748Y357018D01*
X103428Y355895D01*
X105410Y355500D01*
X145956D01*
X146252Y354988D01*
X147978Y353262D01*
X150092Y352042D01*
X152450Y351410D01*
X154890D01*
X157248Y352042D01*
X159362Y353262D01*
X161088Y354988D01*
X162308Y357102D01*
X162940Y359460D01*
Y361900D01*
X162308Y364258D01*
X161088Y366372D01*
X159362Y368098D01*
X157248Y369318D01*
X154890Y369950D01*
X152450D01*
X150092Y369318D01*
X147978Y368098D01*
X146252Y366372D01*
X145956Y365859D01*
X107555D01*
X99980Y373435D01*
Y374337D01*
X99485Y376186D01*
X98527Y377844D01*
X97174Y379197D01*
X95516Y380155D01*
X93667Y380650D01*
D02*
G37*
G36*
X603880Y364730D02*
X586340D01*
Y347190D01*
X603880D01*
Y364730D01*
D02*
G37*
G36*
X531265D02*
X528956D01*
X526725Y364132D01*
X524725Y362978D01*
X523092Y361345D01*
X521938Y359345D01*
X521340Y357115D01*
Y354806D01*
X521938Y352575D01*
X523092Y350575D01*
X524725Y348942D01*
X526725Y347788D01*
X528956Y347190D01*
X531265D01*
X533495Y347788D01*
X535495Y348942D01*
X537128Y350575D01*
X538283Y352575D01*
X538880Y354806D01*
Y357115D01*
X538283Y359345D01*
X537128Y361345D01*
X535495Y362978D01*
X533495Y364132D01*
X531265Y364730D01*
D02*
G37*
G36*
X341515Y363100D02*
X339205D01*
X336975Y362502D01*
X334975Y361348D01*
X333342Y359715D01*
X332188Y357715D01*
X331590Y355485D01*
Y353175D01*
X332188Y350945D01*
X333342Y348945D01*
X334975Y347312D01*
X336975Y346158D01*
X339205Y345560D01*
X341515D01*
X343745Y346158D01*
X345745Y347312D01*
X347378Y348945D01*
X348532Y350945D01*
X349130Y353175D01*
Y355485D01*
X348532Y357715D01*
X347378Y359715D01*
X345745Y361348D01*
X343745Y362502D01*
X341515Y363100D01*
D02*
G37*
G36*
X154890Y344550D02*
X154305D01*
Y335915D01*
X162940D01*
Y336500D01*
X162308Y338858D01*
X161088Y340972D01*
X159362Y342698D01*
X157248Y343918D01*
X154890Y344550D01*
D02*
G37*
G36*
X153035D02*
X152450D01*
X150092Y343918D01*
X147978Y342698D01*
X146252Y340972D01*
X145032Y338858D01*
X144400Y336500D01*
Y335915D01*
X153035D01*
Y344550D01*
D02*
G37*
G36*
X162940Y334645D02*
X154305D01*
Y326010D01*
X154890D01*
X157248Y326642D01*
X159362Y327862D01*
X161088Y329588D01*
X162308Y331702D01*
X162940Y334060D01*
Y334645D01*
D02*
G37*
G36*
X153035D02*
X144400D01*
Y334060D01*
X145032Y331702D01*
X146252Y329588D01*
X147978Y327862D01*
X150092Y326642D01*
X152450Y326010D01*
X153035D01*
Y334645D01*
D02*
G37*
G36*
X417715Y337700D02*
X415405D01*
X413175Y337102D01*
X411175Y335948D01*
X409542Y334315D01*
X408388Y332315D01*
X407790Y330085D01*
Y327775D01*
X408388Y325545D01*
X409542Y323545D01*
X411175Y321912D01*
X413175Y320758D01*
X415405Y320160D01*
X417715D01*
X419945Y320758D01*
X421945Y321912D01*
X423578Y323545D01*
X424732Y325545D01*
X425330Y327775D01*
Y330085D01*
X424732Y332315D01*
X423578Y334315D01*
X421945Y335948D01*
X419945Y337102D01*
X417715Y337700D01*
D02*
G37*
G36*
X341515D02*
X339205D01*
X336975Y337102D01*
X334975Y335948D01*
X333342Y334315D01*
X332188Y332315D01*
X331590Y330085D01*
Y327775D01*
X332188Y325545D01*
X333342Y323545D01*
X334975Y321912D01*
X336975Y320758D01*
X339205Y320160D01*
X341515D01*
X343745Y320758D01*
X345745Y321912D01*
X347378Y323545D01*
X348532Y325545D01*
X349130Y327775D01*
Y330085D01*
X348532Y332315D01*
X347378Y334315D01*
X345745Y335948D01*
X343745Y337102D01*
X341515Y337700D01*
D02*
G37*
G36*
X103827Y322230D02*
X103505D01*
Y315595D01*
X110140D01*
Y315917D01*
X109645Y317766D01*
X108687Y319424D01*
X107334Y320777D01*
X105676Y321735D01*
X103827Y322230D01*
D02*
G37*
G36*
X102235D02*
X101913D01*
X100064Y321735D01*
X98406Y320777D01*
X97053Y319424D01*
X96095Y317766D01*
X95600Y315917D01*
Y315595D01*
X102235D01*
Y322230D01*
D02*
G37*
G36*
X498868Y322290D02*
X498475D01*
Y315115D01*
X505650D01*
Y315508D01*
X505118Y317495D01*
X504090Y319275D01*
X502635Y320729D01*
X500854Y321758D01*
X498868Y322290D01*
D02*
G37*
G36*
X497205D02*
X496812D01*
X494826Y321758D01*
X493045Y320729D01*
X491590Y319275D01*
X490562Y317495D01*
X490030Y315508D01*
Y315115D01*
X497205D01*
Y322290D01*
D02*
G37*
G36*
X668540Y318680D02*
X662571D01*
Y311373D01*
X676398D01*
X676211Y312794D01*
X675418Y314709D01*
X674156Y316354D01*
X672511Y317616D01*
X670595Y318410D01*
X668540Y318680D01*
D02*
G37*
G36*
X661301D02*
X655332D01*
X653277Y318410D01*
X651361Y317616D01*
X649716Y316354D01*
X648454Y314709D01*
X647661Y312794D01*
X647474Y311373D01*
X661301D01*
Y318680D01*
D02*
G37*
G36*
X465470Y318150D02*
X457835D01*
Y310515D01*
X465470D01*
Y318150D01*
D02*
G37*
G36*
X456565D02*
X448930D01*
Y310515D01*
X456565D01*
Y318150D01*
D02*
G37*
G36*
X110140Y314325D02*
X103505D01*
Y307690D01*
X103827D01*
X105676Y308185D01*
X107334Y309143D01*
X108687Y310496D01*
X109645Y312154D01*
X110140Y314003D01*
Y314325D01*
D02*
G37*
G36*
X102235D02*
X95600D01*
Y314003D01*
X96095Y312154D01*
X97053Y310496D01*
X98406Y309143D01*
X100064Y308185D01*
X101913Y307690D01*
X102235D01*
Y314325D01*
D02*
G37*
G36*
X90140Y322230D02*
X75600D01*
Y307690D01*
X90140D01*
Y322230D01*
D02*
G37*
G36*
X505650Y313845D02*
X498475D01*
Y306670D01*
X498868D01*
X500854Y307202D01*
X502635Y308230D01*
X504090Y309685D01*
X505118Y311465D01*
X505650Y313452D01*
Y313845D01*
D02*
G37*
G36*
X497205D02*
X490030D01*
Y313452D01*
X490562Y311465D01*
X491590Y309685D01*
X493045Y308230D01*
X494826Y307202D01*
X496812Y306670D01*
X497205D01*
Y313845D01*
D02*
G37*
G36*
X676398Y310103D02*
X662571D01*
Y302796D01*
X668540D01*
X670595Y303067D01*
X672511Y303860D01*
X674156Y305122D01*
X675418Y306767D01*
X676211Y308683D01*
X676398Y310103D01*
D02*
G37*
G36*
X661301D02*
X647474D01*
X647661Y308683D01*
X648454Y306767D01*
X649716Y305122D01*
X651361Y303860D01*
X653277Y303067D01*
X655332Y302796D01*
X661301D01*
Y310103D01*
D02*
G37*
G36*
X465470Y309245D02*
X457835D01*
Y301610D01*
X465470D01*
Y309245D01*
D02*
G37*
G36*
X456565D02*
X448930D01*
Y301610D01*
X456565D01*
Y309245D01*
D02*
G37*
G36*
X349130Y413900D02*
X331590D01*
Y405853D01*
X330467Y405103D01*
X330467Y405102D01*
X313838Y388473D01*
X312715Y386792D01*
X312320Y384810D01*
Y304405D01*
X303925Y296010D01*
X277735D01*
X260250Y313495D01*
Y321210D01*
X245210D01*
Y306170D01*
X252925D01*
X271928Y287167D01*
X273608Y286045D01*
X275590Y285651D01*
X306070D01*
X308052Y286045D01*
X309732Y287167D01*
X321162Y298598D01*
X322285Y300278D01*
X322679Y302260D01*
Y382665D01*
X336275Y396260D01*
X336670D01*
X337170Y396360D01*
X349130D01*
Y413900D01*
D02*
G37*
G36*
X615868Y303660D02*
X615315D01*
Y295275D01*
X623700D01*
Y295828D01*
X623085Y298122D01*
X621898Y300178D01*
X620218Y301858D01*
X618162Y303045D01*
X615868Y303660D01*
D02*
G37*
G36*
X614045D02*
X613493D01*
X611198Y303045D01*
X609142Y301858D01*
X607462Y300178D01*
X606275Y298122D01*
X605660Y295828D01*
Y295275D01*
X614045D01*
Y303660D01*
D02*
G37*
G36*
X552137Y301750D02*
X551815D01*
Y295115D01*
X558450D01*
Y295437D01*
X557955Y297286D01*
X556997Y298944D01*
X555644Y300297D01*
X553986Y301255D01*
X552137Y301750D01*
D02*
G37*
G36*
X550545D02*
X550223D01*
X548374Y301255D01*
X546716Y300297D01*
X545363Y298944D01*
X544405Y297286D01*
X543910Y295437D01*
Y295115D01*
X550545D01*
Y301750D01*
D02*
G37*
G36*
X417715Y312300D02*
X415405D01*
X413175Y311702D01*
X411175Y310548D01*
X409542Y308915D01*
X408388Y306915D01*
X407790Y304685D01*
Y302375D01*
X408388Y300145D01*
X409542Y298145D01*
X411175Y296512D01*
X413175Y295358D01*
X415405Y294760D01*
X417715D01*
X419945Y295358D01*
X421945Y296512D01*
X423578Y298145D01*
X424732Y300145D01*
X425330Y302375D01*
Y304685D01*
X424732Y306915D01*
X423578Y308915D01*
X421945Y310548D01*
X419945Y311702D01*
X417715Y312300D01*
D02*
G37*
G36*
X341515D02*
X339205D01*
X336975Y311702D01*
X334975Y310548D01*
X333342Y308915D01*
X332188Y306915D01*
X331590Y304685D01*
Y302375D01*
X332188Y300145D01*
X333342Y298145D01*
X334975Y296512D01*
X336975Y295358D01*
X339205Y294760D01*
X341515D01*
X343745Y295358D01*
X345745Y296512D01*
X347378Y298145D01*
X348532Y300145D01*
X349130Y302375D01*
Y304685D01*
X348532Y306915D01*
X347378Y308915D01*
X345745Y310548D01*
X343745Y311702D01*
X341515Y312300D01*
D02*
G37*
G36*
X558450Y293845D02*
X551815D01*
Y287210D01*
X552137D01*
X553986Y287705D01*
X555644Y288662D01*
X556997Y290016D01*
X557955Y291674D01*
X558450Y293523D01*
Y293845D01*
D02*
G37*
G36*
X550545D02*
X543910D01*
Y293523D01*
X544405Y291674D01*
X545363Y290016D01*
X546716Y288662D01*
X548374Y287705D01*
X550223Y287210D01*
X550545D01*
Y293845D01*
D02*
G37*
G36*
X623700Y294005D02*
X615315D01*
Y285620D01*
X615868D01*
X618162Y286235D01*
X620218Y287422D01*
X621898Y289102D01*
X623085Y291158D01*
X623700Y293452D01*
Y294005D01*
D02*
G37*
G36*
X614045D02*
X605660D01*
Y293452D01*
X606275Y291158D01*
X607462Y289102D01*
X609142Y287422D01*
X611198Y286235D01*
X613493Y285620D01*
X614045D01*
Y294005D01*
D02*
G37*
G36*
X668540Y293680D02*
X655332D01*
X653277Y293409D01*
X651361Y292616D01*
X649716Y291354D01*
X648454Y289709D01*
X647661Y287794D01*
X647390Y285738D01*
X647661Y283682D01*
X648454Y281767D01*
X649716Y280122D01*
X651361Y278860D01*
X653277Y278067D01*
X655332Y277796D01*
X668540D01*
X670595Y278067D01*
X672511Y278860D01*
X674156Y280122D01*
X675418Y281767D01*
X676211Y283682D01*
X676482Y285738D01*
X676211Y287794D01*
X675418Y289709D01*
X674156Y291354D01*
X672511Y292616D01*
X670595Y293409D01*
X668540Y293680D01*
D02*
G37*
G36*
X458289Y292750D02*
X456111D01*
X454008Y292186D01*
X452122Y291098D01*
X450582Y289558D01*
X449494Y287672D01*
X448930Y285569D01*
Y283391D01*
X449494Y281288D01*
X450582Y279402D01*
X452122Y277862D01*
X454008Y276774D01*
X456111Y276210D01*
X458289D01*
X460392Y276774D01*
X462278Y277862D01*
X463818Y279402D01*
X464906Y281288D01*
X465470Y283391D01*
Y285569D01*
X464906Y287672D01*
X463818Y289558D01*
X462278Y291098D01*
X460392Y292186D01*
X458289Y292750D01*
D02*
G37*
G36*
X217070Y318670D02*
X202030D01*
Y310955D01*
X162955Y271880D01*
X135320D01*
Y274220D01*
X120280D01*
Y266505D01*
X100478Y246702D01*
X99355Y245022D01*
X98961Y243040D01*
Y219515D01*
X98602Y219308D01*
X96922Y217628D01*
X95735Y215572D01*
X95120Y213277D01*
Y210903D01*
X95735Y208608D01*
X96922Y206552D01*
X98602Y204872D01*
X100658Y203685D01*
X102952Y203070D01*
X105328D01*
X107622Y203685D01*
X109678Y204872D01*
X111358Y206552D01*
X112545Y208608D01*
X113160Y210903D01*
Y213277D01*
X112545Y215572D01*
X111358Y217628D01*
X109678Y219308D01*
X109319Y219515D01*
Y240895D01*
X127605Y259180D01*
X135320D01*
Y261521D01*
X165100D01*
X167082Y261915D01*
X168762Y263037D01*
X209355Y303630D01*
X217070D01*
Y318670D01*
D02*
G37*
G36*
X341515Y286900D02*
X339205D01*
X336975Y286302D01*
X334975Y285148D01*
X333342Y283515D01*
X332188Y281515D01*
X331590Y279285D01*
Y276975D01*
X332188Y274745D01*
X333342Y272745D01*
X334975Y271112D01*
X336975Y269958D01*
X339205Y269360D01*
X341515D01*
X343745Y269958D01*
X345745Y271112D01*
X347378Y272745D01*
X348532Y274745D01*
X349130Y276975D01*
Y279285D01*
X348532Y281515D01*
X347378Y283515D01*
X345745Y285148D01*
X343745Y286302D01*
X341515Y286900D01*
D02*
G37*
G36*
X558450Y281750D02*
X543910D01*
Y267210D01*
X558450D01*
Y281750D01*
D02*
G37*
G36*
X623700Y278260D02*
X605660D01*
Y260220D01*
X623700D01*
Y278260D01*
D02*
G37*
G36*
X285437Y266030D02*
X285115D01*
Y259395D01*
X291750D01*
Y259717D01*
X291255Y261566D01*
X290297Y263224D01*
X288944Y264577D01*
X287286Y265535D01*
X285437Y266030D01*
D02*
G37*
G36*
X283845D02*
X283523D01*
X281674Y265535D01*
X280016Y264577D01*
X278663Y263224D01*
X277705Y261566D01*
X277210Y259717D01*
Y259395D01*
X283845D01*
Y266030D01*
D02*
G37*
G36*
X228790Y274220D02*
X226810D01*
X224897Y273708D01*
X223183Y272717D01*
X221782Y271317D01*
X220792Y269603D01*
X220280Y267690D01*
Y265710D01*
X220792Y263797D01*
X221782Y262083D01*
X223183Y260683D01*
X224897Y259692D01*
X226810Y259180D01*
X228790D01*
X230702Y259692D01*
X232417Y260683D01*
X233817Y262083D01*
X234807Y263797D01*
X235320Y265710D01*
Y267690D01*
X234807Y269603D01*
X233817Y271317D01*
X232417Y272717D01*
X230702Y273708D01*
X228790Y274220D01*
D02*
G37*
G36*
X341515Y261500D02*
X340995D01*
Y253365D01*
X349130D01*
Y253885D01*
X348532Y256115D01*
X347378Y258115D01*
X345745Y259748D01*
X343745Y260902D01*
X341515Y261500D01*
D02*
G37*
G36*
X339725D02*
X339205D01*
X336975Y260902D01*
X334975Y259748D01*
X333342Y258115D01*
X332188Y256115D01*
X331590Y253885D01*
Y253365D01*
X339725D01*
Y261500D01*
D02*
G37*
G36*
X613410Y337920D02*
X452120D01*
X450138Y337525D01*
X448457Y336403D01*
X431441Y319386D01*
X430319Y317706D01*
X429924Y315724D01*
Y298819D01*
X417944Y286839D01*
X417715Y286900D01*
X415405D01*
X413175Y286302D01*
X411175Y285148D01*
X409542Y283515D01*
X408388Y281515D01*
X407790Y279285D01*
Y276975D01*
X408388Y274745D01*
X409542Y272745D01*
X411175Y271112D01*
X413175Y269958D01*
X415405Y269360D01*
X417715D01*
X419945Y269958D01*
X421945Y271112D01*
X423578Y272745D01*
X424732Y274745D01*
X425330Y276975D01*
Y279285D01*
X425269Y279514D01*
X438766Y293011D01*
X439889Y294692D01*
X440283Y296674D01*
Y313578D01*
X454265Y327561D01*
X611265D01*
X628550Y310275D01*
Y280670D01*
X628945Y278688D01*
X630067Y277008D01*
X647206Y259869D01*
X647533Y259650D01*
X647661Y258682D01*
X648454Y256767D01*
X649716Y255122D01*
X651361Y253860D01*
X653277Y253067D01*
X655332Y252796D01*
X668540D01*
X670595Y253067D01*
X672511Y253860D01*
X674156Y255122D01*
X675418Y256767D01*
X676211Y258682D01*
X676482Y260738D01*
X676211Y262793D01*
X675418Y264709D01*
X674156Y266354D01*
X672511Y267616D01*
X670595Y268409D01*
X668540Y268680D01*
X655332D01*
X653311Y268414D01*
X638909Y282815D01*
Y312420D01*
X638515Y314402D01*
X637393Y316082D01*
X617072Y336403D01*
X615392Y337525D01*
X613410Y337920D01*
D02*
G37*
G36*
X291750Y258125D02*
X285115D01*
Y251490D01*
X285437D01*
X287286Y251985D01*
X288944Y252943D01*
X290297Y254296D01*
X291255Y255954D01*
X291750Y257803D01*
Y258125D01*
D02*
G37*
G36*
X283845D02*
X277210D01*
Y257803D01*
X277705Y255954D01*
X278663Y254296D01*
X280016Y252943D01*
X281674Y251985D01*
X283523Y251490D01*
X283845D01*
Y258125D01*
D02*
G37*
G36*
X458289Y267350D02*
X456111D01*
X454008Y266786D01*
X452122Y265698D01*
X450582Y264158D01*
X449494Y262272D01*
X448930Y260169D01*
Y257991D01*
X449494Y255888D01*
X450582Y254002D01*
X452122Y252462D01*
X454008Y251374D01*
X456111Y250810D01*
X458289D01*
X460392Y251374D01*
X462278Y252462D01*
X463818Y254002D01*
X464906Y255888D01*
X465470Y257991D01*
Y260169D01*
X464906Y262272D01*
X463818Y264158D01*
X462278Y265698D01*
X460392Y266786D01*
X458289Y267350D01*
D02*
G37*
G36*
X498868Y262290D02*
X496812D01*
X494826Y261758D01*
X493045Y260730D01*
X491590Y259275D01*
X490562Y257495D01*
X490030Y255508D01*
Y253452D01*
X490562Y251465D01*
X491590Y249685D01*
X493045Y248230D01*
X494826Y247202D01*
X496812Y246670D01*
X498868D01*
X500854Y247202D01*
X502635Y248230D01*
X504090Y249685D01*
X505118Y251465D01*
X505650Y253452D01*
Y255508D01*
X505118Y257495D01*
X504090Y259275D01*
X502635Y260730D01*
X500854Y261758D01*
X498868Y262290D01*
D02*
G37*
G36*
X417715Y261500D02*
X415405D01*
X413175Y260902D01*
X411175Y259748D01*
X409542Y258115D01*
X408388Y256115D01*
X407790Y253885D01*
Y251575D01*
X408388Y249345D01*
X409542Y247345D01*
X411175Y245712D01*
X413175Y244558D01*
X415405Y243960D01*
X417715D01*
X419945Y244558D01*
X421945Y245712D01*
X423578Y247345D01*
X424732Y249345D01*
X425330Y251575D01*
Y253885D01*
X424732Y256115D01*
X423578Y258115D01*
X421945Y259748D01*
X419945Y260902D01*
X417715Y261500D01*
D02*
G37*
G36*
X349130Y252095D02*
X340995D01*
Y243960D01*
X341515D01*
X343745Y244558D01*
X345745Y245712D01*
X347378Y247345D01*
X348532Y249345D01*
X349130Y251575D01*
Y252095D01*
D02*
G37*
G36*
X339725D02*
X331590D01*
Y251575D01*
X332188Y249345D01*
X333342Y247345D01*
X334975Y245712D01*
X336975Y244558D01*
X339205Y243960D01*
X339725D01*
Y252095D01*
D02*
G37*
G36*
X291750Y246030D02*
X277210D01*
Y231490D01*
X291750D01*
Y246030D01*
D02*
G37*
G36*
X557217Y235870D02*
X555303D01*
X553454Y235375D01*
X551796Y234417D01*
X550443Y233064D01*
X549485Y231406D01*
X548990Y229557D01*
Y227643D01*
X549485Y225794D01*
X550443Y224136D01*
X551796Y222783D01*
X553454Y221825D01*
X555303Y221330D01*
X557217D01*
X559066Y221825D01*
X560724Y222783D01*
X562077Y224136D01*
X563035Y225794D01*
X563530Y227643D01*
Y229557D01*
X563035Y231406D01*
X562077Y233064D01*
X560724Y234417D01*
X559066Y235375D01*
X557217Y235870D01*
D02*
G37*
G36*
X514037Y235470D02*
X512123D01*
X510274Y234975D01*
X508616Y234017D01*
X507263Y232664D01*
X506305Y231006D01*
X505810Y229157D01*
Y227243D01*
X506305Y225394D01*
X507263Y223736D01*
X508616Y222383D01*
X510274Y221425D01*
X512123Y220930D01*
X514037D01*
X515886Y221425D01*
X517544Y222383D01*
X518897Y223736D01*
X519855Y225394D01*
X520350Y227243D01*
Y229157D01*
X519855Y231006D01*
X518897Y232664D01*
X517544Y234017D01*
X515886Y234975D01*
X514037Y235470D01*
D02*
G37*
G36*
X417715Y236100D02*
X415405D01*
X413175Y235502D01*
X411175Y234348D01*
X409542Y232715D01*
X408388Y230715D01*
X407790Y228485D01*
Y226175D01*
X408388Y223945D01*
X409542Y221945D01*
X411175Y220312D01*
X413175Y219158D01*
X415405Y218560D01*
X417715D01*
X419945Y219158D01*
X421945Y220312D01*
X423578Y221945D01*
X424732Y223945D01*
X425330Y226175D01*
Y228485D01*
X424732Y230715D01*
X423578Y232715D01*
X421945Y234348D01*
X419945Y235502D01*
X417715Y236100D01*
D02*
G37*
G36*
X341515D02*
X339205D01*
X336975Y235502D01*
X334975Y234348D01*
X333342Y232715D01*
X332188Y230715D01*
X331590Y228485D01*
Y226175D01*
X332188Y223945D01*
X333342Y221945D01*
X334975Y220312D01*
X336975Y219158D01*
X339205Y218560D01*
X341515D01*
X343745Y219158D01*
X345745Y220312D01*
X347378Y221945D01*
X348532Y223945D01*
X349130Y226175D01*
Y228485D01*
X348532Y230715D01*
X347378Y232715D01*
X345745Y234348D01*
X343745Y235502D01*
X341515Y236100D01*
D02*
G37*
G36*
X206928Y236350D02*
X204552D01*
X202258Y235735D01*
X200202Y234548D01*
X198522Y232868D01*
X197335Y230812D01*
X196720Y228517D01*
Y226143D01*
X197335Y223848D01*
X198522Y221792D01*
X200202Y220112D01*
X202258Y218925D01*
X204552Y218310D01*
X206928D01*
X209222Y218925D01*
X211278Y220112D01*
X212958Y221792D01*
X214145Y223848D01*
X214760Y226143D01*
Y228517D01*
X214145Y230812D01*
X212958Y232868D01*
X211278Y234548D01*
X209222Y235735D01*
X206928Y236350D01*
D02*
G37*
G36*
X138560Y221110D02*
X120520D01*
Y203070D01*
X138560D01*
Y221110D01*
D02*
G37*
G36*
X417715Y210700D02*
X417195D01*
Y202565D01*
X425330D01*
Y203085D01*
X424732Y205315D01*
X423578Y207315D01*
X421945Y208948D01*
X419945Y210102D01*
X417715Y210700D01*
D02*
G37*
G36*
X415925D02*
X415405D01*
X413175Y210102D01*
X411175Y208948D01*
X409542Y207315D01*
X408388Y205315D01*
X407790Y203085D01*
Y202565D01*
X415925D01*
Y210700D01*
D02*
G37*
G36*
X425330Y201295D02*
X417195D01*
Y193160D01*
X417715D01*
X419945Y193758D01*
X421945Y194912D01*
X423578Y196545D01*
X424732Y198545D01*
X425330Y200775D01*
Y201295D01*
D02*
G37*
G36*
X415925D02*
X407790D01*
Y200775D01*
X408388Y198545D01*
X409542Y196545D01*
X411175Y194912D01*
X413175Y193758D01*
X415405Y193160D01*
X415925D01*
Y201295D01*
D02*
G37*
G36*
X341515Y210700D02*
X339205D01*
X336975Y210102D01*
X334975Y208948D01*
X333342Y207315D01*
X332188Y205315D01*
X331590Y203085D01*
Y200775D01*
X332188Y198545D01*
X333342Y196545D01*
X334975Y194912D01*
X336975Y193758D01*
X339205Y193160D01*
X341515D01*
X343745Y193758D01*
X345745Y194912D01*
X347378Y196545D01*
X348532Y198545D01*
X349130Y200775D01*
Y203085D01*
X348532Y205315D01*
X347378Y207315D01*
X345745Y208948D01*
X343745Y210102D01*
X341515Y210700D01*
D02*
G37*
G36*
X206928Y210950D02*
X204552D01*
X202258Y210335D01*
X200202Y209148D01*
X198522Y207468D01*
X197335Y205412D01*
X196720Y203118D01*
Y200742D01*
X197335Y198448D01*
X198522Y196392D01*
X200202Y194712D01*
X202258Y193525D01*
X204552Y192910D01*
X206928D01*
X209222Y193525D01*
X211278Y194712D01*
X212958Y196392D01*
X214145Y198448D01*
X214760Y200742D01*
Y203118D01*
X214145Y205412D01*
X212958Y207468D01*
X211278Y209148D01*
X209222Y210335D01*
X206928Y210950D01*
D02*
G37*
G36*
X310674Y206370D02*
X308365D01*
X306135Y205772D01*
X304135Y204618D01*
X302502Y202985D01*
X301348Y200985D01*
X300750Y198754D01*
Y196445D01*
X301348Y194215D01*
X302502Y192215D01*
X304135Y190582D01*
X306135Y189428D01*
X308365Y188830D01*
X310674D01*
X312905Y189428D01*
X314905Y190582D01*
X316537Y192215D01*
X317692Y194215D01*
X318290Y196445D01*
Y198754D01*
X317692Y200985D01*
X316537Y202985D01*
X314905Y204618D01*
X312905Y205772D01*
X310674Y206370D01*
D02*
G37*
G36*
X265675D02*
X263366D01*
X261135Y205772D01*
X259135Y204618D01*
X257502Y202985D01*
X256348Y200985D01*
X255750Y198754D01*
Y196445D01*
X256348Y194215D01*
X257502Y192215D01*
X259135Y190582D01*
X261135Y189428D01*
X263366Y188830D01*
X265675D01*
X267905Y189428D01*
X269905Y190582D01*
X271538Y192215D01*
X272693Y194215D01*
X273290Y196445D01*
Y198754D01*
X272693Y200985D01*
X271538Y202985D01*
X269905Y204618D01*
X267905Y205772D01*
X265675Y206370D01*
D02*
G37*
G36*
X317500Y247750D02*
X315518Y247355D01*
X313838Y246232D01*
X288685Y221080D01*
X245110D01*
X243128Y220685D01*
X241448Y219562D01*
X207328Y185443D01*
X206928Y185550D01*
X204552D01*
X202258Y184935D01*
X200202Y183748D01*
X198522Y182068D01*
X197335Y180012D01*
X196720Y177717D01*
Y175343D01*
X197335Y173048D01*
X198522Y170992D01*
X200202Y169312D01*
X202258Y168125D01*
X204552Y167510D01*
X206928D01*
X209222Y168125D01*
X211278Y169312D01*
X212958Y170992D01*
X214145Y173048D01*
X214760Y175343D01*
Y177717D01*
X214653Y178118D01*
X247255Y210721D01*
X290830D01*
X292812Y211115D01*
X294492Y212237D01*
X321162Y238908D01*
X322285Y240588D01*
X322679Y242570D01*
X322285Y244552D01*
X321162Y246232D01*
X319482Y247355D01*
X317500Y247750D01*
D02*
G37*
G36*
X105328Y195710D02*
X102952D01*
X100658Y195095D01*
X98602Y193908D01*
X96922Y192228D01*
X95735Y190172D01*
X95120Y187878D01*
Y185502D01*
X95735Y183208D01*
X96922Y181152D01*
X98602Y179472D01*
X100658Y178285D01*
X102952Y177670D01*
X105328D01*
X107622Y178285D01*
X109678Y179472D01*
X111358Y181152D01*
X112545Y183208D01*
X113160Y185502D01*
Y187878D01*
X112545Y190172D01*
X111358Y192228D01*
X109678Y193908D01*
X107622Y195095D01*
X105328Y195710D01*
D02*
G37*
G36*
X460697Y213280D02*
X458783D01*
X456934Y212785D01*
X455276Y211828D01*
X453923Y210474D01*
X452965Y208816D01*
X452470Y206967D01*
Y205053D01*
X452965Y203204D01*
X453923Y201546D01*
X455276Y200193D01*
X456934Y199236D01*
X458783Y198740D01*
X460697D01*
X462546Y199236D01*
X464204Y200193D01*
X464842Y200831D01*
X526704D01*
X548990Y178545D01*
Y171330D01*
X563530D01*
Y185870D01*
X556315D01*
X532512Y209673D01*
X530831Y210795D01*
X528849Y211190D01*
X464842D01*
X464204Y211828D01*
X462546Y212785D01*
X460697Y213280D01*
D02*
G37*
G36*
X341515Y185300D02*
X339205D01*
X336975Y184702D01*
X334975Y183548D01*
X333342Y181915D01*
X332188Y179915D01*
X331590Y177685D01*
Y175375D01*
X332188Y173145D01*
X333342Y171145D01*
X334975Y169512D01*
X336975Y168358D01*
X339205Y167760D01*
X341515D01*
X343745Y168358D01*
X345745Y169512D01*
X347378Y171145D01*
X348532Y173145D01*
X349130Y175375D01*
Y177685D01*
X348532Y179915D01*
X347378Y181915D01*
X345745Y183548D01*
X343745Y184702D01*
X341515Y185300D01*
D02*
G37*
G36*
X520350Y185470D02*
X505810D01*
Y178255D01*
X489945Y162390D01*
X464842D01*
X464204Y163028D01*
X462546Y163985D01*
X460697Y164480D01*
X458783D01*
X456934Y163985D01*
X455276Y163028D01*
X453923Y161674D01*
X452965Y160016D01*
X452470Y158167D01*
Y156253D01*
X452965Y154404D01*
X453923Y152746D01*
X455276Y151393D01*
X456934Y150436D01*
X458783Y149940D01*
X460697D01*
X462546Y150436D01*
X464204Y151393D01*
X464842Y152031D01*
X492090D01*
X494072Y152425D01*
X495753Y153548D01*
X513135Y170930D01*
X520350D01*
Y185470D01*
D02*
G37*
G36*
X130728Y170310D02*
X128352D01*
X126058Y169695D01*
X124002Y168508D01*
X122322Y166828D01*
X121135Y164772D01*
X120520Y162477D01*
Y160103D01*
X121135Y157808D01*
X122322Y155752D01*
X124002Y154072D01*
X126058Y152885D01*
X128352Y152270D01*
X130728D01*
X133022Y152885D01*
X135078Y154072D01*
X136758Y155752D01*
X137945Y157808D01*
X138560Y160103D01*
Y162477D01*
X137945Y164772D01*
X136758Y166828D01*
X135078Y168508D01*
X133022Y169695D01*
X130728Y170310D01*
D02*
G37*
G36*
X105328D02*
X102952D01*
X100658Y169695D01*
X98602Y168508D01*
X96922Y166828D01*
X95735Y164772D01*
X95120Y162477D01*
Y160103D01*
X95735Y157808D01*
X96922Y155752D01*
X98602Y154072D01*
X100658Y152885D01*
X102952Y152270D01*
X105328D01*
X107622Y152885D01*
X109678Y154072D01*
X111358Y155752D01*
X112545Y157808D01*
X113160Y160103D01*
Y162477D01*
X112545Y164772D01*
X111358Y166828D01*
X109678Y168508D01*
X107622Y169695D01*
X105328Y170310D01*
D02*
G37*
G36*
X341515Y159900D02*
X339205D01*
X336975Y159302D01*
X334975Y158148D01*
X333342Y156515D01*
X332188Y154515D01*
X331590Y152285D01*
Y149975D01*
X332188Y147745D01*
X333342Y145745D01*
X334975Y144112D01*
X336975Y142958D01*
X339205Y142360D01*
X341515D01*
X343745Y142958D01*
X345745Y144112D01*
X347378Y145745D01*
X348532Y147745D01*
X349130Y149975D01*
Y152285D01*
X348532Y154515D01*
X347378Y156515D01*
X345745Y158148D01*
X343745Y159302D01*
X341515Y159900D01*
D02*
G37*
G36*
X206928Y160150D02*
X204552D01*
X202258Y159535D01*
X200202Y158348D01*
X198522Y156668D01*
X197335Y154612D01*
X196720Y152317D01*
Y149943D01*
X197335Y147648D01*
X198522Y145592D01*
X200202Y143912D01*
X202258Y142725D01*
X204552Y142110D01*
X206928D01*
X209222Y142725D01*
X211278Y143912D01*
X212958Y145592D01*
X214145Y147648D01*
X214760Y149943D01*
Y152317D01*
X214145Y154612D01*
X212958Y156668D01*
X211278Y158348D01*
X209222Y159535D01*
X206928Y160150D01*
D02*
G37*
G36*
X130728Y195710D02*
X128352D01*
X126058Y195095D01*
X124002Y193908D01*
X122322Y192228D01*
X121135Y190172D01*
X120520Y187878D01*
Y185502D01*
X121135Y183208D01*
X122322Y181152D01*
X124002Y179472D01*
X126058Y178285D01*
X128352Y177670D01*
X130728D01*
X131128Y177777D01*
X159921Y148985D01*
Y132080D01*
X160315Y130098D01*
X161437Y128418D01*
X163118Y127295D01*
X165100Y126901D01*
X167082Y127295D01*
X168762Y128418D01*
X169885Y130098D01*
X170280Y132080D01*
Y151130D01*
X169885Y153112D01*
X168762Y154792D01*
X138453Y185102D01*
X138560Y185502D01*
Y187878D01*
X137945Y190172D01*
X136758Y192228D01*
X135078Y193908D01*
X133022Y195095D01*
X130728Y195710D01*
D02*
G37*
G36*
Y144910D02*
X128352D01*
X126058Y144295D01*
X124002Y143108D01*
X122322Y141428D01*
X121135Y139372D01*
X120520Y137078D01*
Y134703D01*
X121135Y132408D01*
X122322Y130352D01*
X124002Y128672D01*
X126058Y127485D01*
X128352Y126870D01*
X130728D01*
X133022Y127485D01*
X135078Y128672D01*
X136758Y130352D01*
X137945Y132408D01*
X138560Y134703D01*
Y137078D01*
X137945Y139372D01*
X136758Y141428D01*
X135078Y143108D01*
X133022Y144295D01*
X130728Y144910D01*
D02*
G37*
G36*
X105328D02*
X102952D01*
X100658Y144295D01*
X98602Y143108D01*
X96922Y141428D01*
X95735Y139372D01*
X95120Y137078D01*
Y134703D01*
X95735Y132408D01*
X96922Y130352D01*
X98602Y128672D01*
X100658Y127485D01*
X102952Y126870D01*
X105328D01*
X107622Y127485D01*
X109678Y128672D01*
X111358Y130352D01*
X112545Y132408D01*
X113160Y134703D01*
Y137078D01*
X112545Y139372D01*
X111358Y141428D01*
X109678Y143108D01*
X107622Y144295D01*
X105328Y144910D01*
D02*
G37*
G36*
X310674Y141370D02*
X308365D01*
X306135Y140772D01*
X304135Y139618D01*
X302502Y137985D01*
X301348Y135985D01*
X300750Y133755D01*
Y131446D01*
X301348Y129215D01*
X302502Y127215D01*
X304135Y125583D01*
X306135Y124428D01*
X308365Y123830D01*
X310674D01*
X312905Y124428D01*
X314905Y125583D01*
X316537Y127215D01*
X317692Y129215D01*
X318290Y131446D01*
Y133755D01*
X317692Y135985D01*
X316537Y137985D01*
X314905Y139618D01*
X312905Y140772D01*
X310674Y141370D01*
D02*
G37*
G36*
X273290D02*
X255750D01*
Y123830D01*
X273290D01*
Y141370D01*
D02*
G37*
G36*
X206928Y134750D02*
X204552D01*
X202258Y134135D01*
X200202Y132948D01*
X198522Y131268D01*
X197335Y129212D01*
X196720Y126917D01*
Y124543D01*
X197335Y122248D01*
X198522Y120192D01*
X200202Y118512D01*
X202258Y117325D01*
X204552Y116710D01*
X206928D01*
X209222Y117325D01*
X211278Y118512D01*
X212958Y120192D01*
X213165Y120550D01*
X222645D01*
X233827Y109368D01*
X235508Y108245D01*
X237490Y107851D01*
X325663D01*
X327645Y108245D01*
X329325Y109368D01*
X337401Y117443D01*
X339205Y116960D01*
X341515D01*
X343745Y117558D01*
X345745Y118712D01*
X347378Y120345D01*
X348532Y122345D01*
X349130Y124575D01*
Y126885D01*
X348532Y129115D01*
X347378Y131115D01*
X345745Y132748D01*
X343745Y133902D01*
X341515Y134500D01*
X339205D01*
X336975Y133902D01*
X334975Y132748D01*
X333342Y131115D01*
X332188Y129115D01*
X331590Y126885D01*
Y126282D01*
X323517Y118209D01*
X239635D01*
X228452Y129392D01*
X226772Y130515D01*
X224790Y130910D01*
X213165D01*
X212958Y131268D01*
X211278Y132948D01*
X209222Y134135D01*
X206928Y134750D01*
D02*
G37*
G36*
X214760Y109350D02*
X196720D01*
Y91310D01*
X214760D01*
Y95150D01*
X333224D01*
X333342Y94945D01*
X334975Y93312D01*
X336975Y92158D01*
X339205Y91560D01*
X341515D01*
X343745Y92158D01*
X345745Y93312D01*
X347378Y94945D01*
X348532Y96945D01*
X349130Y99175D01*
Y101485D01*
X348532Y103715D01*
X347378Y105715D01*
X345745Y107348D01*
X343745Y108502D01*
X341515Y109100D01*
X339205D01*
X336975Y108502D01*
X334975Y107348D01*
X333342Y105715D01*
X333224Y105510D01*
X214760D01*
Y109350D01*
D02*
G37*
G36*
X417715Y185300D02*
X415405D01*
X413175Y184702D01*
X411175Y183548D01*
X409542Y181915D01*
X408388Y179915D01*
X407790Y177685D01*
Y175375D01*
X408388Y173145D01*
X409542Y171145D01*
X411175Y169512D01*
X413175Y168358D01*
X415405Y167760D01*
X415838D01*
X416587Y166637D01*
X449728Y133497D01*
X451408Y132375D01*
X453390Y131980D01*
X579515D01*
X622170Y89325D01*
Y78610D01*
X640210D01*
Y96650D01*
X629495D01*
X585322Y140822D01*
X583642Y141945D01*
X581660Y142339D01*
X455535D01*
X425006Y172869D01*
X424758Y173240D01*
X425330Y175375D01*
Y177685D01*
X424732Y179915D01*
X423578Y181915D01*
X421945Y183548D01*
X419945Y184702D01*
X417715Y185300D01*
D02*
G37*
G36*
Y159900D02*
X415405D01*
X413175Y159302D01*
X411175Y158148D01*
X409542Y156515D01*
X408388Y154515D01*
X407790Y152285D01*
Y149975D01*
X408388Y147745D01*
X409542Y145745D01*
X411175Y144112D01*
X413175Y142958D01*
X415405Y142360D01*
X417715D01*
X417944Y142421D01*
X443377Y116987D01*
X445058Y115865D01*
X447040Y115471D01*
X570625D01*
X596877Y89218D01*
X596770Y88818D01*
Y86442D01*
X597385Y84148D01*
X598572Y82092D01*
X600252Y80412D01*
X602308Y79225D01*
X604603Y78610D01*
X606978D01*
X609272Y79225D01*
X611328Y80412D01*
X613008Y82092D01*
X614195Y84148D01*
X614810Y86442D01*
Y88818D01*
X614195Y91112D01*
X613008Y93168D01*
X611328Y94848D01*
X609272Y96035D01*
X606978Y96650D01*
X604603D01*
X604202Y96543D01*
X576432Y124312D01*
X574752Y125435D01*
X572770Y125829D01*
X449185D01*
X425269Y149746D01*
X425330Y149975D01*
Y152285D01*
X424732Y154515D01*
X423578Y156515D01*
X421945Y158148D01*
X419945Y159302D01*
X417715Y159900D01*
D02*
G37*
G36*
Y134500D02*
X415405D01*
X413175Y133902D01*
X411175Y132748D01*
X409542Y131115D01*
X408388Y129115D01*
X407790Y126885D01*
Y124575D01*
X408388Y122345D01*
X409542Y120345D01*
X411175Y118712D01*
X413175Y117558D01*
X415405Y116960D01*
X417715D01*
X417944Y117021D01*
X431948Y103018D01*
X433628Y101895D01*
X435610Y101501D01*
X559195D01*
X571477Y89218D01*
X571370Y88818D01*
Y86442D01*
X571985Y84148D01*
X573172Y82092D01*
X574852Y80412D01*
X576908Y79225D01*
X579202Y78610D01*
X581577D01*
X583872Y79225D01*
X585928Y80412D01*
X587608Y82092D01*
X588795Y84148D01*
X589410Y86442D01*
Y88818D01*
X588795Y91112D01*
X587608Y93168D01*
X585928Y94848D01*
X583872Y96035D01*
X581577Y96650D01*
X579202D01*
X578802Y96543D01*
X565003Y110343D01*
X563322Y111465D01*
X561340Y111860D01*
X437755D01*
X425269Y124346D01*
X425330Y124575D01*
Y126885D01*
X424732Y129115D01*
X423578Y131115D01*
X421945Y132748D01*
X419945Y133902D01*
X417715Y134500D01*
D02*
G37*
G36*
X530778Y96650D02*
X528402D01*
X526108Y96035D01*
X524052Y94848D01*
X522372Y93168D01*
X521185Y91112D01*
X520570Y88818D01*
Y86442D01*
X521185Y84148D01*
X522372Y82092D01*
X524052Y80412D01*
X526108Y79225D01*
X528402Y78610D01*
X530778D01*
X533072Y79225D01*
X535128Y80412D01*
X536808Y82092D01*
X537995Y84148D01*
X538610Y86442D01*
Y88818D01*
X537995Y91112D01*
X536808Y93168D01*
X535128Y94848D01*
X533072Y96035D01*
X530778Y96650D01*
D02*
G37*
G36*
X505378D02*
X503003D01*
X500708Y96035D01*
X498652Y94848D01*
X496972Y93168D01*
X495785Y91112D01*
X495170Y88818D01*
Y86442D01*
X495785Y84148D01*
X496972Y82092D01*
X498652Y80412D01*
X500708Y79225D01*
X503003Y78610D01*
X505378D01*
X507672Y79225D01*
X509728Y80412D01*
X511408Y82092D01*
X512595Y84148D01*
X513210Y86442D01*
Y88818D01*
X512595Y91112D01*
X511408Y93168D01*
X509728Y94848D01*
X507672Y96035D01*
X505378Y96650D01*
D02*
G37*
G36*
X417715Y83700D02*
X415405D01*
X413175Y83102D01*
X411175Y81948D01*
X409542Y80315D01*
X408388Y78315D01*
X407790Y76085D01*
Y73775D01*
X408388Y71545D01*
X409542Y69545D01*
X411175Y67912D01*
X413175Y66758D01*
X415405Y66160D01*
X417715D01*
X419945Y66758D01*
X421945Y67912D01*
X423578Y69545D01*
X424732Y71545D01*
X425330Y73775D01*
Y76085D01*
X424732Y78315D01*
X423578Y80315D01*
X421945Y81948D01*
X419945Y83102D01*
X417715Y83700D01*
D02*
G37*
G36*
X341515D02*
X339205D01*
X336975Y83102D01*
X334975Y81948D01*
X333342Y80315D01*
X332188Y78315D01*
X331590Y76085D01*
Y73775D01*
X332188Y71545D01*
X333342Y69545D01*
X334975Y67912D01*
X336975Y66758D01*
X339205Y66160D01*
X341515D01*
X343745Y66758D01*
X345745Y67912D01*
X347378Y69545D01*
X348532Y71545D01*
X349130Y73775D01*
Y76085D01*
X348532Y78315D01*
X347378Y80315D01*
X345745Y81948D01*
X343745Y83102D01*
X341515Y83700D01*
D02*
G37*
G36*
X417715Y109100D02*
X415405D01*
X413175Y108502D01*
X411175Y107348D01*
X409542Y105715D01*
X408388Y103715D01*
X407790Y101485D01*
Y99175D01*
X408388Y96945D01*
X409542Y94945D01*
X411175Y93312D01*
X413175Y92158D01*
X415405Y91560D01*
X417715D01*
X417944Y91621D01*
X454808Y54757D01*
X456488Y53635D01*
X458470Y53240D01*
X538480D01*
X540462Y53635D01*
X542142Y54757D01*
X558652Y71267D01*
X559775Y72948D01*
X560169Y74930D01*
Y80205D01*
X560528Y80412D01*
X562208Y82092D01*
X563395Y84148D01*
X564010Y86442D01*
Y88818D01*
X563395Y91112D01*
X562208Y93168D01*
X560528Y94848D01*
X558472Y96035D01*
X556177Y96650D01*
X553802D01*
X551508Y96035D01*
X549452Y94848D01*
X547772Y93168D01*
X546585Y91112D01*
X545970Y88818D01*
Y86442D01*
X546585Y84148D01*
X547772Y82092D01*
X549452Y80412D01*
X549810Y80205D01*
Y77075D01*
X536335Y63600D01*
X460615D01*
X425269Y98946D01*
X425330Y99175D01*
Y101485D01*
X424732Y103715D01*
X423578Y105715D01*
X421945Y107348D01*
X419945Y108502D01*
X417715Y109100D01*
D02*
G37*
G36*
X682542Y55332D02*
X678898D01*
X675323Y54621D01*
X671956Y53226D01*
X668926Y51201D01*
X666349Y48624D01*
X664324Y45594D01*
X662929Y42227D01*
X662218Y38652D01*
Y35008D01*
X662929Y31433D01*
X664324Y28066D01*
X666349Y25036D01*
X668926Y22459D01*
X671956Y20434D01*
X675323Y19039D01*
X678898Y18328D01*
X682542D01*
X686117Y19039D01*
X689484Y20434D01*
X692514Y22459D01*
X695091Y25036D01*
X697116Y28066D01*
X698511Y31433D01*
X699222Y35008D01*
Y38652D01*
X698511Y42227D01*
X697116Y45594D01*
X695091Y48624D01*
X692514Y51201D01*
X689484Y53226D01*
X686117Y54621D01*
X682542Y55332D01*
D02*
G37*
G36*
X38652D02*
X35008D01*
X31433Y54621D01*
X28066Y53226D01*
X25036Y51201D01*
X22459Y48624D01*
X20434Y45594D01*
X19039Y42227D01*
X18328Y38652D01*
Y35008D01*
X19039Y31433D01*
X20434Y28066D01*
X22459Y25036D01*
X25036Y22459D01*
X28066Y20434D01*
X31433Y19039D01*
X35008Y18328D01*
X38652D01*
X42227Y19039D01*
X45594Y20434D01*
X48624Y22459D01*
X51201Y25036D01*
X53226Y28066D01*
X54621Y31433D01*
X55332Y35008D01*
Y38652D01*
X54621Y42227D01*
X53226Y45594D01*
X51201Y48624D01*
X48624Y51201D01*
X45594Y53226D01*
X42227Y54621D01*
X38652Y55332D01*
D02*
G37*
%LPD*%
D18*
X481330Y369730D02*
D03*
X284480Y258760D02*
D03*
X459740Y157210D02*
D03*
Y206010D02*
D03*
X556260Y228600D02*
D03*
X92710Y373380D02*
D03*
X102870Y314960D02*
D03*
X513080Y228200D02*
D03*
X551180Y294480D02*
D03*
D19*
X481330Y389730D02*
D03*
X284480Y238760D02*
D03*
X556260Y178600D02*
D03*
X92710Y393380D02*
D03*
X513080Y178200D02*
D03*
X551180Y274480D02*
D03*
D20*
X662940Y364490D02*
D03*
Y389890D02*
D03*
D30*
X297180Y413690D02*
D03*
X252730D02*
D03*
X209550Y411150D02*
D03*
X227800Y266700D02*
D03*
D31*
X297180Y313690D02*
D03*
X252730D02*
D03*
X209550Y311150D02*
D03*
D34*
X82870Y314960D02*
D03*
D35*
X127800Y266700D02*
D03*
D40*
X528849Y206010D02*
X556260Y178600D01*
X459740Y206010D02*
X528849D01*
X492090Y157210D02*
X513080Y178200D01*
X459740Y157210D02*
X492090D01*
X613410Y332740D02*
X633730Y312420D01*
X452120Y332740D02*
X613410D01*
X633730Y280670D02*
Y312420D01*
X435104Y296674D02*
Y315724D01*
X452120Y332740D01*
X653820Y260738D02*
X661936D01*
X650868Y263532D02*
X651026D01*
X653820Y260738D01*
X633730Y280670D02*
X650868Y263532D01*
X426066Y441344D02*
X438150Y429260D01*
X422790Y358020D02*
X438150Y373380D01*
Y429260D01*
X416560Y354330D02*
X418557D01*
X422247Y358020D01*
X422790D01*
X290450Y441344D02*
X426066D01*
X416560Y278130D02*
X435104Y296674D01*
X325663Y113030D02*
X338363Y125730D01*
X224790D02*
X237490Y113030D01*
X325663D01*
X205740Y100330D02*
X340360D01*
X205740Y125730D02*
X224790D01*
X245110Y215900D02*
X290830D01*
X205740Y176530D02*
X245110Y215900D01*
X290830D02*
X317500Y242570D01*
X165100Y132080D02*
Y151130D01*
X129540Y186690D02*
X165100Y151130D01*
X416560D02*
X447040Y120650D01*
X572770D02*
X605790Y87630D01*
X447040Y120650D02*
X572770D01*
X416560Y125730D02*
X435610Y106680D01*
X561340D02*
X580390Y87630D01*
X435610Y106680D02*
X561340D01*
X458470Y58420D02*
X538480D01*
X554990Y74930D02*
Y87630D01*
X538480Y58420D02*
X554990Y74930D01*
X416560Y100330D02*
X458470Y58420D01*
X416560Y174533D02*
Y176530D01*
Y174533D02*
X420250Y170843D01*
Y170300D02*
Y170843D01*
Y170300D02*
X453390Y137160D01*
X581660D01*
X631190Y87630D01*
X317500Y302260D02*
Y384810D01*
X336670Y401440D02*
X340360Y405130D01*
X334130Y401440D02*
X336670D01*
X317500Y384810D02*
X334130Y401440D01*
X306070Y290830D02*
X317500Y302260D01*
X275590Y290830D02*
X306070D01*
X252730Y313690D02*
X275590Y290830D01*
X272314Y423208D02*
X290450Y441344D01*
X272314Y338556D02*
Y423208D01*
Y338556D02*
X297180Y313690D01*
X92710Y373380D02*
X105410Y360680D01*
X153670D01*
X129540Y135890D02*
Y138022D01*
X127800Y266700D02*
X165100D01*
X209550Y311150D01*
X104140Y212090D02*
Y243040D01*
X127800Y266700D01*
X338363Y125730D02*
X340360D01*
D41*
X661936Y260738D02*
D03*
Y285738D02*
D03*
Y310738D02*
D03*
D42*
X530110Y355960D02*
D03*
Y400960D02*
D03*
X595110D02*
D03*
X340360Y379730D02*
D03*
Y354330D02*
D03*
Y328930D02*
D03*
Y303530D02*
D03*
Y278130D02*
D03*
Y252730D02*
D03*
Y227330D02*
D03*
Y201930D02*
D03*
Y176530D02*
D03*
Y151130D02*
D03*
Y125730D02*
D03*
Y100330D02*
D03*
Y74930D02*
D03*
X416560Y405130D02*
D03*
Y379730D02*
D03*
Y354330D02*
D03*
Y328930D02*
D03*
Y303530D02*
D03*
Y278130D02*
D03*
Y252730D02*
D03*
Y227330D02*
D03*
Y201930D02*
D03*
Y176530D02*
D03*
Y151130D02*
D03*
Y125730D02*
D03*
Y100330D02*
D03*
Y74930D02*
D03*
X309520Y132600D02*
D03*
Y197600D02*
D03*
X264520D02*
D03*
D43*
X595110Y355960D02*
D03*
X340360Y405130D02*
D03*
D44*
X205740Y100330D02*
D03*
X129540Y212090D02*
D03*
X614680Y269240D02*
D03*
D45*
X205740Y125730D02*
D03*
Y227330D02*
D03*
Y201930D02*
D03*
Y176530D02*
D03*
Y151130D02*
D03*
X129540Y186690D02*
D03*
Y161290D02*
D03*
Y135890D02*
D03*
X104140Y212090D02*
D03*
Y186690D02*
D03*
Y161290D02*
D03*
Y135890D02*
D03*
X614680Y294640D02*
D03*
X580390Y87630D02*
D03*
X554990D02*
D03*
X529590D02*
D03*
X504190D02*
D03*
X605790D02*
D03*
D46*
X680720Y458470D02*
D03*
Y36830D02*
D03*
X36830D02*
D03*
Y458470D02*
D03*
D47*
X457200Y309880D02*
D03*
D48*
Y284480D02*
D03*
Y259080D02*
D03*
D49*
X153670Y335280D02*
D03*
Y360680D02*
D03*
D50*
Y386080D02*
D03*
D51*
X631190Y87630D02*
D03*
D52*
X264520Y132600D02*
D03*
D53*
X497840Y254480D02*
D03*
Y314480D02*
D03*
D54*
X165100Y132080D02*
D03*
X317500Y242570D02*
D03*
M02*
