G04*
G04 #@! TF.GenerationSoftware,Altium Limited,Altium Designer,23.1.1 (15)*
G04*
G04 Layer_Color=32768*
%FSLAX25Y25*%
%MOIN*%
G70*
G04*
G04 #@! TF.SameCoordinates,7FBAD907-ECE7-4216-98B3-75AA29109797*
G04*
G04*
G04 #@! TF.FilePolarity,Positive*
G04*
G01*
G75*
%ADD56C,0.00394*%
%ADD57C,0.00197*%
G36*
X200005Y119500D02*
Y104490D01*
X192000D01*
Y119500D01*
X200005D01*
D02*
G37*
D56*
X221031Y151000D02*
X224969D01*
X223000Y149031D02*
Y152969D01*
X81000Y62531D02*
Y66469D01*
X79032Y64500D02*
X82969D01*
X181000Y69532D02*
Y73469D01*
X179032Y71500D02*
X182969D01*
X147032Y94500D02*
X150969D01*
X149000Y92532D02*
Y96469D01*
X58531Y142000D02*
X62469D01*
X60500Y140032D02*
Y143969D01*
X223500Y32531D02*
Y36468D01*
X221532Y34500D02*
X225469D01*
X113000Y63031D02*
Y66969D01*
X111031Y65000D02*
X114969D01*
D57*
X206858Y163205D02*
X239142D01*
Y138795D02*
Y163205D01*
X206858Y138795D02*
X239142D01*
X206858D02*
Y163205D01*
X68106Y94894D02*
X93894D01*
X68106Y34106D02*
X93894D01*
Y94894D01*
X68106Y34106D02*
Y94894D01*
X171455Y48764D02*
Y94237D01*
Y48764D02*
X190545D01*
Y94237D01*
X171455D02*
X190545D01*
X56630Y46610D02*
Y90390D01*
X35370Y46610D02*
X56630D01*
X35370D02*
Y90390D01*
X56630D01*
X185886Y95622D02*
Y128378D01*
X174114Y95622D02*
X185886D01*
X174114D02*
Y128378D01*
X185886D01*
X236370Y99110D02*
Y122890D01*
X247630Y99110D02*
Y122890D01*
X236370Y99110D02*
X247630D01*
X236370Y122890D02*
X247630D01*
X193106Y21606D02*
X253894D01*
X193106Y47394D02*
X253894D01*
Y21606D02*
Y47394D01*
X193106Y21606D02*
Y47394D01*
X125205Y48858D02*
Y81142D01*
X100795Y48858D02*
X125205D01*
X100795D02*
Y81142D01*
X125205D01*
M02*
