G04*
G04 #@! TF.GenerationSoftware,Altium Limited,Altium Designer,23.1.1 (15)*
G04*
G04 Layer_Color=32768*
%FSLAX25Y25*%
%MOIN*%
G70*
G04*
G04 #@! TF.SameCoordinates,7FBAD907-ECE7-4216-98B3-75AA29109797*
G04*
G04*
G04 #@! TF.FilePolarity,Positive*
G04*
G01*
G75*
%ADD13C,0.00787*%
D13*
X189500Y160721D02*
G03*
X189500Y138279I0J-11220D01*
G01*
D02*
G03*
X189500Y160721I0J11220D01*
G01*
X261000Y160508D02*
G03*
X261000Y136492I0J-12008D01*
G01*
D02*
G03*
X261000Y160508I0J12008D01*
G01*
X112000Y109158D02*
G03*
X112000Y86717I0J-11220D01*
G01*
D02*
G03*
X112000Y109158I0J11220D01*
G01*
X36500Y162157D02*
G03*
X36500Y139716I0J-11220D01*
G01*
D02*
G03*
X36500Y162157I0J11220D01*
G01*
X25343Y124000D02*
G03*
X47783Y124000I11220J0D01*
G01*
D02*
G03*
X25343Y124000I-11220J0D01*
G01*
X217000Y100779D02*
G03*
X217000Y123221I0J11220D01*
G01*
D02*
G03*
X217000Y100779I0J-11220D01*
G01*
X213685Y67559D02*
X224315D01*
Y92756D01*
X213685D02*
X224315D01*
X213685Y67559D02*
Y92756D01*
X111685Y120646D02*
X122315D01*
Y165724D01*
X111685D02*
X122315D01*
X111685Y120646D02*
Y165724D01*
X94185Y120646D02*
X104815D01*
Y165724D01*
X94185D02*
X104815D01*
X94185Y120646D02*
Y165724D01*
X77185Y119646D02*
X87815D01*
Y164724D01*
X77185D02*
X87815D01*
X77185Y119646D02*
Y164724D01*
X47461Y99685D02*
Y110315D01*
Y99685D02*
X92539D01*
Y110315D01*
X47461D02*
X92539D01*
X196685Y67401D02*
X207315D01*
Y92598D01*
X196685D02*
X207315D01*
X196685Y67401D02*
Y92598D01*
M02*
