G04*
G04 #@! TF.GenerationSoftware,Altium Limited,Altium Designer,23.1.1 (15)*
G04*
G04 Layer_Color=65535*
%FSLAX25Y25*%
%MOIN*%
G70*
G04*
G04 #@! TF.SameCoordinates,7FBAD907-ECE7-4216-98B3-75AA29109797*
G04*
G04*
G04 #@! TF.FilePolarity,Positive*
G04*
G01*
G75*
%ADD10C,0.00984*%
%ADD11C,0.00591*%
%ADD12C,0.00500*%
%ADD13C,0.00787*%
%ADD14C,0.02362*%
%ADD15C,0.01000*%
%ADD16C,0.01500*%
%ADD17C,0.00700*%
%ADD18C,0.00701*%
G36*
X247365Y87259D02*
X247737Y87247D01*
X247824Y87210D01*
X247886Y87185D01*
X248195Y87024D01*
X248220Y86999D01*
X248245Y86987D01*
X248344Y86888D01*
X248363Y86881D01*
X248375Y86857D01*
X248437Y86795D01*
X248449Y86770D01*
X248536Y86658D01*
X248598Y86559D01*
X248610Y86510D01*
X248685Y86349D01*
X248722Y86225D01*
X248734Y86076D01*
X248790Y86008D01*
X248864Y85958D01*
X248951Y85946D01*
X249224Y85958D01*
X249273Y85946D01*
X249310Y85958D01*
X253511Y85946D01*
X253548Y85934D01*
X253672Y85921D01*
X253734Y85896D01*
X253827Y85878D01*
X253926Y85840D01*
X254106Y85748D01*
X254192Y85698D01*
X254217Y85673D01*
X254242Y85661D01*
X254397Y85543D01*
X254434Y85506D01*
X254446Y85481D01*
X254583Y85345D01*
X254595Y85320D01*
X254644Y85246D01*
X254657Y85221D01*
X254707Y85172D01*
X254719Y85147D01*
X254855Y84862D01*
X254886Y84719D01*
X254905Y84651D01*
X254929Y84552D01*
X254942Y84316D01*
X254954Y84118D01*
X254942Y83883D01*
X254929Y82966D01*
X254917Y82929D01*
X254905Y82793D01*
X254880Y82731D01*
X254868Y82681D01*
X254818Y82557D01*
X254799Y82489D01*
X254762Y82390D01*
X254731Y82346D01*
X254694Y82309D01*
X254682Y82284D01*
X254583Y82099D01*
X254539Y82068D01*
X254471Y82012D01*
X254415Y81944D01*
X254366Y81894D01*
X254254Y81832D01*
X254229Y81808D01*
X254211Y81801D01*
X254205Y81783D01*
X254180Y81770D01*
X254143Y81733D01*
X254031Y81684D01*
X253913Y81640D01*
X253864Y81628D01*
X253796Y81597D01*
X253715Y81566D01*
X253666Y81554D01*
X253567Y81541D01*
X253430Y81516D01*
X246820Y81510D01*
X246783Y81523D01*
X246535Y81510D01*
X246498Y81498D01*
X246380Y81479D01*
X246256Y81454D01*
X246157Y81417D01*
X246114Y81399D01*
X246046Y81343D01*
X245971Y81293D01*
X245953Y81275D01*
X245928Y81262D01*
X245860Y81194D01*
X245847Y81169D01*
X245804Y81126D01*
X245779Y81114D01*
X245736Y81033D01*
X245649Y80847D01*
X245612Y80723D01*
X245600Y80599D01*
X245612Y80364D01*
X245606Y79875D01*
X245618Y79664D01*
X245631Y79590D01*
X245668Y79491D01*
X245829Y79230D01*
X245847Y79212D01*
X245860Y79187D01*
X245903Y79144D01*
X246039Y79069D01*
X246101Y79007D01*
X246126Y78995D01*
X246238Y78945D01*
X246337Y78921D01*
X246424Y78908D01*
X246473Y78896D01*
X246597Y78883D01*
X246647Y78871D01*
X250011Y78877D01*
X250184Y78865D01*
X250333Y78840D01*
X250438Y78809D01*
X250568Y78778D01*
X250841Y78642D01*
X250940Y78580D01*
X251008Y78512D01*
X251033Y78499D01*
X251070Y78462D01*
X251095Y78450D01*
X251212Y78332D01*
X251225Y78307D01*
X251299Y78233D01*
X251386Y78072D01*
X251411Y78047D01*
X251423Y78022D01*
X251510Y77836D01*
X251535Y77774D01*
X251559Y77688D01*
X251596Y77539D01*
X251609Y77415D01*
X251621Y77328D01*
X251609Y77031D01*
X251596Y76994D01*
X251566Y76851D01*
X251553Y76789D01*
X251541Y76740D01*
X251504Y76641D01*
X251380Y76393D01*
X251330Y76319D01*
X251311Y76300D01*
X251299Y76275D01*
X251225Y76201D01*
X251212Y76176D01*
X251082Y76046D01*
X251058Y76034D01*
X251033Y76009D01*
X251008Y75996D01*
X250946Y75934D01*
X250927Y75928D01*
X250921Y75922D01*
X250834Y75860D01*
X250810Y75848D01*
X250723Y75798D01*
X250562Y75724D01*
X250413Y75687D01*
X250326Y75662D01*
X250277Y75649D01*
X250190Y75637D01*
X249769Y75625D01*
X244652Y75612D01*
X244615Y75600D01*
X244503Y75587D01*
X244466Y75575D01*
X244404Y75550D01*
X244379Y75538D01*
X244292Y75488D01*
X244181Y75426D01*
X244032Y75278D01*
X244007Y75265D01*
X243964Y75222D01*
X243939Y75160D01*
X243877Y75024D01*
X243840Y74937D01*
X243803Y74788D01*
X243791Y74590D01*
X243803Y73599D01*
X243828Y73537D01*
X243871Y73419D01*
X244007Y73184D01*
X244082Y73110D01*
X244107Y73097D01*
X244144Y73060D01*
X244168Y73048D01*
X244206Y73010D01*
X244231Y72998D01*
X244317Y72936D01*
X244429Y72886D01*
X244478Y72874D01*
X244602Y72862D01*
X244776Y72849D01*
X244813Y72837D01*
X244980Y72843D01*
X244986Y72837D01*
X245011Y72849D01*
X245048Y72837D01*
X245711Y72843D01*
X245866Y72837D01*
X245878Y72849D01*
X245916Y72837D01*
X246132Y72843D01*
X246337Y72837D01*
X246362Y72849D01*
X246399Y72837D01*
X246424Y72849D01*
X246461Y72837D01*
X246603Y72843D01*
X246634Y72837D01*
X246671Y72849D01*
X246708Y72837D01*
X246758Y72849D01*
X246771Y72837D01*
X246783Y72849D01*
X246808Y72837D01*
X246820Y72849D01*
X246857Y72837D01*
X247433Y72843D01*
X247625Y72837D01*
X247663Y72849D01*
X247749Y72837D01*
X250550Y72849D01*
X250562Y72837D01*
X250599Y72849D01*
X251621Y72843D01*
X252495Y72849D01*
X252507Y72837D01*
X252544Y72849D01*
X252582Y72837D01*
X253183Y72843D01*
X253238Y72837D01*
X253275Y72849D01*
X253300Y72837D01*
X253337Y72849D01*
X253536Y72837D01*
X255580Y72849D01*
X255648Y72905D01*
X255685Y72942D01*
X255710Y73004D01*
X255729Y73072D01*
X255741Y73134D01*
X255753Y73184D01*
X255791Y73283D01*
X255822Y73351D01*
X255871Y73463D01*
X255884Y73487D01*
X255939Y73555D01*
X255995Y73611D01*
X256008Y73636D01*
X256057Y73686D01*
X256069Y73710D01*
X256162Y73803D01*
X256187Y73816D01*
X256224Y73853D01*
X256311Y73902D01*
X256373Y73964D01*
X256497Y74002D01*
X256608Y74051D01*
X256757Y74088D01*
X256918Y74101D01*
X257042Y74113D01*
X259316Y74107D01*
X259532Y74113D01*
X259570Y74101D01*
X259855Y74113D01*
X259892Y74101D01*
X259991Y74076D01*
X260078Y74026D01*
X260096Y74008D01*
X260121Y73946D01*
X260140Y73865D01*
X260164Y73717D01*
X260177Y73667D01*
X260202Y73605D01*
X260245Y73537D01*
X260313Y73506D01*
X260468Y73512D01*
X260604Y73500D01*
X260623Y73494D01*
X260660Y73506D01*
X260821Y73518D01*
X260933Y73506D01*
X260970Y73518D01*
X261069Y73506D01*
X261168Y73444D01*
X261193Y73432D01*
X261211Y73413D01*
X261224Y73388D01*
X261261Y73302D01*
X261267Y73246D01*
X261255Y73147D01*
X261249Y73066D01*
X261261Y73029D01*
X261255Y72725D01*
X261261Y71678D01*
X261211Y71592D01*
X261168Y71548D01*
X261143Y71536D01*
X261032Y71486D01*
X260982Y71474D01*
X260945Y71486D01*
X260809Y71474D01*
X260772Y71461D01*
X260462Y71474D01*
X260251Y71461D01*
X260195Y71418D01*
X260171Y71356D01*
X260158Y71307D01*
X260146Y71121D01*
X260059Y70960D01*
X260040Y70941D01*
X259960Y70910D01*
X259861Y70885D01*
X259737Y70873D01*
X259495Y70867D01*
X259458Y70879D01*
X259272Y70892D01*
X259235Y70879D01*
X257215Y70867D01*
X257178Y70854D01*
X257141Y70867D01*
X256993Y70879D01*
X256955Y70892D01*
X256831Y70904D01*
X256782Y70916D01*
X256664Y70935D01*
X256565Y70972D01*
X256435Y71028D01*
X256299Y71102D01*
X256274Y71127D01*
X256249Y71139D01*
X256181Y71195D01*
X256138Y71226D01*
X256032Y71331D01*
X256020Y71356D01*
X255970Y71406D01*
X255958Y71431D01*
X255871Y71567D01*
X255822Y71654D01*
X255797Y71715D01*
X255785Y71765D01*
X255753Y71846D01*
X255735Y71864D01*
X255710Y71951D01*
X255698Y72100D01*
X255630Y72168D01*
X255580Y72180D01*
X254236Y72174D01*
X254118Y72180D01*
X254081Y72168D01*
X244639Y72180D01*
X244602Y72193D01*
X244484Y72211D01*
X244410Y72224D01*
X244348Y72236D01*
X244299Y72248D01*
X244199Y72285D01*
X244131Y72316D01*
X244014Y72360D01*
X243946Y72403D01*
X243908Y72440D01*
X243797Y72502D01*
X243747Y72552D01*
X243722Y72564D01*
X243698Y72589D01*
X243673Y72601D01*
X243605Y72670D01*
X243592Y72694D01*
X243543Y72744D01*
X243537Y72763D01*
X243518Y72769D01*
X243506Y72794D01*
X243431Y72868D01*
X243419Y72893D01*
X243394Y72917D01*
X243258Y73202D01*
X243208Y73364D01*
X243183Y73450D01*
X243171Y73611D01*
X243159Y73809D01*
X243146Y73971D01*
X243159Y74280D01*
X243171Y74912D01*
X243183Y74949D01*
X243196Y75086D01*
X243221Y75148D01*
X243270Y75259D01*
X243326Y75414D01*
X243344Y75433D01*
X243357Y75457D01*
X243382Y75482D01*
X243394Y75507D01*
X243456Y75594D01*
X243468Y75618D01*
X243512Y75674D01*
X243537Y75687D01*
X243555Y75705D01*
X243568Y75730D01*
X243605Y75767D01*
X243617Y75792D01*
X243735Y75910D01*
X243760Y75922D01*
X243834Y75972D01*
X243946Y76034D01*
X243970Y76058D01*
X244057Y76095D01*
X244138Y76126D01*
X244292Y76195D01*
X244435Y76226D01*
X244509Y76238D01*
X244571Y76250D01*
X244739Y76269D01*
X245160Y76257D01*
X246808Y76269D01*
X246832Y76257D01*
X246870Y76269D01*
X246919Y76257D01*
X247006Y76269D01*
X247056Y76257D01*
X247217Y76269D01*
X248703Y76257D01*
X248741Y76269D01*
X250116Y76281D01*
X250153Y76294D01*
X250283Y76325D01*
X250333Y76337D01*
X250512Y76418D01*
X250537Y76430D01*
X250605Y76486D01*
X250642Y76523D01*
X250655Y76548D01*
X250791Y76684D01*
X250803Y76709D01*
X250853Y76783D01*
X250866Y76833D01*
X250890Y76858D01*
X250915Y76920D01*
X250952Y77043D01*
X250965Y77093D01*
X250989Y77266D01*
X250971Y77384D01*
X250958Y77446D01*
X250934Y77545D01*
X250834Y77768D01*
X250816Y77787D01*
X250803Y77812D01*
X250748Y77880D01*
X250698Y77929D01*
X250673Y77942D01*
X250642Y77973D01*
X250630Y77997D01*
X250599Y78028D01*
X250574Y78041D01*
X250512Y78066D01*
X250401Y78127D01*
X250265Y78189D01*
X250215Y78202D01*
X250060Y78220D01*
X249986Y78233D01*
X249825Y78245D01*
X249732Y78251D01*
X249695Y78239D01*
X246349Y78251D01*
X246312Y78264D01*
X246108Y78307D01*
X245971Y78357D01*
X245767Y78450D01*
X245699Y78505D01*
X245680Y78524D01*
X245655Y78536D01*
X245618Y78574D01*
X245593Y78586D01*
X245507Y78648D01*
X245482Y78660D01*
X245451Y78691D01*
X245439Y78716D01*
X245364Y78790D01*
X245358Y78809D01*
X245339Y78815D01*
X245327Y78840D01*
X245302Y78852D01*
X245290Y78877D01*
X245265Y78902D01*
X245253Y78927D01*
X245203Y79014D01*
X245092Y79175D01*
X245067Y79261D01*
X244980Y79534D01*
X244968Y79621D01*
X244937Y80122D01*
X244949Y80221D01*
X244955Y80302D01*
X244943Y80339D01*
X244955Y80661D01*
X244968Y80699D01*
X244980Y80884D01*
X245005Y80946D01*
X245030Y81046D01*
X245048Y81114D01*
X245116Y81256D01*
X245129Y81281D01*
X245209Y81399D01*
X245228Y81417D01*
X245240Y81442D01*
X245302Y81529D01*
X245315Y81554D01*
X245389Y81628D01*
X245401Y81653D01*
X245445Y81684D01*
X245500Y81739D01*
X245513Y81764D01*
X245593Y81845D01*
X245618Y81857D01*
X245829Y81969D01*
X245891Y82006D01*
X246008Y82049D01*
X246188Y82105D01*
X246275Y82117D01*
X246324Y82130D01*
X246448Y82142D01*
X246622Y82154D01*
X246659Y82142D01*
X247080Y82154D01*
X252600Y82148D01*
X253015Y82154D01*
X253052Y82142D01*
X253214Y82154D01*
X253467Y82173D01*
X253517Y82185D01*
X253616Y82223D01*
X253666Y82235D01*
X253728Y82260D01*
X253771Y82278D01*
X253883Y82365D01*
X253969Y82427D01*
X254031Y82464D01*
X254062Y82495D01*
X254075Y82520D01*
X254149Y82656D01*
X254211Y82743D01*
X254223Y82768D01*
X254260Y82854D01*
X254279Y83022D01*
X254291Y83158D01*
X254304Y83319D01*
X254310Y83994D01*
X254298Y84032D01*
X254310Y84193D01*
X254298Y84378D01*
X254285Y84416D01*
X254273Y84502D01*
X254260Y84552D01*
X254242Y84645D01*
X254217Y84707D01*
X254168Y84781D01*
X254075Y84936D01*
X254037Y84973D01*
X254025Y84998D01*
X253907Y85116D01*
X253821Y85165D01*
X253709Y85227D01*
X253647Y85252D01*
X253560Y85264D01*
X253511Y85277D01*
X253449Y85302D01*
X253399Y85314D01*
X252365Y85320D01*
X249286Y85314D01*
X249249Y85326D01*
X249013Y85314D01*
X248976Y85326D01*
X248864Y85314D01*
X248778Y85252D01*
X248747Y85184D01*
X248734Y85134D01*
X248722Y85010D01*
X248697Y84948D01*
X248654Y84831D01*
X248517Y84595D01*
X248449Y84527D01*
X248437Y84502D01*
X248363Y84428D01*
X248350Y84403D01*
X248294Y84347D01*
X248270Y84335D01*
X248202Y84279D01*
X248183Y84261D01*
X248158Y84248D01*
X248109Y84199D01*
X247923Y84112D01*
X247811Y84062D01*
X247762Y84050D01*
X247675Y84038D01*
X247495Y84019D01*
X246764Y84007D01*
X245804Y84001D01*
X245767Y84013D01*
X244670Y84007D01*
X244546Y84019D01*
X244447Y84056D01*
X244336Y84168D01*
X244311Y84230D01*
X244299Y84279D01*
X244286Y84366D01*
X244274Y84478D01*
X244206Y84570D01*
X244144Y84595D01*
X244094Y84608D01*
X243518Y84601D01*
X243444Y84614D01*
X243394Y84626D01*
X243301Y84670D01*
X243276Y84694D01*
X243252Y84707D01*
X243221Y84738D01*
X243208Y84763D01*
X243171Y84849D01*
X243152Y85549D01*
X243146Y85754D01*
X243159Y85791D01*
X243165Y86107D01*
X243152Y86181D01*
X243146Y86249D01*
X243159Y86287D01*
X243177Y86379D01*
X243196Y86497D01*
X243233Y86559D01*
X243276Y86602D01*
X243363Y86640D01*
X243413Y86652D01*
X243499Y86664D01*
X244168Y86677D01*
X244255Y86726D01*
X244274Y86745D01*
X244286Y86795D01*
X244299Y87018D01*
X244323Y87080D01*
X244373Y87166D01*
X244416Y87197D01*
X244491Y87247D01*
X244577Y87259D01*
X244608Y87265D01*
X244615Y87259D01*
X244652Y87272D01*
X244689Y87259D01*
X245116Y87265D01*
X245135Y87259D01*
X245172Y87272D01*
X246269Y87265D01*
X246312Y87272D01*
X246349Y87259D01*
X246473Y87272D01*
X246708Y87259D01*
X247223Y87265D01*
X247241Y87259D01*
X247278Y87272D01*
X247365Y87259D01*
D02*
G37*
G36*
X246589Y187035D02*
X246586Y172662D01*
X223719D01*
X184089Y172665D01*
X184092Y187038D01*
X246589Y187035D01*
D02*
G37*
%LPC*%
G36*
X244131Y86033D02*
X243883Y86020D01*
X243853Y85989D01*
X243840Y85964D01*
X243791Y85853D01*
X243797Y85698D01*
X243791Y85692D01*
X243803Y85655D01*
X243791Y85531D01*
X243803Y85357D01*
X243859Y85289D01*
X243958Y85264D01*
X244193Y85277D01*
X244218Y85302D01*
X244243Y85314D01*
X244274Y85370D01*
X244286Y85419D01*
Y85680D01*
Y85692D01*
X244274Y85927D01*
X244218Y85995D01*
X244131Y86033D01*
D02*
G37*
G36*
X245346Y86640D02*
X245308Y86627D01*
X245023Y86615D01*
X244955Y86559D01*
X244918Y86472D01*
X244931Y86051D01*
X244924Y85004D01*
X244931Y84899D01*
X244918Y84862D01*
X244912Y84794D01*
X244924Y84732D01*
X244974Y84682D01*
X245023Y84670D01*
X245061Y84657D01*
X245110Y84645D01*
X245389Y84651D01*
X245593Y84645D01*
X245631Y84657D01*
X245940Y84645D01*
X246962Y84651D01*
X247266Y84645D01*
X247303Y84657D01*
X247489Y84670D01*
X247526Y84682D01*
X247700Y84707D01*
X247855Y84825D01*
X248003Y84973D01*
X248041Y85060D01*
X248059Y85141D01*
X248090Y85246D01*
X248102Y85295D01*
X248115Y85419D01*
X248121Y85834D01*
X248109Y85946D01*
X248084Y86095D01*
X248072Y86144D01*
X247978Y86324D01*
X247910Y86417D01*
X247886Y86429D01*
X247811Y86479D01*
X247786Y86491D01*
X247737Y86541D01*
X247712Y86553D01*
X247650Y86578D01*
X247551Y86590D01*
X247514Y86602D01*
X247415Y86627D01*
X246851Y86621D01*
X246560Y86627D01*
X246547D01*
X245550Y86621D01*
X245426Y86633D01*
X245346Y86640D01*
D02*
G37*
G36*
X259384Y73494D02*
X258888Y73481D01*
X258802Y73494D01*
X258448Y73487D01*
X258442Y73494D01*
X258405Y73481D01*
X258393Y73494D01*
X258355Y73481D01*
X257971Y73494D01*
X257482Y73487D01*
X257327Y73494D01*
X257290Y73481D01*
X256949Y73487D01*
X256900Y73475D01*
X256801Y73438D01*
X256664Y73376D01*
X256559Y73308D01*
X256491Y73240D01*
X256392Y73029D01*
X256367Y72967D01*
X256342Y72868D01*
X256348Y72639D01*
X256336Y72403D01*
X256330Y72186D01*
X256342Y72149D01*
X256361Y72069D01*
X256385Y71970D01*
X256423Y71870D01*
X256435Y71858D01*
X256441Y71852D01*
X256453Y71827D01*
X256658Y71623D01*
X256683Y71610D01*
X256794Y71561D01*
X256893Y71536D01*
X256980Y71523D01*
X257253Y71536D01*
X257290Y71523D01*
X259229Y71530D01*
X259409Y71523D01*
X259477Y71567D01*
X259489Y71592D01*
X259514Y71654D01*
X259520Y72775D01*
X259514Y72781D01*
X259526Y72794D01*
X259514Y72831D01*
X259526Y73054D01*
X259514Y73091D01*
X259520Y73370D01*
X259477Y73438D01*
X259433Y73481D01*
X259384Y73494D01*
D02*
G37*
G36*
X260524Y72899D02*
X260251Y72886D01*
X260226Y72862D01*
X260202Y72849D01*
X260171Y72781D01*
Y72732D01*
Y72719D01*
X260164Y72255D01*
X260177Y72205D01*
X260208Y72162D01*
X260239Y72131D01*
X260338Y72106D01*
X260443Y72112D01*
X260548Y72106D01*
X260635Y72155D01*
X260666Y72224D01*
X260679Y72273D01*
X260685Y72800D01*
X260654Y72843D01*
X260635Y72862D01*
X260611Y72874D01*
X260573Y72886D01*
X260524Y72899D01*
D02*
G37*
G36*
X223663Y185082D02*
X223639Y185076D01*
X223580Y185079D01*
X223549Y185067D01*
X223543Y185055D01*
X223515Y185021D01*
X223481Y184993D01*
X223475Y184912D01*
X223465Y184903D01*
X223434Y184885D01*
X223425Y184875D01*
X223419Y184850D01*
X223422Y184699D01*
X223413Y184677D01*
X223403Y184668D01*
X223372Y184649D01*
X223363Y184640D01*
X223357Y184615D01*
X223363Y184572D01*
X223341Y184544D01*
X223310Y184526D01*
X223301Y184498D01*
X223295Y184380D01*
X223280Y184365D01*
X223249Y184346D01*
X223242Y184321D01*
X223239Y184312D01*
X223246Y184293D01*
X223239Y184269D01*
X223230Y184253D01*
X223218Y184247D01*
X223184Y184219D01*
X223177Y183972D01*
X223162Y183956D01*
X223150Y183950D01*
X223134Y183941D01*
X223128Y183916D01*
X223134Y183897D01*
X223143Y183888D01*
X223230Y183882D01*
X223261Y183832D01*
X223304Y183826D01*
X223366Y183832D01*
X223403Y183826D01*
X223413Y183817D01*
X223434Y183777D01*
X223459Y183771D01*
X223521Y183764D01*
X223536Y183749D01*
X223555Y183718D01*
X223583Y183709D01*
X223626Y183715D01*
X223654Y183693D01*
X223673Y183662D01*
X223682Y183653D01*
X223762Y183647D01*
X223772Y183637D01*
X223778Y183625D01*
X223799Y183597D01*
X223836Y183591D01*
X223855Y183597D01*
X223886Y183579D01*
X223895Y183569D01*
X223902Y183557D01*
X223911Y183542D01*
X223936Y183535D01*
X223997Y183529D01*
X224007Y183520D01*
X224025Y183489D01*
X224041Y183473D01*
X224053Y183467D01*
X224069Y183458D01*
X224075Y183446D01*
X224096Y183418D01*
X224171Y183412D01*
X224186Y183396D01*
X224192Y183384D01*
X224208Y183362D01*
X224220Y183356D01*
X224248Y183334D01*
X224254Y183322D01*
X224264Y183306D01*
X224276Y183300D01*
X224288Y183288D01*
X224301Y183282D01*
X224316Y183266D01*
X224322Y183254D01*
X224338Y183238D01*
X224350Y183232D01*
X224366Y183217D01*
X224372Y183204D01*
X224394Y183176D01*
X224474Y183170D01*
X224483Y183161D01*
X224502Y183130D01*
X224511Y183121D01*
X224523Y183115D01*
X224551Y183087D01*
X224557Y183074D01*
X224573Y183059D01*
X224585Y183053D01*
X224607Y183031D01*
X224613Y183019D01*
X224629Y183003D01*
X224641Y182997D01*
X224663Y182981D01*
X224669Y182957D01*
X224675Y182901D01*
X224691Y182886D01*
X224703Y182879D01*
X224731Y182852D01*
X224737Y182839D01*
X224752Y182824D01*
X224765Y182817D01*
X224793Y182790D01*
X224799Y182777D01*
X224814Y182762D01*
X224827Y182755D01*
X224842Y182740D01*
X224848Y182728D01*
X224858Y182712D01*
X224870Y182706D01*
X224882Y182694D01*
X224895Y182687D01*
X224920Y182650D01*
X224932Y182644D01*
X224966Y182616D01*
X224972Y182536D01*
X225009Y182511D01*
X225022Y182499D01*
X225028Y182486D01*
X225049Y182465D01*
X225062Y182458D01*
X225077Y182449D01*
X225084Y182424D01*
X225090Y182363D01*
X225105Y182347D01*
X225136Y182328D01*
X225146Y182301D01*
X225139Y182264D01*
X225158Y182233D01*
X225192Y182211D01*
X225201Y182202D01*
X225207Y182158D01*
X225201Y182134D01*
X225207Y182065D01*
X225223Y182050D01*
X225254Y182032D01*
X225263Y182022D01*
X225260Y181908D01*
X225269Y181886D01*
X225285Y181871D01*
X225316Y181852D01*
X225325Y181818D01*
X225319Y181719D01*
X225347Y181691D01*
X225374Y181676D01*
X225381Y181651D01*
X225377Y181444D01*
X225384Y181419D01*
X225396Y181400D01*
X225427Y181382D01*
X225436Y181372D01*
X225443Y181348D01*
X225439Y181264D01*
X225443Y181063D01*
X225436Y181044D01*
X225446Y180998D01*
X225458Y180986D01*
X225483Y180979D01*
X226789Y180986D01*
X226804Y181001D01*
X226810Y181081D01*
X226826Y181097D01*
X226838Y181103D01*
X226860Y181119D01*
X226866Y181143D01*
X226860Y181193D01*
X226844Y181208D01*
X226832Y181215D01*
X226810Y181230D01*
X226804Y181255D01*
X226807Y181536D01*
X226798Y181558D01*
X226789Y181567D01*
X226758Y181586D01*
X226748Y181595D01*
X226742Y181620D01*
X226748Y181719D01*
X226742Y181966D01*
X226727Y181982D01*
X226696Y182001D01*
X226687Y182028D01*
X226680Y182053D01*
X226687Y182072D01*
X226690Y182118D01*
X226683Y182143D01*
X226677Y182155D01*
X226665Y182161D01*
X226637Y182177D01*
X226631Y182189D01*
X226625Y182208D01*
X226628Y182285D01*
X226625Y182319D01*
X226631Y182338D01*
X226625Y182381D01*
X226609Y182397D01*
X226578Y182415D01*
X226569Y182424D01*
X226563Y182505D01*
X226547Y182520D01*
X226516Y182539D01*
X226507Y182548D01*
X226501Y182629D01*
X226451Y182660D01*
X226448Y182694D01*
X226451Y182734D01*
X226430Y182755D01*
X226399Y182774D01*
X226389Y182783D01*
X226383Y182864D01*
X226374Y182873D01*
X226343Y182892D01*
X226334Y182901D01*
X226327Y182926D01*
X226334Y183019D01*
X226318Y183046D01*
X226306Y183053D01*
X226278Y183074D01*
X226272Y183087D01*
X226256Y183108D01*
X226244Y183115D01*
X226210Y183142D01*
X226204Y183217D01*
X226188Y183232D01*
X226176Y183238D01*
X226154Y183260D01*
X226148Y183272D01*
X226126Y183294D01*
X226114Y183300D01*
X226098Y183309D01*
X226092Y183334D01*
X226086Y183396D01*
X226071Y183412D01*
X226043Y183427D01*
X226037Y183439D01*
X226015Y183467D01*
X226003Y183473D01*
X225969Y183508D01*
X225962Y183520D01*
X225953Y183529D01*
X225922Y183548D01*
X225913Y183575D01*
X225907Y183637D01*
X225869Y183662D01*
X225857Y183675D01*
X225851Y183687D01*
X225829Y183709D01*
X225817Y183715D01*
X225795Y183737D01*
X225789Y183817D01*
X225780Y183826D01*
X225746Y183829D01*
X225712Y183826D01*
X225678Y183854D01*
X225672Y183866D01*
X225644Y183894D01*
X225631Y183900D01*
X225622Y183910D01*
X225616Y183922D01*
X225588Y183950D01*
X225576Y183956D01*
X225560Y183972D01*
X225554Y183984D01*
X225526Y184012D01*
X225514Y184018D01*
X225498Y184034D01*
X225492Y184046D01*
X225470Y184068D01*
X225458Y184074D01*
X225443Y184089D01*
X225436Y184102D01*
X225409Y184129D01*
X225368Y184151D01*
X225362Y184163D01*
X225353Y184173D01*
X225328Y184179D01*
X225316D01*
X225278Y184191D01*
X225263Y184207D01*
X225257Y184238D01*
X225263Y184256D01*
X225257Y184287D01*
X225241Y184303D01*
X225161Y184309D01*
X225146Y184324D01*
X225127Y184355D01*
X225090Y184380D01*
X225084Y184392D01*
X225062Y184420D01*
X225037Y184426D01*
X225012Y184420D01*
X224978Y184430D01*
X224947Y184473D01*
X224938Y184482D01*
X224926Y184488D01*
X224904Y184510D01*
X224898Y184522D01*
X224876Y184544D01*
X224864Y184550D01*
X224842Y184572D01*
X224836Y184584D01*
X224821Y184600D01*
X224746Y184606D01*
X224731Y184622D01*
X224712Y184652D01*
X224703Y184662D01*
X224623Y184668D01*
X224613Y184677D01*
X224595Y184708D01*
X224585Y184717D01*
X224561Y184724D01*
X224523Y184717D01*
X224496Y184733D01*
X224474Y184773D01*
X224431Y184785D01*
X224387Y184779D01*
X224325Y184785D01*
X224294Y184835D01*
X224270Y184841D01*
X224208Y184847D01*
X224192Y184863D01*
X224174Y184894D01*
X224149Y184900D01*
X224103Y184897D01*
X224081Y184912D01*
X224075Y184925D01*
X224053Y184952D01*
X224041Y184959D01*
X224019Y184980D01*
X224001Y185011D01*
X223979Y185014D01*
X223963Y185005D01*
X223939Y184962D01*
X223911Y184959D01*
X223895Y184974D01*
X223874Y185014D01*
X223849Y185021D01*
X223750Y185014D01*
X223716Y185042D01*
X223697Y185073D01*
X223663Y185082D01*
D02*
G37*
G36*
X223242Y183597D02*
X223218Y183591D01*
X223041Y183594D01*
X223020Y183585D01*
X223004Y183569D01*
X222998Y183526D01*
X223004Y183508D01*
X223007Y183467D01*
X223001Y183436D01*
X222983Y183418D01*
X222952Y183399D01*
X222942Y183371D01*
X222936Y183309D01*
X222927Y183300D01*
X222896Y183282D01*
X222887Y183272D01*
X222880Y183229D01*
X222887Y183186D01*
X222880Y183136D01*
X222865Y183121D01*
X222834Y183102D01*
X222825Y183093D01*
X222818Y183012D01*
X222809Y183003D01*
X222784Y182997D01*
X216983Y183000D01*
X216961Y182991D01*
X216945Y182975D01*
X216930Y182947D01*
X216917Y182941D01*
X216883Y182913D01*
X216890Y180760D01*
X216905Y180744D01*
X216930Y180738D01*
X217014Y180741D01*
X221961Y180738D01*
X221980Y180744D01*
X222036Y180738D01*
X222051Y180723D01*
X222057Y180679D01*
X222051Y180636D01*
X222057Y173989D01*
X222067Y173974D01*
X222091Y173968D01*
X224356Y173974D01*
X224366Y173983D01*
X224372Y174008D01*
X224366Y174051D01*
X224381Y174079D01*
X224394Y174085D01*
X224428Y174113D01*
X224431Y174153D01*
X224428Y180846D01*
X224434Y180865D01*
X224428Y180890D01*
X224406Y180911D01*
X224375Y180930D01*
X224372Y180964D01*
X224387Y180979D01*
X224412Y180986D01*
X224493Y180979D01*
X225124Y180986D01*
X225139Y181001D01*
X225146Y181044D01*
X225139Y181088D01*
X225142Y181363D01*
X225118Y181394D01*
X225087Y181413D01*
X225077Y181447D01*
X225084Y181490D01*
X225077Y181676D01*
X225068Y181685D01*
X225028Y181707D01*
X225022Y181731D01*
X225025Y181833D01*
X225015Y181855D01*
X225006Y181864D01*
X224975Y181883D01*
X224966Y181892D01*
X224960Y181917D01*
X224966Y182016D01*
X224951Y182038D01*
X224938Y182044D01*
X224904Y182072D01*
X224901Y182112D01*
X224907Y182161D01*
X224910Y182171D01*
X224898Y182208D01*
X224889Y182217D01*
X224876Y182223D01*
X224848Y182245D01*
X224830Y182276D01*
X224796Y182298D01*
X224786Y182307D01*
X224780Y182387D01*
X224771Y182397D01*
X224740Y182415D01*
X224731Y182424D01*
X224725Y182437D01*
X224697Y182465D01*
X224684Y182471D01*
X224669Y182486D01*
X224663Y182499D01*
X224635Y182527D01*
X224623Y182533D01*
X224607Y182548D01*
X224601Y182623D01*
X224585Y182638D01*
X224554Y182657D01*
X224545Y182684D01*
X224539Y182746D01*
X224530Y182755D01*
X224505Y182762D01*
X224443Y182768D01*
X224434Y182777D01*
X224415Y182808D01*
X224406Y182817D01*
X224394Y182824D01*
X224372Y182839D01*
X224366Y182882D01*
X224372Y182901D01*
X224353Y182932D01*
X224325Y182941D01*
X224307Y182935D01*
X224270Y182941D01*
X224260Y182950D01*
X224254Y182963D01*
X224226Y182997D01*
X224214Y183003D01*
X224192Y183025D01*
X224186Y183037D01*
X224171Y183053D01*
X224158Y183059D01*
X224131Y183087D01*
X224124Y183099D01*
X224109Y183115D01*
X224096Y183121D01*
X224069Y183149D01*
X224062Y183161D01*
X224047Y183176D01*
X224035Y183183D01*
X224007Y183210D01*
X224001Y183223D01*
X223991Y183232D01*
X223967Y183238D01*
X223929Y183232D01*
X223902Y183248D01*
X223880Y183288D01*
X223855Y183294D01*
X223793Y183300D01*
X223778Y183316D01*
X223759Y183347D01*
X223750Y183356D01*
X223670Y183362D01*
X223648Y183396D01*
X223632Y183412D01*
X223620Y183418D01*
X223598Y183439D01*
X223592Y183452D01*
X223570Y183473D01*
X223490Y183467D01*
X223484D01*
X223447Y183473D01*
X223425Y183489D01*
X223410Y183523D01*
X223379Y183535D01*
X223332Y183532D01*
X223310Y183542D01*
X223286Y183585D01*
X223242Y183597D01*
D02*
G37*
G36*
X200616Y183418D02*
X200517Y183412D01*
X190420Y183415D01*
X190396Y183402D01*
X190374Y183362D01*
X190343Y183350D01*
X190244Y183356D01*
X189755Y183350D01*
X189734Y183328D01*
X189718Y183300D01*
X189693Y183294D01*
X189535Y183297D01*
X189514Y183288D01*
X189498Y183272D01*
X189480Y183241D01*
X189452Y183232D01*
X189372Y183238D01*
X189353Y183232D01*
X189334Y183238D01*
X189279Y183232D01*
X189263Y183217D01*
X189245Y183186D01*
X189235Y183176D01*
X189192Y183170D01*
X189173Y183176D01*
X189099Y183170D01*
X189084Y183155D01*
X189065Y183124D01*
X189037Y183115D01*
X188997Y183118D01*
X188975Y183108D01*
X188966Y183099D01*
X188948Y183068D01*
X188938Y183059D01*
X188858Y183053D01*
X188849Y183043D01*
X188827Y183003D01*
X188802Y182997D01*
X188740Y182991D01*
X188725Y182975D01*
X188709Y182947D01*
X188697Y182941D01*
X188669Y182920D01*
X188663Y182907D01*
X188654Y182892D01*
X188641Y182886D01*
X188629Y182873D01*
X188617Y182867D01*
X188607Y182858D01*
X188589Y182827D01*
X188561Y182817D01*
X188521Y182820D01*
X188499Y182811D01*
X188474Y182774D01*
X188462Y182762D01*
X188449Y182755D01*
X188428Y182734D01*
X188421Y182721D01*
X188406Y182706D01*
X188394Y182700D01*
X188366Y182672D01*
X188360Y182660D01*
X188344Y182644D01*
X188332Y182638D01*
X188304Y182610D01*
X188298Y182598D01*
X188282Y182582D01*
X188270Y182576D01*
X188248Y182554D01*
X188242Y182542D01*
X188220Y182520D01*
X188208Y182514D01*
X188192Y182499D01*
X188186Y182474D01*
X188192Y182449D01*
X188186Y182424D01*
X188171Y182409D01*
X188140Y182390D01*
X188131Y182381D01*
X188109Y182341D01*
X188097Y182335D01*
X188075Y182313D01*
X188069Y182245D01*
X188053Y182229D01*
X188022Y182211D01*
X188013Y182202D01*
X188007Y182158D01*
X188013Y182134D01*
X188007Y182010D01*
X187985Y181988D01*
X187957Y181973D01*
X187951Y181948D01*
X187948Y181926D01*
X187957Y181855D01*
X187936Y181815D01*
X187905Y181796D01*
X187896Y181787D01*
X187889Y181762D01*
X187896Y181676D01*
X187889Y181657D01*
X187892Y181425D01*
X187877Y181403D01*
X187868Y181394D01*
X187837Y181376D01*
X187827Y181341D01*
X187834Y181298D01*
X187830Y176387D01*
X187843Y176356D01*
X187886Y176326D01*
X187896Y176298D01*
X187889Y176180D01*
X187892Y176022D01*
X187889Y175963D01*
X187917Y175929D01*
X187945Y175914D01*
X187957Y175871D01*
X187951Y175827D01*
X187957Y175765D01*
X188007Y175734D01*
X188013Y175710D01*
X188010Y175608D01*
X188019Y175586D01*
X188029Y175577D01*
X188063Y175561D01*
X188069Y175536D01*
X188075Y175475D01*
X188090Y175459D01*
X188121Y175441D01*
X188131Y175413D01*
X188137Y175351D01*
X188146Y175341D01*
X188177Y175323D01*
X188186Y175314D01*
X188192Y175301D01*
X188208Y175280D01*
X188239Y175261D01*
X188248Y175252D01*
X188254Y175171D01*
X188292Y175146D01*
X188310Y175128D01*
X188316Y175116D01*
X188332Y175100D01*
X188344Y175094D01*
X188366Y175072D01*
X188372Y175060D01*
X188381Y175044D01*
X188406Y175038D01*
X188468Y175032D01*
X188483Y175016D01*
X188490Y175004D01*
X188499Y174989D01*
X188511Y174983D01*
X188524Y174970D01*
X188536Y174964D01*
X188551Y174942D01*
X188579Y174914D01*
X188592Y174908D01*
X188601Y174899D01*
X188607Y174887D01*
X188641Y174853D01*
X188654Y174846D01*
X188663Y174837D01*
X188669Y174825D01*
X188678Y174809D01*
X188691Y174803D01*
X188734Y174772D01*
X188753Y174753D01*
X188784Y174741D01*
X188883Y174735D01*
X188898Y174720D01*
X188917Y174688D01*
X188944Y174679D01*
X188985Y174682D01*
X189006Y174673D01*
X189016Y174664D01*
X189034Y174633D01*
X189043Y174624D01*
X189124Y174617D01*
X189133Y174608D01*
X189152Y174577D01*
X189167Y174562D01*
X189282Y174565D01*
X189303Y174556D01*
X189313Y174546D01*
X189331Y174515D01*
X189341Y174506D01*
X189365Y174500D01*
X189464Y174506D01*
X189492Y174484D01*
X189511Y174453D01*
X189520Y174444D01*
X189836Y174438D01*
X189851Y174422D01*
X189870Y174391D01*
X189898Y174382D01*
X189975Y174385D01*
X190188Y174382D01*
X190207Y174388D01*
X190250Y174382D01*
X190272Y174361D01*
X190278Y174348D01*
X190287Y174339D01*
X190312Y174345D01*
X190349Y174382D01*
X190374Y174388D01*
X190473Y174382D01*
X191538D01*
X200688Y174385D01*
X200753Y174382D01*
X200780Y174404D01*
X200787Y174429D01*
X200780Y174565D01*
X200783Y176493D01*
X200768Y176514D01*
X200731Y176539D01*
X200725Y176551D01*
X200703Y176579D01*
X200691Y176585D01*
X200675Y176595D01*
X200669Y176607D01*
X200641Y176641D01*
X200604Y176647D01*
X200586Y176641D01*
X190343Y176647D01*
X190334Y176656D01*
X190315Y176688D01*
X190306Y176697D01*
X190294Y176703D01*
X190272Y176718D01*
X190266Y176743D01*
X190260Y176805D01*
X190250Y176814D01*
X190219Y176833D01*
X190210Y176842D01*
X190204Y176885D01*
X190210Y176929D01*
X190207Y180942D01*
X190216Y180964D01*
X190226Y180973D01*
X190257Y180992D01*
X190266Y181001D01*
X190272Y181013D01*
X190300Y181041D01*
X190312Y181047D01*
X190328Y181063D01*
X190346Y181094D01*
X190420Y181100D01*
X190439Y181112D01*
X190458Y181143D01*
X190473Y181159D01*
X200688Y181156D01*
X200709Y181165D01*
X200718Y181174D01*
X200725Y181187D01*
X200746Y181208D01*
X200759Y181215D01*
X200780Y181230D01*
X200774Y181267D01*
X200765Y181276D01*
X200731Y181292D01*
X200718Y181323D01*
X200725Y181385D01*
X200722Y183195D01*
X200731Y183217D01*
X200740Y183226D01*
X200771Y183245D01*
X200780Y183254D01*
X200774Y183285D01*
X200765Y183294D01*
X200753Y183300D01*
X200725Y183322D01*
X200718Y183334D01*
X200697Y183356D01*
X200684Y183362D01*
X200663Y183384D01*
X200657Y183396D01*
X200641Y183412D01*
X200616Y183418D01*
D02*
G37*
G36*
X242607Y183238D02*
X242542Y183235D01*
X232235Y183238D01*
X232216Y183232D01*
X232126Y183235D01*
X232105Y183220D01*
X232095Y183210D01*
X232089Y183198D01*
X232080Y183183D01*
X232055Y183176D01*
X232037Y183170D01*
X232018Y183176D01*
X231718Y183179D01*
X231696Y183170D01*
X231687Y183161D01*
X231681Y183136D01*
X231665Y183121D01*
X231647Y183115D01*
X231625Y183130D01*
X231603Y183170D01*
X231579Y183176D01*
X231563Y183167D01*
X231538Y183124D01*
X231529Y183115D01*
X231415Y183118D01*
X231393Y183108D01*
X231371Y183074D01*
X231356Y183059D01*
X231312Y183053D01*
X231288Y183059D01*
X231164Y183053D01*
X231142Y183031D01*
X231127Y183003D01*
X231102Y182997D01*
X231000Y183000D01*
X230975Y182988D01*
X230969Y182975D01*
X230947Y182941D01*
X230910Y182935D01*
X230892Y182941D01*
X230867Y182935D01*
X230852Y182920D01*
X230833Y182889D01*
X230824Y182879D01*
X230743Y182873D01*
X230734Y182864D01*
X230715Y182833D01*
X230706Y182824D01*
X230694Y182817D01*
X230678Y182808D01*
X230672Y182796D01*
X230644Y182762D01*
X230570Y182755D01*
X230554Y182740D01*
X230548Y182728D01*
X230520Y182700D01*
X230508Y182694D01*
X230492Y182678D01*
X230486Y182666D01*
X230458Y182638D01*
X230446Y182632D01*
X230431Y182616D01*
X230424Y182604D01*
X230403Y182582D01*
X230390Y182576D01*
X230375Y182561D01*
X230369Y182548D01*
X230341Y182520D01*
X230328Y182514D01*
X230313Y182499D01*
X230307Y182486D01*
X230285Y182465D01*
X230273Y182458D01*
X230251Y182437D01*
X230245Y182424D01*
X230223Y182403D01*
X230211Y182397D01*
X230195Y182381D01*
X230192Y182353D01*
X230195Y182319D01*
X230168Y182285D01*
X230155Y182279D01*
X230127Y182251D01*
X230121Y182239D01*
X230112Y182229D01*
X230100Y182223D01*
X230078Y182208D01*
X230072Y182183D01*
X230075Y182143D01*
X230065Y182121D01*
X230056Y182112D01*
X230025Y182093D01*
X230016Y182084D01*
X230010Y182004D01*
X229960Y181973D01*
X229954Y181948D01*
X229957Y181852D01*
X229945Y181821D01*
X229902Y181790D01*
X229892Y181762D01*
X229898Y181663D01*
X229877Y181635D01*
X229846Y181617D01*
X229837Y181607D01*
X229830Y181236D01*
X229809Y181215D01*
X229781Y181199D01*
X229775Y181174D01*
X229778Y181103D01*
X229775Y176341D01*
X229781Y176335D01*
X229775Y176316D01*
X229781Y176248D01*
X229796Y176233D01*
X229830Y176217D01*
X229837Y176192D01*
X229818Y176161D01*
X229793Y176143D01*
X229790Y176127D01*
X229815Y176103D01*
X229827Y176096D01*
X229837Y176069D01*
X229833Y175855D01*
X229840Y175830D01*
X229858Y175812D01*
X229889Y175793D01*
X229898Y175765D01*
X229892Y175666D01*
X229920Y175632D01*
X229951Y175614D01*
X229957Y175589D01*
X229960Y175561D01*
X229954Y175543D01*
X229960Y175468D01*
X230010Y175437D01*
X230016Y175413D01*
X230022Y175351D01*
X230038Y175335D01*
X230056Y175329D01*
X230072Y175314D01*
X230075Y175292D01*
X230072Y175245D01*
X230087Y175224D01*
X230127Y175202D01*
X230134Y175177D01*
X230140Y175116D01*
X230155Y175100D01*
X230168Y175094D01*
X230195Y175066D01*
X230202Y175054D01*
X230217Y175038D01*
X230229Y175032D01*
X230257Y175004D01*
X230263Y174992D01*
X230273Y174983D01*
X230285Y174976D01*
X230313Y174949D01*
X230319Y174936D01*
X230335Y174921D01*
X230347Y174914D01*
X230375Y174887D01*
X230381Y174874D01*
X230390Y174865D01*
X230403Y174859D01*
X230437Y174825D01*
X230443Y174812D01*
X230452Y174803D01*
X230465Y174797D01*
X230492Y174769D01*
X230499Y174757D01*
X230514Y174741D01*
X230527Y174735D01*
X230554Y174707D01*
X230561Y174695D01*
X230570Y174685D01*
X230595Y174679D01*
X230635Y174682D01*
X230657Y174667D01*
X230666Y174658D01*
X230672Y174645D01*
X230694Y174624D01*
X230706Y174617D01*
X230728Y174596D01*
X230743Y174568D01*
X230768Y174562D01*
X230830Y174556D01*
X230845Y174540D01*
X230864Y174509D01*
X230892Y174500D01*
X230916Y174506D01*
X230947Y174500D01*
X230957Y174490D01*
X230975Y174460D01*
X230991Y174444D01*
X231031Y174441D01*
X231093Y174447D01*
X231118Y174441D01*
X231136Y174429D01*
X231155Y174398D01*
X231170Y174382D01*
X231229Y174385D01*
X231251Y174370D01*
X231260Y174361D01*
X231266Y174348D01*
X231282Y174333D01*
X231300Y174339D01*
X231316Y174354D01*
X231322Y174367D01*
X231337Y174382D01*
X231374Y174376D01*
X231405Y174327D01*
X231430Y174320D01*
X231511Y174327D01*
X231597Y174320D01*
X231619Y174299D01*
X231634Y174271D01*
X231659Y174265D01*
X231996Y174268D01*
X232018Y174258D01*
X232027Y174249D01*
X232033Y174237D01*
X232049Y174215D01*
X232074Y174221D01*
X232089Y174237D01*
X232095Y174249D01*
X232111Y174265D01*
X232142Y174258D01*
X232157Y174243D01*
X232164Y174224D01*
X232185Y174203D01*
X232340Y174209D01*
X242697Y174206D01*
X242728Y174231D01*
X242722Y176384D01*
X242706Y176400D01*
X242694Y176406D01*
X242666Y176434D01*
X242660Y176446D01*
X242644Y176462D01*
X242601Y176468D01*
X242576Y176462D01*
X232346Y176468D01*
X232337Y176477D01*
X232331Y176489D01*
X232309Y176517D01*
X232284Y176523D01*
X232222Y176530D01*
X232213Y176558D01*
X232207Y176626D01*
X232197Y176635D01*
X232157Y176656D01*
X232151Y176681D01*
X232157Y180784D01*
X232167Y180794D01*
X232207Y180815D01*
X232213Y180840D01*
X232219Y180908D01*
X232228Y180918D01*
X232315Y180924D01*
X232324Y180933D01*
X232346Y180973D01*
X232371Y180979D01*
X242656Y180986D01*
X242666Y181013D01*
X242672Y181081D01*
X242681Y181091D01*
X242712Y181109D01*
X242728Y181125D01*
Y181614D01*
Y181620D01*
X242722Y182975D01*
X242706Y182991D01*
X242675Y183009D01*
X242666Y183031D01*
X242681Y183053D01*
X242724Y183077D01*
X242728Y183099D01*
X242706Y183121D01*
X242687Y183127D01*
X242672Y183136D01*
X242666Y183161D01*
X242660Y183223D01*
X242650Y183232D01*
X242607Y183238D01*
D02*
G37*
G36*
X215358D02*
X215268Y183235D01*
X213340Y183238D01*
X213322Y183232D01*
X213241Y183238D01*
X213211Y183220D01*
X213201Y183210D01*
X213195Y183198D01*
X213173Y183176D01*
X213161Y183170D01*
X213145Y183155D01*
X213139Y183130D01*
X213142Y183059D01*
X213139Y176545D01*
X213145Y176527D01*
X213139Y176483D01*
X213124Y176468D01*
X213099Y176462D01*
X212802Y176468D01*
X212793Y176477D01*
X212774Y176508D01*
X212759Y176523D01*
X212644Y176520D01*
X212623Y176530D01*
X212613Y176539D01*
X212595Y176570D01*
X212585Y176579D01*
X212561Y176585D01*
X212536Y176579D01*
X212505Y176585D01*
X212496Y176595D01*
X212477Y176626D01*
X212462Y176641D01*
X212449Y176647D01*
X212428Y176669D01*
X212421Y176681D01*
X212412Y176697D01*
X212387Y176703D01*
X212347Y176700D01*
X212326Y176709D01*
X212310Y176725D01*
X212304Y176737D01*
X212295Y176752D01*
X212282Y176759D01*
X212254Y176780D01*
X212248Y176793D01*
X212214Y176827D01*
X212202Y176833D01*
X212192Y176842D01*
X212186Y176855D01*
X212158Y176882D01*
X212146Y176889D01*
X212137Y176898D01*
X212131Y176910D01*
X212097Y176944D01*
X212084Y176951D01*
X212075Y176960D01*
X212069Y176972D01*
X212041Y177000D01*
X212028Y177006D01*
X212019Y177015D01*
X212013Y177028D01*
X211979Y177062D01*
X211967Y177068D01*
X211957Y177077D01*
X211951Y177090D01*
X211917Y177124D01*
X211905Y177130D01*
X211895Y177139D01*
X211889Y177152D01*
X211861Y177180D01*
X211849Y177186D01*
X211840Y177195D01*
X211834Y177207D01*
X211800Y177241D01*
X211787Y177248D01*
X211778Y177257D01*
X211772Y177269D01*
X211744Y177297D01*
X211731Y177303D01*
X211722Y177313D01*
X211716Y177325D01*
X211703Y177337D01*
X211700Y177347D01*
X211688Y177353D01*
X211654Y177381D01*
X211648Y177455D01*
X211632Y177470D01*
X211620Y177477D01*
X211592Y177504D01*
X211586Y177517D01*
X211577Y177526D01*
X211564Y177532D01*
X211536Y177560D01*
X211530Y177573D01*
X211515Y177588D01*
X211502Y177594D01*
X211481Y177616D01*
X211474Y177628D01*
X211453Y177650D01*
X211440Y177656D01*
X211419Y177678D01*
X211413Y177690D01*
X211391Y177712D01*
X211379Y177718D01*
X211357Y177740D01*
X211351Y177752D01*
X211335Y177767D01*
X211323Y177774D01*
X211301Y177795D01*
X211295Y177808D01*
X211273Y177829D01*
X211261Y177836D01*
X211246Y177845D01*
X211239Y177869D01*
X211233Y177931D01*
X211196Y177956D01*
X211184Y177969D01*
X211177Y177981D01*
X211143Y178015D01*
X211131Y178021D01*
X211106Y178058D01*
X211094Y178065D01*
X211082Y178077D01*
X211072Y178080D01*
X211066Y178092D01*
X211044Y178120D01*
X211032Y178126D01*
X211004Y178148D01*
X210998Y178179D01*
X211004Y178198D01*
X210998Y178228D01*
X210961Y178253D01*
X210942Y178272D01*
X210936Y178284D01*
X210914Y178306D01*
X210902Y178312D01*
X210887Y178328D01*
X210880Y178340D01*
X210859Y178362D01*
X210846Y178368D01*
X210825Y178389D01*
X210819Y178402D01*
X210797Y178423D01*
X210785Y178430D01*
X210769Y178445D01*
X210763Y178457D01*
X210735Y178485D01*
X210723Y178491D01*
X210707Y178507D01*
X210701Y178519D01*
X210673Y178547D01*
X210661Y178553D01*
X210645Y178569D01*
X210639Y178581D01*
X210617Y178603D01*
X210605Y178609D01*
X210590Y178625D01*
X210583Y178637D01*
X210556Y178665D01*
X210543Y178671D01*
X210528Y178686D01*
X210522Y178761D01*
X210506Y178776D01*
X210494Y178782D01*
X210478Y178792D01*
X210472Y178804D01*
X210460Y178816D01*
X210453Y178829D01*
X210432Y178844D01*
X210404Y178872D01*
X210398Y178884D01*
X210388Y178894D01*
X210376Y178900D01*
X210348Y178928D01*
X210342Y178940D01*
X210327Y178956D01*
X210314Y178962D01*
X210286Y178990D01*
X210280Y179002D01*
X210265Y179018D01*
X210252Y179024D01*
X210224Y179052D01*
X210218Y179064D01*
X210209Y179073D01*
X210197Y179079D01*
X210169Y179107D01*
X210162Y179120D01*
X210147Y179135D01*
X210116Y179154D01*
X210107Y179188D01*
X210113Y179206D01*
X210107Y179237D01*
X210098Y179246D01*
X210085Y179253D01*
X210051Y179281D01*
X210045Y179293D01*
X210023Y179315D01*
X210011Y179321D01*
X209995Y179336D01*
X209989Y179349D01*
X209961Y179376D01*
X209949Y179383D01*
X209940Y179392D01*
X209934Y179404D01*
X209899Y179438D01*
X209887Y179445D01*
X209878Y179454D01*
X209872Y179466D01*
X209838Y179500D01*
X209825Y179507D01*
X209816Y179516D01*
X209810Y179528D01*
X209801Y179544D01*
X209788Y179550D01*
X209754Y179578D01*
X209748Y179658D01*
X209739Y179667D01*
X209701Y179674D01*
X209683Y179667D01*
X209658Y179674D01*
X209636Y179695D01*
X209621Y179723D01*
X209609Y179729D01*
X209575Y179757D01*
X209568Y179838D01*
X209519Y179868D01*
X209513Y179906D01*
X209519Y179924D01*
X209513Y179949D01*
X209497Y179964D01*
X209472Y179971D01*
X209438Y179967D01*
X209414Y179974D01*
X209401Y179986D01*
X209395Y180011D01*
X209401Y180048D01*
X209383Y180079D01*
X209349Y180101D01*
X209333Y180122D01*
X209305Y180150D01*
X209293Y180156D01*
X209284Y180166D01*
X209278Y180178D01*
X209243Y180212D01*
X209231Y180218D01*
X209206Y180255D01*
X209194Y180262D01*
X209182Y180274D01*
X209169Y180280D01*
X209154Y180302D01*
X209126Y180330D01*
X209114Y180336D01*
X209098Y180357D01*
X209089Y180373D01*
X209076Y180379D01*
X209064Y180392D01*
X209052Y180398D01*
X209027Y180435D01*
X208987Y180463D01*
X208980Y180487D01*
X208974Y180549D01*
X208965Y180559D01*
X208922Y180565D01*
X208903Y180559D01*
X208885Y180565D01*
X208872Y180571D01*
X208863Y180599D01*
X208857Y180667D01*
X208820Y180692D01*
X208807Y180704D01*
X208801Y180716D01*
X208773Y180744D01*
X208761Y180750D01*
X208745Y180766D01*
X208739Y180778D01*
X208717Y180800D01*
X208705Y180806D01*
X208683Y180828D01*
X208677Y180902D01*
X208668Y180911D01*
X208656Y180918D01*
X208634Y180933D01*
X208628Y180945D01*
X208606Y180973D01*
X208581Y180979D01*
X208519Y180986D01*
X208510Y180995D01*
X208504Y181038D01*
X208510Y181057D01*
X208495Y181091D01*
X208470Y181097D01*
X208402Y181103D01*
X208393Y181112D01*
X208386Y181137D01*
X208380Y181199D01*
X208371Y181208D01*
X208359Y181215D01*
X208337Y181230D01*
X208331Y181242D01*
X208309Y181270D01*
X208297Y181276D01*
X208269Y181304D01*
X208263Y181317D01*
X208247Y181332D01*
X208235Y181338D01*
X208207Y181366D01*
X208201Y181378D01*
X208185Y181394D01*
X208154Y181413D01*
X208148Y181487D01*
X208136Y181505D01*
X208105Y181524D01*
X208096Y181533D01*
X208089Y181546D01*
X208062Y181573D01*
X208049Y181580D01*
X208034Y181595D01*
X208027Y181607D01*
X208000Y181635D01*
X207987Y181642D01*
X207978Y181651D01*
X207972Y181663D01*
X207938Y181697D01*
X207925Y181703D01*
X207916Y181713D01*
X207910Y181725D01*
X207882Y181753D01*
X207870Y181759D01*
X207860Y181768D01*
X207854Y181781D01*
X207820Y181815D01*
X207808Y181821D01*
X207792Y181836D01*
X207786Y181917D01*
X207777Y181926D01*
X207690Y181932D01*
X207681Y181942D01*
X207675Y181966D01*
X207668Y182028D01*
X207653Y182044D01*
X207641Y182050D01*
X207613Y182078D01*
X207607Y182090D01*
X207597Y182099D01*
X207585Y182106D01*
X207551Y182140D01*
X207545Y182152D01*
X207535Y182161D01*
X207523Y182168D01*
X207495Y182195D01*
X207489Y182208D01*
X207473Y182223D01*
X207461Y182229D01*
X207433Y182257D01*
X207427Y182270D01*
X207412Y182285D01*
X207399Y182291D01*
X207371Y182319D01*
X207365Y182332D01*
X207356Y182341D01*
X207344Y182347D01*
X207316Y182375D01*
X207310Y182387D01*
X207294Y182403D01*
X207282Y182409D01*
X207260Y182431D01*
X207254Y182443D01*
X207232Y182465D01*
X207158Y182471D01*
X207142Y182486D01*
X207136Y182499D01*
X207127Y182514D01*
X207115Y182520D01*
X207087Y182542D01*
X207081Y182554D01*
X207053Y182582D01*
X207040Y182588D01*
X207025Y182604D01*
X207019Y182616D01*
X207003Y182638D01*
X206966Y182644D01*
X206947Y182638D01*
X206923Y182644D01*
X206907Y182660D01*
X206889Y182691D01*
X206879Y182700D01*
X206867Y182706D01*
X206852Y182715D01*
X206845Y182728D01*
X206824Y182755D01*
X206799Y182762D01*
X206737Y182768D01*
X206715Y182802D01*
X206694Y182824D01*
X206681Y182830D01*
X206666Y182845D01*
X206660Y182858D01*
X206650Y182873D01*
X206626Y182879D01*
X206564Y182886D01*
X206548Y182901D01*
X206530Y182932D01*
X206502Y182941D01*
X206465Y182935D01*
X206434Y182954D01*
X206412Y182988D01*
X206403Y182997D01*
X206360Y183003D01*
X206335Y182997D01*
X206267Y183003D01*
X206258Y183012D01*
X206251Y183025D01*
X206223Y183059D01*
X206109Y183056D01*
X206087Y183065D01*
X206078Y183074D01*
X206072Y183087D01*
X206050Y183115D01*
X206025Y183121D01*
X205926Y183115D01*
X205852Y183121D01*
X205837Y183136D01*
X205818Y183167D01*
X205790Y183176D01*
X205403Y183173D01*
X205379Y183179D01*
X205360Y183198D01*
X205342Y183229D01*
X205314Y183238D01*
X205230Y183235D01*
X202820Y183238D01*
X202801Y183232D01*
X202739Y183238D01*
X202702Y183232D01*
X202693Y183223D01*
X202680Y183179D01*
X202687Y183155D01*
X202680Y178977D01*
X202665Y178962D01*
X202640Y178956D01*
X202569Y178959D01*
X201792Y178956D01*
X201780Y178962D01*
X201761Y178956D01*
X201693Y178962D01*
X201672Y178983D01*
X201675Y180583D01*
X201665Y180605D01*
X201656Y180614D01*
X201644Y180620D01*
X201616Y180648D01*
X201610Y180661D01*
X201588Y180682D01*
X201576Y180689D01*
X201554Y180710D01*
X201548Y180723D01*
X201532Y180738D01*
X201508Y180744D01*
X201455Y180741D01*
X201415Y180744D01*
X201387Y180729D01*
X201362Y180685D01*
X201275Y180679D01*
X201263Y180667D01*
X201269Y180636D01*
X201303Y180614D01*
X201319Y180599D01*
X201313Y180574D01*
X201297Y180559D01*
X201279Y180552D01*
X201263Y180543D01*
X201257Y180518D01*
X201263Y180419D01*
X201260Y179117D01*
X201266Y179086D01*
X201269Y179045D01*
X201248Y179018D01*
X201210Y179024D01*
X201201Y179033D01*
X201183Y179064D01*
X201155Y179092D01*
X201146Y179095D01*
X201139Y179107D01*
X201112Y179135D01*
X201071Y179138D01*
X200988Y179135D01*
X200960Y179163D01*
X200944Y179191D01*
X200920Y179197D01*
X200858Y179203D01*
X200849Y179212D01*
X200830Y179243D01*
X200821Y179253D01*
X200796Y179259D01*
X200777Y179253D01*
X200740Y179259D01*
X200731Y179268D01*
X200706Y179312D01*
X200620Y179318D01*
X200610Y179327D01*
X200601Y179330D01*
X200595Y179342D01*
X200573Y179364D01*
X200530Y179370D01*
X200490Y179386D01*
X200440Y179435D01*
X200415Y179479D01*
X200400Y179494D01*
X200285Y179491D01*
X200264Y179500D01*
X200254Y179510D01*
X200236Y179541D01*
X200226Y179550D01*
X200202Y179556D01*
X200183Y179550D01*
X200146Y179556D01*
X200137Y179565D01*
X200112Y179609D01*
X200032Y179615D01*
X200013Y179633D01*
X199995Y179664D01*
X199985Y179674D01*
X199926Y179671D01*
X199905Y179680D01*
X199874Y179729D01*
X199793Y179735D01*
X199778Y179751D01*
X199759Y179782D01*
X199750Y179791D01*
X199670Y179797D01*
X199660Y179807D01*
X199642Y179838D01*
X199632Y179847D01*
X199608Y179853D01*
X199589Y179847D01*
X199552Y179853D01*
X199543Y179862D01*
X199518Y179906D01*
X199437Y179912D01*
X199419Y179930D01*
X199400Y179961D01*
X199391Y179971D01*
X199332Y179967D01*
X199311Y179977D01*
X199286Y180014D01*
X199274Y180026D01*
X199261Y180033D01*
X199239Y180054D01*
X199233Y180067D01*
X199212Y180088D01*
X199131Y180094D01*
X199100Y180144D01*
X199020Y180150D01*
X199004Y180166D01*
X198989Y180200D01*
X198964Y180206D01*
X198896Y180212D01*
X198865Y180262D01*
X198840Y180268D01*
X198800Y180265D01*
X198778Y180274D01*
X198769Y180283D01*
X198750Y180314D01*
X198741Y180323D01*
X198661Y180330D01*
X198652Y180339D01*
X198633Y180370D01*
X198617Y180385D01*
X198543Y180392D01*
X198528Y180407D01*
X198509Y180438D01*
X198484Y180444D01*
X198475Y180447D01*
X198457Y180441D01*
X198419Y180447D01*
X198376Y180491D01*
X198351Y180497D01*
X198314Y180503D01*
X198286Y180531D01*
X198271Y180559D01*
X198246Y180565D01*
X198206Y180562D01*
X198184Y180571D01*
X198175Y180580D01*
X198169Y180593D01*
X198160Y180608D01*
X198147Y180614D01*
X198135Y180627D01*
X198122Y180633D01*
X198113Y180642D01*
X198094Y180673D01*
X198067Y180682D01*
X197965Y180679D01*
X197946Y180692D01*
X197921Y180735D01*
X197887Y180738D01*
X197872Y180723D01*
X197850Y180682D01*
X197822Y180679D01*
X197782Y180682D01*
X197760Y180667D01*
X197754Y180642D01*
X197748Y178971D01*
X197739Y178962D01*
X197714Y178956D01*
X197637Y178959D01*
X196687Y178956D01*
X196668Y178962D01*
X196650Y178956D01*
X196581Y178962D01*
X196572Y178971D01*
X196566Y178996D01*
X196560Y179652D01*
X196544Y179667D01*
X196519Y179674D01*
X190764Y179667D01*
X190749Y179652D01*
X190742Y179627D01*
X190749Y178086D01*
X190764Y178071D01*
X190789Y178065D01*
X190882Y178071D01*
X190900Y178065D01*
X196349Y178068D01*
X196414Y178065D01*
X196433Y178071D01*
X196532Y178065D01*
X196566Y178092D01*
X196572Y178587D01*
X196588Y178603D01*
X197739Y178597D01*
X197754Y178581D01*
X197760Y176892D01*
X197794Y176876D01*
X197906Y176882D01*
X197924Y176876D01*
X197968Y176882D01*
X197983Y176892D01*
X198008Y176935D01*
X198088Y176941D01*
X198107Y176960D01*
X198126Y176991D01*
X198135Y177000D01*
X198215Y177006D01*
X198224Y177015D01*
X198243Y177046D01*
X198252Y177056D01*
X198277Y177062D01*
X198302Y177056D01*
X198327Y177062D01*
X198342Y177077D01*
X198348Y177090D01*
Y177096D01*
X198370Y177118D01*
X198450Y177124D01*
X198460Y177133D01*
X198478Y177164D01*
X198487Y177173D01*
X198512Y177180D01*
X198549Y177173D01*
X198577Y177189D01*
X198602Y177232D01*
X198682Y177238D01*
X198701Y177257D01*
X198720Y177288D01*
X198729Y177297D01*
X198809Y177303D01*
X198819Y177313D01*
X198834Y177347D01*
X198865Y177359D01*
X198890Y177353D01*
X198921Y177359D01*
X198942Y177381D01*
X198958Y177409D01*
X198983Y177415D01*
X199001Y177421D01*
X199020Y177415D01*
X199100Y177421D01*
X199109Y177430D01*
X199116Y177443D01*
X199150Y177477D01*
X199162Y177483D01*
X199178Y177498D01*
X199184Y177511D01*
X199193Y177526D01*
X199218Y177532D01*
X199280Y177538D01*
X199295Y177554D01*
X199314Y177585D01*
X199323Y177594D01*
X199397Y177600D01*
X199413Y177616D01*
X199419Y177628D01*
X199441Y177650D01*
X199453Y177656D01*
X199481Y177684D01*
X199487Y177696D01*
X199502Y177712D01*
X199577Y177718D01*
X199592Y177733D01*
X199611Y177764D01*
X199639Y177774D01*
X199679Y177770D01*
X199700Y177780D01*
X199710Y177789D01*
X199728Y177820D01*
X199738Y177829D01*
X199818Y177836D01*
X199827Y177845D01*
X199849Y177885D01*
X199874Y177891D01*
X199963Y177888D01*
X199988Y177894D01*
X200007Y177913D01*
X200025Y177944D01*
X200059Y177953D01*
X200084Y177947D01*
X200115Y177959D01*
X200140Y177996D01*
X200183Y178027D01*
X200208Y178065D01*
X200233Y178071D01*
X200273Y178068D01*
X200295Y178077D01*
X200304Y178086D01*
X200323Y178117D01*
X200332Y178126D01*
X200375Y178133D01*
X200400Y178126D01*
X200468Y178133D01*
X200483Y178148D01*
X200502Y178179D01*
X200511Y178188D01*
X200586Y178194D01*
X200601Y178210D01*
X200607Y178222D01*
X200629Y178244D01*
X200641Y178250D01*
X200669Y178278D01*
X200675Y178290D01*
X200691Y178306D01*
X200731Y178309D01*
X200815Y178306D01*
X200842Y178334D01*
X200849Y178346D01*
X200864Y178362D01*
X200876Y178368D01*
X200904Y178396D01*
X200910Y178408D01*
X200926Y178423D01*
X201000Y178430D01*
X201022Y178451D01*
X201037Y178479D01*
X201062Y178485D01*
X201124Y178491D01*
X201139Y178507D01*
X201158Y178538D01*
X201192Y178547D01*
X201235Y178541D01*
X201251Y178550D01*
X201266Y178591D01*
X201279Y178603D01*
X201310Y178597D01*
X201319Y178587D01*
X201313Y178550D01*
X201279Y178535D01*
X201266Y178529D01*
X201260Y176889D01*
X201257Y176861D01*
X201279Y176827D01*
X201310Y176808D01*
X201334Y176771D01*
X201365Y176759D01*
X201594Y176765D01*
X201616Y176786D01*
X201613Y176901D01*
X201622Y176923D01*
X201672Y176954D01*
X201665Y176985D01*
X201622Y177009D01*
X201616Y177034D01*
X201625Y177056D01*
X201669Y177081D01*
X201678Y177108D01*
X201672Y177170D01*
X201675Y178510D01*
X201650Y178535D01*
X201622Y178550D01*
X201616Y178575D01*
X201622Y178594D01*
X201631Y178603D01*
X201656Y178609D01*
X201737Y178603D01*
X202671Y178597D01*
X202680Y178587D01*
X202687Y178563D01*
X202683Y174246D01*
X202696Y174215D01*
X202727Y174203D01*
X202844Y174209D01*
X204908Y174206D01*
X204930Y174215D01*
X204939Y174224D01*
X204945Y174268D01*
X204939Y174348D01*
X204942Y180887D01*
X204939Y180945D01*
X204955Y180973D01*
X204979Y180979D01*
X205221Y180973D01*
X205236Y180958D01*
X205255Y180927D01*
X205283Y180918D01*
X205385Y180921D01*
X205406Y180905D01*
X205416Y180896D01*
X205434Y180865D01*
X205515Y180859D01*
X205533Y180840D01*
X205552Y180809D01*
X205561Y180800D01*
X205642Y180794D01*
X205666Y180757D01*
X205679Y180744D01*
X205691Y180738D01*
X205719Y180710D01*
X205725Y180698D01*
X205741Y180682D01*
X205815Y180676D01*
X205830Y180661D01*
X205837Y180648D01*
X205846Y180633D01*
X205858Y180627D01*
X205892Y180599D01*
X205898Y180586D01*
X205926Y180559D01*
X205939Y180552D01*
X205948Y180543D01*
X205954Y180531D01*
X205988Y180497D01*
X206001Y180491D01*
X206010Y180481D01*
X206016Y180469D01*
X206044Y180441D01*
X206056Y180435D01*
X206066Y180426D01*
X206072Y180413D01*
X206106Y180379D01*
X206118Y180373D01*
X206128Y180364D01*
X206134Y180351D01*
X206161Y180323D01*
X206174Y180317D01*
X206189Y180302D01*
X206196Y180289D01*
X206223Y180262D01*
X206236Y180255D01*
X206245Y180246D01*
X206251Y180234D01*
X206285Y180200D01*
X206298Y180193D01*
X206307Y180184D01*
X206313Y180172D01*
X206341Y180144D01*
X206353Y180138D01*
X206363Y180128D01*
X206369Y180116D01*
X206403Y180082D01*
X206415Y180076D01*
X206424Y180067D01*
X206431Y180054D01*
X206440Y180039D01*
X206452Y180033D01*
X206486Y180005D01*
X206493Y179930D01*
X206514Y179909D01*
X206527Y179903D01*
X206548Y179881D01*
X206555Y179868D01*
X206570Y179853D01*
X206582Y179847D01*
X206610Y179819D01*
X206616Y179807D01*
X206632Y179791D01*
X206660Y179776D01*
X206666Y179751D01*
X206672Y179689D01*
X206688Y179674D01*
X206718Y179655D01*
X206743Y179618D01*
X206756Y179612D01*
X206777Y179596D01*
X206784Y179584D01*
X206796Y179571D01*
X206799Y179562D01*
X206811Y179556D01*
X206824Y179544D01*
X206836Y179537D01*
X206861Y179500D01*
X206873Y179494D01*
X206886Y179482D01*
X206895Y179479D01*
X206901Y179466D01*
X206913Y179454D01*
X206917Y179445D01*
X206929Y179438D01*
X206941Y179426D01*
X206951Y179423D01*
X206957Y179411D01*
X206969Y179398D01*
X206975Y179386D01*
X206997Y179370D01*
X207013Y179361D01*
X207019Y179349D01*
X207031Y179336D01*
X207037Y179324D01*
X207074Y179299D01*
X207081Y179281D01*
X207087Y179219D01*
X207108Y179197D01*
X207121Y179191D01*
X207142Y179169D01*
X207149Y179157D01*
X207170Y179135D01*
X207183Y179129D01*
X207198Y179113D01*
X207204Y179101D01*
X207232Y179073D01*
X207244Y179067D01*
X207260Y179052D01*
X207266Y179039D01*
X207288Y179018D01*
X207300Y179011D01*
X207322Y178990D01*
X207328Y178915D01*
X207337Y178906D01*
X207350Y178900D01*
X207378Y178878D01*
X207396Y178847D01*
X207424Y178838D01*
X207486Y178832D01*
X207495Y178823D01*
X207501Y178742D01*
X207517Y178727D01*
X207529Y178720D01*
X207563Y178686D01*
X207570Y178674D01*
X207579Y178665D01*
X207591Y178659D01*
X207619Y178631D01*
X207625Y178618D01*
X207634Y178609D01*
X207647Y178603D01*
X207681Y178569D01*
X207687Y178557D01*
X207696Y178547D01*
X207709Y178541D01*
X207737Y178513D01*
X207743Y178501D01*
X207758Y178485D01*
X207771Y178479D01*
X207798Y178451D01*
X207805Y178439D01*
X207814Y178430D01*
X207826Y178423D01*
X207854Y178402D01*
X207860Y178321D01*
X207870Y178312D01*
X207882Y178306D01*
X207910Y178284D01*
X207916Y178272D01*
X207944Y178244D01*
X207956Y178238D01*
X207972Y178222D01*
X207978Y178210D01*
X208006Y178182D01*
X208018Y178176D01*
X208027Y178167D01*
X208034Y178154D01*
X208068Y178120D01*
X208080Y178114D01*
X208089Y178105D01*
X208096Y178092D01*
X208105Y178077D01*
X208117Y178071D01*
X208151Y178043D01*
X208157Y177962D01*
X208194Y177938D01*
X208213Y177919D01*
X208219Y177907D01*
X208235Y177891D01*
X208247Y177885D01*
X208269Y177863D01*
X208275Y177851D01*
X208297Y177829D01*
X208309Y177823D01*
X208331Y177802D01*
X208337Y177789D01*
X208352Y177774D01*
X208365Y177767D01*
X208393Y177740D01*
X208399Y177727D01*
X208414Y177712D01*
X208427Y177706D01*
X208448Y177684D01*
X208454Y177672D01*
X208470Y177656D01*
X208482Y177650D01*
X208504Y177634D01*
X208510Y177610D01*
X208504Y177566D01*
X208526Y177538D01*
X208538Y177532D01*
X208560Y177517D01*
X208566Y177504D01*
X208581Y177483D01*
X208594Y177477D01*
X208606Y177464D01*
X208618Y177458D01*
X208634Y177436D01*
X208643Y177421D01*
X208656Y177415D01*
X208677Y177399D01*
X208683Y177387D01*
X208696Y177374D01*
X208699Y177365D01*
X208711Y177359D01*
X208724Y177347D01*
X208736Y177340D01*
X208761Y177303D01*
X208773Y177297D01*
X208801Y177275D01*
X208807Y177251D01*
X208804Y177210D01*
X208813Y177189D01*
X208851Y177164D01*
X208863Y177152D01*
X208869Y177139D01*
X208891Y177118D01*
X208903Y177111D01*
X208925Y177090D01*
X208931Y177077D01*
X208953Y177056D01*
X208965Y177050D01*
X208980Y177034D01*
X208987Y177022D01*
X209008Y177000D01*
X209021Y176994D01*
X209042Y176972D01*
X209049Y176960D01*
X209070Y176938D01*
X209083Y176932D01*
X209098Y176917D01*
X209104Y176904D01*
X209132Y176876D01*
X209154Y176867D01*
X209160Y176842D01*
X209166Y176780D01*
X209182Y176765D01*
X209194Y176759D01*
X209216Y176743D01*
X209234Y176712D01*
X209243Y176703D01*
X209324Y176697D01*
X209339Y176681D01*
X209346Y176601D01*
X209361Y176585D01*
X209373Y176579D01*
X209389Y176570D01*
X209395Y176558D01*
X209417Y176530D01*
X209429Y176523D01*
X209463Y176489D01*
X209469Y176477D01*
X209479Y176468D01*
X209491Y176462D01*
X209519Y176434D01*
X209525Y176421D01*
X209541Y176406D01*
X209572Y176387D01*
X209581Y176353D01*
X209587Y176316D01*
X209609Y176295D01*
X209618Y176291D01*
X209624Y176279D01*
X209655Y176236D01*
X209664Y176226D01*
X209677Y176220D01*
X209692Y176205D01*
X209698Y176192D01*
X209726Y176165D01*
X209739Y176158D01*
X209754Y176143D01*
X209760Y176130D01*
X209788Y176103D01*
X209801Y176096D01*
X209816Y176081D01*
X209822Y176000D01*
X209831Y175991D01*
X209853Y175988D01*
X209899Y175991D01*
X209934Y175963D01*
X209949Y175936D01*
X209980Y175917D01*
X209995Y175901D01*
X209992Y175843D01*
X210017Y175812D01*
X210030Y175806D01*
X210051Y175784D01*
X210057Y175772D01*
X210079Y175750D01*
X210091Y175744D01*
X210113Y175722D01*
X210119Y175710D01*
X210135Y175694D01*
X210147Y175688D01*
X210169Y175672D01*
X210175Y175629D01*
X210169Y175611D01*
X210187Y175580D01*
X210215Y175570D01*
X210240Y175577D01*
X210274Y175567D01*
X210314Y175515D01*
X210327Y175508D01*
X210348Y175493D01*
X210354Y175413D01*
X210370Y175397D01*
X210401Y175379D01*
X210426Y175341D01*
X210438Y175335D01*
X210460Y175320D01*
X210466Y175307D01*
X210478Y175295D01*
X210481Y175286D01*
X210494Y175280D01*
X210506Y175267D01*
X210518Y175261D01*
X210537Y175230D01*
X210549Y175224D01*
X210562Y175212D01*
X210574Y175205D01*
X210590Y175184D01*
X210599Y175168D01*
X210611Y175162D01*
X210624Y175150D01*
X210636Y175143D01*
X210651Y175122D01*
X210661Y175106D01*
X210673Y175100D01*
X210685Y175088D01*
X210698Y175082D01*
X210716Y175051D01*
X210729Y175044D01*
X210741Y175032D01*
X210754Y175026D01*
X210769Y175004D01*
X210778Y174989D01*
X210791Y174983D01*
X210803Y174970D01*
X210816Y174964D01*
X210840Y174927D01*
X210859Y174921D01*
X210927Y174914D01*
X210936Y174905D01*
X210955Y174874D01*
X210970Y174859D01*
X210982Y174853D01*
X211004Y174831D01*
X211010Y174819D01*
X211026Y174803D01*
X211038Y174797D01*
X211066Y174769D01*
X211072Y174757D01*
X211088Y174741D01*
X211100Y174735D01*
X211128Y174707D01*
X211134Y174695D01*
X211143Y174685D01*
X211168Y174679D01*
X211205Y174685D01*
X211239Y174658D01*
X211258Y174627D01*
X211332Y174620D01*
X211354Y174605D01*
X211375Y174571D01*
X211385Y174562D01*
X211465Y174556D01*
X211490Y174512D01*
X211521Y174500D01*
X211626Y174506D01*
X211648Y174490D01*
X211654Y174478D01*
X211669Y174450D01*
X211694Y174444D01*
X211756Y174438D01*
X211772Y174422D01*
X211778Y174410D01*
X211793Y174388D01*
X211818Y174382D01*
X211917Y174388D01*
X211951Y174361D01*
X211957Y174348D01*
X211967Y174333D01*
X211998Y174320D01*
X212078Y174327D01*
X212233Y174320D01*
X212248Y174305D01*
X212267Y174274D01*
X212276Y174265D01*
X212687Y174268D01*
X212709Y174258D01*
X212725Y174243D01*
X212743Y174212D01*
X212771Y174203D01*
X212889Y174209D01*
X215367Y174206D01*
X215392Y174218D01*
X215398Y174243D01*
X215392Y183223D01*
X215358Y183238D01*
D02*
G37*
G36*
X224028Y186209D02*
X223976Y186206D01*
X223929Y186209D01*
X223895Y186181D01*
X223898Y186079D01*
X223892Y186048D01*
X223880Y186036D01*
X223868Y186029D01*
X223833Y186002D01*
X223836Y185881D01*
X223812Y185850D01*
X223781Y185831D01*
X223772Y185797D01*
X223778Y185717D01*
X223772Y185692D01*
X223750Y185670D01*
X223719Y185652D01*
X223713Y185571D01*
X223700Y185559D01*
X223670Y185540D01*
X223660Y185531D01*
X223654Y185506D01*
X223657Y185448D01*
X223654Y185414D01*
X223673Y185383D01*
X223700Y185373D01*
X223734Y185377D01*
X223759Y185370D01*
X223772Y185358D01*
X223790Y185327D01*
X223799Y185318D01*
X223824Y185311D01*
X223923Y185318D01*
X223951Y185296D01*
X223970Y185265D01*
X223979Y185256D01*
X224059Y185250D01*
X224069Y185240D01*
X224090Y185200D01*
X224115Y185194D01*
X224220Y185200D01*
X224248Y185178D01*
X224267Y185148D01*
X224276Y185138D01*
X224319Y185132D01*
X224344Y185138D01*
X224412Y185132D01*
X224421Y185123D01*
X224428Y185110D01*
X224449Y185082D01*
X224462Y185076D01*
X224465Y185073D01*
X224468Y185070D01*
X224496Y185042D01*
X224502Y185030D01*
X224511Y185021D01*
X224542Y185002D01*
X224551Y184993D01*
X224557Y184980D01*
X224579Y184959D01*
X224681Y184962D01*
X224706Y184956D01*
X224725Y184937D01*
X224743Y184906D01*
X224771Y184897D01*
X224814Y184903D01*
X224842Y184881D01*
X224861Y184850D01*
X224870Y184841D01*
X224882Y184835D01*
X224904Y184819D01*
X224910Y184807D01*
X224926Y184785D01*
X224963Y184779D01*
X224981Y184785D01*
X225012Y184767D01*
X225022Y184758D01*
X225028Y184745D01*
X225056Y184717D01*
X225068Y184711D01*
X225084Y184696D01*
X225102Y184665D01*
X225183Y184659D01*
X225195Y184646D01*
X225214Y184615D01*
X225223Y184606D01*
X225248Y184600D01*
X225285Y184606D01*
X225313Y184590D01*
X225331Y184560D01*
X225347Y184544D01*
X225359Y184538D01*
X225381Y184516D01*
X225387Y184504D01*
X225409Y184482D01*
X225421Y184476D01*
X225498Y184399D01*
X225504Y184386D01*
X225526Y184365D01*
X225538Y184358D01*
X225560Y184337D01*
X225576Y184309D01*
X225600Y184303D01*
X225644Y184309D01*
X225672Y184287D01*
X225678Y184275D01*
X225693Y184253D01*
X225706Y184247D01*
X225733Y184225D01*
X225740Y184213D01*
X225749Y184197D01*
X225761Y184191D01*
X225774Y184179D01*
X225786Y184173D01*
X225801Y184151D01*
X225811Y184136D01*
X225823Y184129D01*
X225851Y184108D01*
X225857Y184095D01*
X225891Y184061D01*
X225904Y184055D01*
X225919Y184034D01*
X225928Y184018D01*
X225941Y184012D01*
X225953Y184000D01*
X225965Y183993D01*
X225990Y183956D01*
X226003Y183950D01*
X226030Y183928D01*
X226037Y183904D01*
X226043Y183848D01*
X226052Y183839D01*
X226064Y183832D01*
X226092Y183805D01*
X226098Y183792D01*
X226120Y183771D01*
X226133Y183764D01*
X226148Y183755D01*
X226154Y183730D01*
X226160Y183668D01*
X226170Y183659D01*
X226195Y183653D01*
X226256Y183647D01*
X226272Y183631D01*
X226278Y183551D01*
X226293Y183535D01*
X226321Y183520D01*
X226327Y183508D01*
X226349Y183480D01*
X226361Y183473D01*
X226389Y183452D01*
X226396Y183378D01*
X226411Y183362D01*
X226423Y183356D01*
X226445Y183340D01*
X226451Y183316D01*
X226458Y183254D01*
X226473Y183238D01*
X226553Y183232D01*
X226563Y183223D01*
X226569Y183198D01*
X226575Y183136D01*
X226590Y183121D01*
X226622Y183102D01*
X226631Y183074D01*
X226625Y183031D01*
X226646Y183003D01*
X226677Y182984D01*
X226687Y182975D01*
X226693Y182895D01*
X226702Y182886D01*
X226742Y182864D01*
X226748Y182839D01*
X226745Y182749D01*
X226751Y182725D01*
X226770Y182706D01*
X226798Y182691D01*
X226810Y182660D01*
X226804Y182554D01*
X226826Y182527D01*
X226857Y182508D01*
X226866Y182499D01*
X226872Y182369D01*
X226894Y182347D01*
X226906Y182341D01*
X226922Y182325D01*
X226928Y182301D01*
X226922Y182264D01*
X226940Y182233D01*
X226974Y182211D01*
X226983Y182202D01*
X226990Y182165D01*
X226983Y182146D01*
X226990Y181954D01*
X226999Y181939D01*
X227030Y181920D01*
X227039Y181911D01*
X227045Y181886D01*
X227042Y181666D01*
X227055Y181642D01*
X227067Y181635D01*
X227095Y181620D01*
X227107Y181589D01*
X227101Y181490D01*
X227107Y181001D01*
X227117Y180986D01*
X227141Y180979D01*
X228039Y180986D01*
X228048Y180995D01*
X228054Y181020D01*
X228048Y181552D01*
X228026Y181573D01*
X228014Y181580D01*
X227992Y181601D01*
X227986Y181645D01*
X228005Y181676D01*
X228014Y181685D01*
X228045Y181703D01*
X228048Y181737D01*
X228039Y181747D01*
X227998Y181768D01*
X227992Y181793D01*
X227995Y182007D01*
X227986Y182028D01*
X227971Y182044D01*
X227958Y182050D01*
X227943Y182059D01*
X227930Y182090D01*
X227937Y182208D01*
X227930Y182251D01*
X227937Y182276D01*
X227930Y182319D01*
X227909Y182341D01*
X227896Y182347D01*
X227875Y182369D01*
X227872Y182409D01*
X227878Y182458D01*
X227881Y182468D01*
X227869Y182505D01*
X227853Y182520D01*
X227822Y182539D01*
X227813Y182567D01*
X227819Y182666D01*
X227791Y182700D01*
X227760Y182718D01*
X227754Y182799D01*
X227735Y182817D01*
X227705Y182836D01*
X227695Y182864D01*
X227698Y182960D01*
X227689Y182981D01*
X227674Y182997D01*
X227643Y183016D01*
X227633Y183043D01*
X227640Y183142D01*
X227618Y183170D01*
X227606Y183176D01*
X227578Y183198D01*
X227571Y183279D01*
X227562Y183288D01*
X227550Y183294D01*
X227522Y183316D01*
X227516Y183328D01*
X227500Y183350D01*
X227469Y183368D01*
X227460Y183378D01*
X227454Y183458D01*
X227445Y183467D01*
X227404Y183489D01*
X227398Y183514D01*
X227392Y183575D01*
X227377Y183591D01*
X227346Y183610D01*
X227336Y183637D01*
X227343Y183656D01*
X227336Y183693D01*
X227321Y183709D01*
X227287Y183724D01*
X227281Y183749D01*
X227274Y183811D01*
X227259Y183826D01*
X227246Y183832D01*
X227219Y183860D01*
X227213Y183873D01*
X227197Y183888D01*
X227166Y183907D01*
X227160Y183981D01*
X227148Y184000D01*
X227135Y184006D01*
X227107Y184027D01*
X227101Y184040D01*
X227086Y184061D01*
X227055Y184080D01*
X227045Y184089D01*
X227039Y184114D01*
X227045Y184139D01*
X227036Y184173D01*
X226968Y184210D01*
X226940Y184238D01*
X226909Y184293D01*
X226900Y184303D01*
X226888Y184309D01*
X226872Y184318D01*
X226866Y184343D01*
X226860Y184405D01*
X226844Y184420D01*
X226813Y184439D01*
X226789Y184476D01*
X226776Y184482D01*
X226733Y184513D01*
X226699Y184547D01*
X226693Y184560D01*
X226671Y184594D01*
X226659Y184600D01*
X226637Y184615D01*
X226631Y184628D01*
X226609Y184655D01*
X226597Y184662D01*
X226563Y184696D01*
X226556Y184708D01*
X226547Y184717D01*
X226535Y184724D01*
X226501Y184758D01*
X226495Y184770D01*
X226473Y184785D01*
X226458Y184795D01*
X226451Y184807D01*
X226423Y184841D01*
X226343Y184847D01*
X226321Y184881D01*
X226306Y184897D01*
X226293Y184903D01*
X226272Y184925D01*
X226266Y184937D01*
X226244Y184959D01*
X226232Y184965D01*
X226216Y184974D01*
X226210Y184999D01*
X226204Y185061D01*
X226195Y185070D01*
X226170Y185076D01*
X226108Y185082D01*
X226083Y185120D01*
X226064Y185138D01*
X226052Y185144D01*
X226037Y185160D01*
X226030Y185172D01*
X226009Y185194D01*
X225996Y185200D01*
X225975Y185222D01*
X225969Y185234D01*
X225947Y185256D01*
X225873Y185262D01*
X225857Y185277D01*
X225842Y185305D01*
X225829Y185311D01*
X225801Y185333D01*
X225795Y185345D01*
X225780Y185367D01*
X225724Y185398D01*
X225706Y185417D01*
X225662Y185429D01*
X225631Y185442D01*
X225622Y185451D01*
X225603Y185482D01*
X225594Y185491D01*
X225520Y185497D01*
X225498Y185519D01*
X225492Y185531D01*
X225470Y185553D01*
X225458Y185559D01*
X225436Y185581D01*
X225430Y185593D01*
X225415Y185608D01*
X225390Y185615D01*
X225297Y185608D01*
X225263Y185636D01*
X225257Y185649D01*
X225235Y185670D01*
X225223Y185677D01*
X225201Y185698D01*
X225195Y185711D01*
X225186Y185726D01*
X225161Y185732D01*
X225099Y185739D01*
X225084Y185754D01*
X225065Y185785D01*
X225037Y185794D01*
X225019Y185788D01*
X224981Y185794D01*
X224972Y185803D01*
X224966Y185816D01*
X224951Y185844D01*
X224926Y185850D01*
X224858Y185856D01*
X224833Y185899D01*
X224802Y185912D01*
X224703Y185906D01*
X224675Y185921D01*
X224654Y185961D01*
X224629Y185968D01*
X224567Y185974D01*
X224551Y185989D01*
X224533Y186020D01*
X224523Y186029D01*
X224443Y186036D01*
X224434Y186045D01*
X224415Y186076D01*
X224406Y186085D01*
X224381Y186091D01*
X224282Y186085D01*
X224254Y186107D01*
X224236Y186138D01*
X224208Y186147D01*
X224112Y186144D01*
X224090Y186153D01*
X224075Y186169D01*
X224056Y186200D01*
X224028Y186209D01*
D02*
G37*
%LPD*%
D10*
X241406Y142142D02*
G03*
X241406Y142142I-492J0D01*
G01*
X81492Y31941D02*
G03*
X81492Y31941I-492J0D01*
G01*
X134492Y164618D02*
G03*
X134492Y164618I-492J0D01*
G01*
X56268Y160504D02*
G03*
X56268Y160504I-492J0D01*
G01*
X256551Y34500D02*
G03*
X256551Y34500I-492J0D01*
G01*
X104634Y47087D02*
G03*
X104634Y47087I-492J0D01*
G01*
D11*
X200327Y149500D02*
G03*
X200327Y149500I-10827J0D01*
G01*
X273598Y148500D02*
G03*
X273598Y148500I-12598J0D01*
G01*
X122827Y97937D02*
G03*
X122827Y97937I-10827J0D01*
G01*
X47327Y150937D02*
G03*
X47327Y150937I-10827J0D01*
G01*
X47390Y124000D02*
G03*
X47390Y124000I-10827J0D01*
G01*
X227827Y112000D02*
G03*
X227827Y112000I-10827J0D01*
G01*
D12*
X268540Y104644D02*
G03*
X268540Y120346I-3014J7851D01*
G01*
X268479Y97875D02*
Y104621D01*
X260500Y97875D02*
X268479D01*
X252731D02*
Y127437D01*
Y97875D02*
X260500D01*
X268479Y120369D02*
Y127437D01*
X260250D02*
X268479D01*
X252731D02*
X260250D01*
X268479Y104621D02*
Y120369D01*
X192063Y104520D02*
X199937D01*
X192063D02*
Y117118D01*
X199937Y104520D02*
Y117118D01*
X192063D02*
X199937D01*
X253500Y115500D02*
X255499D01*
X253500Y125500D02*
X255499D01*
X254500Y126499D02*
Y124500D01*
X252500Y144000D02*
X254499D01*
X252500Y153500D02*
X254499D01*
X253500Y154499D02*
Y152500D01*
X227000Y157000D02*
X228999D01*
X228000Y157999D02*
Y156000D01*
X216500Y143000D02*
X218499D01*
X110499Y57999D02*
X108500D01*
Y55000D01*
X110499D01*
X108500Y56499D02*
X109500D01*
X111499Y55000D02*
X112499D01*
X111999D01*
Y57999D01*
X111499Y57499D01*
X118500Y73000D02*
X120499D01*
X195000Y119000D02*
X196999D01*
X196000Y119999D02*
Y118000D01*
X65834Y139000D02*
X65501Y139333D01*
Y140000D01*
X65834Y140333D01*
X66167D01*
X66500Y140000D01*
Y139666D01*
Y140000D01*
X66834Y140333D01*
X67167D01*
X67500Y140000D01*
Y139333D01*
X67167Y139000D01*
X67500Y140999D02*
X67167D01*
Y141333D01*
X67500D01*
Y140999D01*
X65834Y142666D02*
X65501Y142999D01*
Y143665D01*
X65834Y143998D01*
X66167D01*
X66500Y143665D01*
Y143332D01*
Y143665D01*
X66834Y143998D01*
X67167D01*
X67500Y143665D01*
Y142999D01*
X67167Y142666D01*
X65501Y144665D02*
X66834D01*
X67500Y145331D01*
X66834Y145998D01*
X65501D01*
X87000Y39000D02*
Y40999D01*
X88000D01*
X88333Y40666D01*
Y40000D01*
X88000Y39666D01*
X87000D01*
X87666D02*
X88333Y39000D01*
X89999D02*
Y40999D01*
X88999Y40000D01*
X90332D01*
X87000Y49000D02*
Y50999D01*
X88000D01*
X88333Y50666D01*
Y50000D01*
X88000Y49666D01*
X87000D01*
X87666D02*
X88333Y49000D01*
X88999Y50666D02*
X89333Y50999D01*
X89999D01*
X90332Y50666D01*
Y50333D01*
X89999Y50000D01*
X89666D01*
X89999D01*
X90332Y49666D01*
Y49333D01*
X89999Y49000D01*
X89333D01*
X88999Y49333D01*
X87000Y59000D02*
Y60999D01*
X88000D01*
X88333Y60666D01*
Y60000D01*
X88000Y59666D01*
X87000D01*
X87666D02*
X88333Y59000D01*
X90332D02*
X88999D01*
X90332Y60333D01*
Y60666D01*
X89999Y60999D01*
X89333D01*
X88999Y60666D01*
X87000Y69000D02*
Y70999D01*
X88000D01*
X88333Y70666D01*
Y70000D01*
X88000Y69666D01*
X87000D01*
X87666D02*
X88333Y69000D01*
X88999D02*
X89666D01*
X89333D01*
Y70999D01*
X88999Y70666D01*
X247833Y41166D02*
X247500Y41499D01*
X246833D01*
X246500Y41166D01*
Y40833D01*
X246833Y40500D01*
X247500D01*
X247833Y40166D01*
Y39833D01*
X247500Y39500D01*
X246833D01*
X246500Y39833D01*
X249499Y39500D02*
Y41499D01*
X248499Y40500D01*
X249832D01*
X228333Y41166D02*
X228000Y41499D01*
X227333D01*
X227000Y41166D01*
Y40833D01*
X227333Y40500D01*
X228000D01*
X228333Y40166D01*
Y39833D01*
X228000Y39500D01*
X227333D01*
X227000Y39833D01*
X230332Y39500D02*
X228999D01*
X230332Y40833D01*
Y41166D01*
X229999Y41499D01*
X229333D01*
X228999Y41166D01*
X238333D02*
X238000Y41499D01*
X237333D01*
X237000Y41166D01*
Y40833D01*
X237333Y40500D01*
X238000D01*
X238333Y40166D01*
Y39833D01*
X238000Y39500D01*
X237333D01*
X237000Y39833D01*
X238999Y41166D02*
X239333Y41499D01*
X239999D01*
X240332Y41166D01*
Y40833D01*
X239999Y40500D01*
X239666D01*
X239999D01*
X240332Y40166D01*
Y39833D01*
X239999Y39500D01*
X239333D01*
X238999Y39833D01*
X218333Y41666D02*
X218000Y41999D01*
X217333D01*
X217000Y41666D01*
Y41333D01*
X217333Y41000D01*
X218000D01*
X218333Y40666D01*
Y40333D01*
X218000Y40000D01*
X217333D01*
X217000Y40333D01*
X218999Y40000D02*
X219666D01*
X219333D01*
Y41999D01*
X218999Y41666D01*
X182500Y148937D02*
X182001Y148437D01*
Y147438D01*
X182500Y146938D01*
X184500D01*
X185000Y147438D01*
Y148437D01*
X184500Y148937D01*
X182001Y149937D02*
Y151936D01*
X182500D01*
X184500Y149937D01*
X185000D01*
D13*
X190154Y84689D02*
G03*
X171846Y84689I-9154J0D01*
G01*
Y58311D02*
G03*
X190154Y58311I9154J0D01*
G01*
X146500Y164185D02*
G03*
X151500Y164185I2500J0D01*
G01*
X214732Y162791D02*
X231283D01*
X214732Y139209D02*
X231283D01*
X211209Y146555D02*
Y155331D01*
X234791Y146555D02*
Y155445D01*
X183595Y158063D02*
X195405D01*
X254701Y137772D02*
X267299D01*
X106095Y89374D02*
X117905D01*
X68500Y94500D02*
X93500D01*
X68500Y34500D02*
X93500D01*
Y94500D01*
X68500Y34500D02*
Y94500D01*
X171846Y58311D02*
Y84689D01*
X190154Y58311D02*
Y84689D01*
X138567Y24815D02*
Y164185D01*
X159433Y24815D02*
Y164185D01*
X138567D02*
X146500D01*
X151500D02*
X159433D01*
X138567Y24815D02*
X159433D01*
X55744Y47496D02*
Y89504D01*
X36256Y47496D02*
X55744D01*
X36256D02*
Y89504D01*
X55744D01*
X185000Y96508D02*
Y127492D01*
X175000Y96508D02*
X185000D01*
X175000D02*
Y127492D01*
X185000D01*
X214079Y73071D02*
X215161D01*
X222839D02*
X223921D01*
Y87244D01*
X214079D02*
X215161D01*
X222839D02*
X223921D01*
X214079Y73071D02*
Y87244D01*
X237256Y99996D02*
Y122004D01*
Y99996D02*
X246744D01*
Y122004D01*
X237256D02*
X246744D01*
X112079Y130783D02*
X121921D01*
Y155587D01*
X112079D02*
X121921D01*
X112079Y130783D02*
Y155587D01*
X94579Y130783D02*
X104421D01*
Y155587D01*
X94579D02*
X104421D01*
X94579Y130783D02*
Y155587D01*
X77579Y129783D02*
X87421D01*
Y154587D01*
X77579D02*
X87421D01*
X77579Y129783D02*
Y154587D01*
X53217Y120937D02*
X71720D01*
X53217Y163063D02*
X71720D01*
X53217Y120937D02*
Y163063D01*
X71720Y120937D02*
Y163063D01*
X69752Y120937D02*
Y163063D01*
X30595Y159500D02*
X42406D01*
X28000Y118095D02*
Y129905D01*
X57598Y100079D02*
Y109921D01*
Y100079D02*
X82402D01*
Y109921D01*
X57598D02*
X82402D01*
X193500Y22000D02*
X253500D01*
X193500Y47000D02*
X253500D01*
Y22000D02*
Y47000D01*
X193500Y22000D02*
Y47000D01*
X124791Y56717D02*
Y73268D01*
X101209Y56717D02*
Y73268D01*
X108555Y76791D02*
X117331D01*
X108555Y53209D02*
X117445D01*
X197079Y72913D02*
X198161D01*
X205839D02*
X206921D01*
Y87086D01*
X197079D02*
X198161D01*
X205839D02*
X206921D01*
X197079Y72913D02*
Y87086D01*
X211094Y103437D02*
X222906D01*
D14*
X143685Y160248D02*
G03*
X143685Y160248I-1181J0D01*
G01*
D15*
X234600Y59148D02*
X267600D01*
X234600Y90648D02*
X267600D01*
Y59148D02*
Y90648D01*
X234600Y59148D02*
Y90648D01*
X32873Y16872D02*
X33248Y17996D01*
Y15747D01*
X32873Y16872D01*
X32124Y17622D01*
X30999Y17996D01*
X29874D01*
X28750Y17622D01*
X28000Y16872D01*
Y16122D01*
X28375Y15372D01*
X28750Y14998D01*
X29500Y14623D01*
X31749Y13873D01*
X32498Y13498D01*
X33248Y12748D01*
X28000Y16122D02*
X28750Y15372D01*
X29500Y14998D01*
X31749Y14248D01*
X32498Y13873D01*
X32873Y13498D01*
X33248Y12748D01*
Y11249D01*
X32498Y10499D01*
X31374Y10124D01*
X30249D01*
X29125Y10499D01*
X28375Y11249D01*
X28000Y12373D01*
Y10124D01*
X28375Y11249D01*
X35535Y15372D02*
Y10124D01*
X35910Y15372D02*
Y10124D01*
Y14248D02*
X36660Y14998D01*
X37784Y15372D01*
X38534D01*
X39659Y14998D01*
X40033Y14248D01*
Y10124D01*
X38534Y15372D02*
X39284Y14998D01*
X39659Y14248D01*
Y10124D01*
X40033Y14248D02*
X40783Y14998D01*
X41908Y15372D01*
X42658D01*
X43782Y14998D01*
X44157Y14248D01*
Y10124D01*
X42658Y15372D02*
X43407Y14998D01*
X43782Y14248D01*
Y10124D01*
X34410Y15372D02*
X35910D01*
X34410Y10124D02*
X37034D01*
X38534D02*
X41158D01*
X42658D02*
X45282D01*
X46631Y14623D02*
Y14248D01*
X46256D01*
Y14623D01*
X46631Y14998D01*
X47381Y15372D01*
X48880D01*
X49630Y14998D01*
X50005Y14623D01*
X50380Y13873D01*
Y11249D01*
X50755Y10499D01*
X51130Y10124D01*
X50005Y14623D02*
Y11249D01*
X50380Y10499D01*
X51130Y10124D01*
X51504D01*
X50005Y13873D02*
X49630Y13498D01*
X47381Y13123D01*
X46256Y12748D01*
X45881Y11998D01*
Y11249D01*
X46256Y10499D01*
X47381Y10124D01*
X48505D01*
X49255Y10499D01*
X50005Y11249D01*
X47381Y13123D02*
X46631Y12748D01*
X46256Y11998D01*
Y11249D01*
X46631Y10499D01*
X47381Y10124D01*
X53754Y15372D02*
Y10124D01*
X54129Y15372D02*
Y10124D01*
Y13123D02*
X54504Y14248D01*
X55253Y14998D01*
X56003Y15372D01*
X57128D01*
X57503Y14998D01*
Y14623D01*
X57128Y14248D01*
X56753Y14623D01*
X57128Y14998D01*
X52629Y15372D02*
X54129D01*
X52629Y10124D02*
X55253D01*
X60951D02*
X60576Y10499D01*
X60202Y11624D01*
Y17996D01*
X59827D01*
Y11624D01*
X60202Y10499D01*
X60951Y10124D01*
X61701D01*
X62451Y10499D01*
X62826Y11249D01*
X58702Y15372D02*
X61701D01*
X64475Y13123D02*
X68974D01*
Y13873D01*
X68599Y14623D01*
X68224Y14998D01*
X67474Y15372D01*
X66350D01*
X65225Y14998D01*
X64475Y14248D01*
X64100Y13123D01*
Y12373D01*
X64475Y11249D01*
X65225Y10499D01*
X66350Y10124D01*
X67099D01*
X68224Y10499D01*
X68974Y11249D01*
X68599Y13123D02*
Y14248D01*
X68224Y14998D01*
X66350Y15372D02*
X65600Y14998D01*
X64850Y14248D01*
X64475Y13123D01*
Y12373D01*
X64850Y11249D01*
X65600Y10499D01*
X66350Y10124D01*
X71298Y15372D02*
Y10124D01*
X71673Y15372D02*
Y10124D01*
Y13123D02*
X72048Y14248D01*
X72797Y14998D01*
X73547Y15372D01*
X74672D01*
X75047Y14998D01*
Y14623D01*
X74672Y14248D01*
X74297Y14623D01*
X74672Y14998D01*
X70173Y15372D02*
X71673D01*
X70173Y10124D02*
X72797D01*
X84456Y17996D02*
Y10124D01*
X84831Y17996D02*
Y10124D01*
X83331Y17996D02*
X84831D01*
X83331Y10124D02*
X85955D01*
X88504Y17996D02*
X88130Y17622D01*
X88504Y17247D01*
X88879Y17622D01*
X88504Y17996D01*
Y15372D02*
Y10124D01*
X88879Y15372D02*
Y10124D01*
X87380Y15372D02*
X88879D01*
X87380Y10124D02*
X90004D01*
X92178Y15372D02*
X94428Y10124D01*
X92553Y15372D02*
X94428Y10874D01*
X96677Y15372D02*
X94428Y10124D01*
X91429Y15372D02*
X93678D01*
X95177D02*
X97426D01*
X99638Y17996D02*
X99263Y17622D01*
X99638Y17247D01*
X100013Y17622D01*
X99638Y17996D01*
Y15372D02*
Y10124D01*
X100013Y15372D02*
Y10124D01*
X98514Y15372D02*
X100013D01*
X98514Y10124D02*
X101138D01*
X103687Y15372D02*
Y10124D01*
X104062Y15372D02*
Y10124D01*
Y14248D02*
X104812Y14998D01*
X105936Y15372D01*
X106686D01*
X107810Y14998D01*
X108185Y14248D01*
Y10124D01*
X106686Y15372D02*
X107436Y14998D01*
X107810Y14248D01*
Y10124D01*
X102562Y15372D02*
X104062D01*
X102562Y10124D02*
X105186D01*
X106686D02*
X109310D01*
X112571Y15372D02*
X111822Y14998D01*
X111447Y14623D01*
X111072Y13873D01*
Y13123D01*
X111447Y12373D01*
X111822Y11998D01*
X112571Y11624D01*
X113321D01*
X114071Y11998D01*
X114446Y12373D01*
X114821Y13123D01*
Y13873D01*
X114446Y14623D01*
X114071Y14998D01*
X113321Y15372D01*
X112571D01*
X111822Y14998D02*
X111447Y14248D01*
Y12748D01*
X111822Y11998D01*
X114071D02*
X114446Y12748D01*
Y14248D01*
X114071Y14998D01*
X114446Y14623D02*
X114821Y14998D01*
X115570Y15372D01*
Y14998D01*
X114821D01*
X111447Y12373D02*
X111072Y11998D01*
X110697Y11249D01*
Y10874D01*
X111072Y10124D01*
X112197Y9749D01*
X114071D01*
X115196Y9374D01*
X115570Y8999D01*
X110697Y10874D02*
X111072Y10499D01*
X112197Y10124D01*
X114071D01*
X115196Y9749D01*
X115570Y8999D01*
Y8625D01*
X115196Y7875D01*
X114071Y7500D01*
X111822D01*
X110697Y7875D01*
X110322Y8625D01*
Y8999D01*
X110697Y9749D01*
X111822Y10124D01*
X117107D02*
X116732Y10499D01*
X117107Y10874D01*
X117482Y10499D01*
Y9749D01*
X117107Y8999D01*
X116732Y8625D01*
X127304Y15372D02*
Y10124D01*
X127679Y15372D02*
Y10124D01*
Y14248D02*
X128428Y14998D01*
X129553Y15372D01*
X130303D01*
X131427Y14998D01*
X131802Y14248D01*
Y10124D01*
X130303Y15372D02*
X131053Y14998D01*
X131427Y14248D01*
Y10124D01*
X131802Y14248D02*
X132552Y14998D01*
X133677Y15372D01*
X134426D01*
X135551Y14998D01*
X135926Y14248D01*
Y10124D01*
X134426Y15372D02*
X135176Y14998D01*
X135551Y14248D01*
Y10124D01*
X126179Y15372D02*
X127679D01*
X126179Y10124D02*
X128803D01*
X130303D02*
X132927D01*
X134426D02*
X137050D01*
X138400Y14623D02*
Y14248D01*
X138025D01*
Y14623D01*
X138400Y14998D01*
X139150Y15372D01*
X140649D01*
X141399Y14998D01*
X141774Y14623D01*
X142149Y13873D01*
Y11249D01*
X142524Y10499D01*
X142899Y10124D01*
X141774Y14623D02*
Y11249D01*
X142149Y10499D01*
X142899Y10124D01*
X143273D01*
X141774Y13873D02*
X141399Y13498D01*
X139150Y13123D01*
X138025Y12748D01*
X137650Y11998D01*
Y11249D01*
X138025Y10499D01*
X139150Y10124D01*
X140275D01*
X141024Y10499D01*
X141774Y11249D01*
X139150Y13123D02*
X138400Y12748D01*
X138025Y11998D01*
Y11249D01*
X138400Y10499D01*
X139150Y10124D01*
X148897Y17996D02*
Y10124D01*
X149271Y17996D02*
Y10124D01*
X148897Y14248D02*
X148147Y14998D01*
X147397Y15372D01*
X146647D01*
X145523Y14998D01*
X144773Y14248D01*
X144398Y13123D01*
Y12373D01*
X144773Y11249D01*
X145523Y10499D01*
X146647Y10124D01*
X147397D01*
X148147Y10499D01*
X148897Y11249D01*
X146647Y15372D02*
X145897Y14998D01*
X145148Y14248D01*
X144773Y13123D01*
Y12373D01*
X145148Y11249D01*
X145897Y10499D01*
X146647Y10124D01*
X147772Y17996D02*
X149271D01*
X148897Y10124D02*
X150396D01*
X151858Y13123D02*
X156357D01*
Y13873D01*
X155982Y14623D01*
X155607Y14998D01*
X154857Y15372D01*
X153732D01*
X152608Y14998D01*
X151858Y14248D01*
X151483Y13123D01*
Y12373D01*
X151858Y11249D01*
X152608Y10499D01*
X153732Y10124D01*
X154482D01*
X155607Y10499D01*
X156357Y11249D01*
X155982Y13123D02*
Y14248D01*
X155607Y14998D01*
X153732Y15372D02*
X152983Y14998D01*
X152233Y14248D01*
X151858Y13123D01*
Y12373D01*
X152233Y11249D01*
X152983Y10499D01*
X153732Y10124D01*
X165016Y13123D02*
X169515D01*
Y13873D01*
X169140Y14623D01*
X168765Y14998D01*
X168015Y15372D01*
X166890D01*
X165766Y14998D01*
X165016Y14248D01*
X164641Y13123D01*
Y12373D01*
X165016Y11249D01*
X165766Y10499D01*
X166890Y10124D01*
X167640D01*
X168765Y10499D01*
X169515Y11249D01*
X169140Y13123D02*
Y14248D01*
X168765Y14998D01*
X166890Y15372D02*
X166141Y14998D01*
X165391Y14248D01*
X165016Y13123D01*
Y12373D01*
X165391Y11249D01*
X166141Y10499D01*
X166890Y10124D01*
X171464Y14623D02*
Y14248D01*
X171089D01*
Y14623D01*
X171464Y14998D01*
X172214Y15372D01*
X173713D01*
X174463Y14998D01*
X174838Y14623D01*
X175213Y13873D01*
Y11249D01*
X175587Y10499D01*
X175962Y10124D01*
X174838Y14623D02*
Y11249D01*
X175213Y10499D01*
X175962Y10124D01*
X176337D01*
X174838Y13873D02*
X174463Y13498D01*
X172214Y13123D01*
X171089Y12748D01*
X170714Y11998D01*
Y11249D01*
X171089Y10499D01*
X172214Y10124D01*
X173338D01*
X174088Y10499D01*
X174838Y11249D01*
X172214Y13123D02*
X171464Y12748D01*
X171089Y11998D01*
Y11249D01*
X171464Y10499D01*
X172214Y10124D01*
X181211Y14623D02*
X181585Y15372D01*
Y13873D01*
X181211Y14623D01*
X180836Y14998D01*
X180086Y15372D01*
X178586D01*
X177837Y14998D01*
X177462Y14623D01*
Y13873D01*
X177837Y13498D01*
X178586Y13123D01*
X180461Y12373D01*
X181211Y11998D01*
X181585Y11624D01*
X177462Y14248D02*
X177837Y13873D01*
X178586Y13498D01*
X180461Y12748D01*
X181211Y12373D01*
X181585Y11998D01*
Y10874D01*
X181211Y10499D01*
X180461Y10124D01*
X178961D01*
X178212Y10499D01*
X177837Y10874D01*
X177462Y11624D01*
Y10124D01*
X177837Y10874D01*
X183610Y15372D02*
X185859Y10124D01*
X183985Y15372D02*
X185859Y10874D01*
X188108Y15372D02*
X185859Y10124D01*
X185109Y8625D01*
X184360Y7875D01*
X183610Y7500D01*
X183235D01*
X182860Y7875D01*
X183235Y8250D01*
X183610Y7875D01*
X182860Y15372D02*
X185109D01*
X186609D02*
X188858D01*
D16*
X37521Y187745D02*
Y172000D01*
X38271Y187745D02*
Y172000D01*
X33023Y187745D02*
X32273Y183246D01*
Y187745D01*
X43519D01*
Y183246D01*
X42770Y187745D01*
X35272Y172000D02*
X40520D01*
X48018Y182496D02*
Y172000D01*
X48768Y182496D02*
Y172000D01*
Y177998D02*
X49517Y180247D01*
X51017Y181747D01*
X52516Y182496D01*
X54765D01*
X55515Y181747D01*
Y180997D01*
X54765Y180247D01*
X54016Y180997D01*
X54765Y181747D01*
X45769Y182496D02*
X48768D01*
X45769Y172000D02*
X51017D01*
X62413Y182496D02*
X60164Y181747D01*
X58664Y180247D01*
X57915Y177998D01*
Y176498D01*
X58664Y174249D01*
X60164Y172750D01*
X62413Y172000D01*
X63912D01*
X66162Y172750D01*
X67661Y174249D01*
X68411Y176498D01*
Y177998D01*
X67661Y180247D01*
X66162Y181747D01*
X63912Y182496D01*
X62413D01*
X60913Y181747D01*
X59414Y180247D01*
X58664Y177998D01*
Y176498D01*
X59414Y174249D01*
X60913Y172750D01*
X62413Y172000D01*
X63912D02*
X65412Y172750D01*
X66911Y174249D01*
X67661Y176498D01*
Y177998D01*
X66911Y180247D01*
X65412Y181747D01*
X63912Y182496D01*
X72984D02*
Y172000D01*
X73734Y182496D02*
Y172000D01*
Y180247D02*
X75234Y181747D01*
X77483Y182496D01*
X78982D01*
X81232Y181747D01*
X81981Y180247D01*
Y172000D01*
X78982Y182496D02*
X80482Y181747D01*
X81232Y180247D01*
Y172000D01*
X70735Y182496D02*
X73734D01*
X70735Y172000D02*
X75983D01*
X78982D02*
X84231D01*
X88504Y187745D02*
X87754Y186995D01*
X88504Y186245D01*
X89254Y186995D01*
X88504Y187745D01*
Y182496D02*
Y172000D01*
X89254Y182496D02*
Y172000D01*
X86255Y182496D02*
X89254D01*
X86255Y172000D02*
X91503D01*
X103349Y180247D02*
X102599Y179498D01*
X103349Y178748D01*
X104099Y179498D01*
Y180247D01*
X102599Y181747D01*
X101100Y182496D01*
X98851D01*
X96601Y181747D01*
X95102Y180247D01*
X94352Y177998D01*
Y176498D01*
X95102Y174249D01*
X96601Y172750D01*
X98851Y172000D01*
X100350D01*
X102599Y172750D01*
X104099Y174249D01*
X98851Y182496D02*
X97351Y181747D01*
X95852Y180247D01*
X95102Y177998D01*
Y176498D01*
X95852Y174249D01*
X97351Y172750D01*
X98851Y172000D01*
X122917Y187745D02*
Y172000D01*
X123667Y187745D02*
Y172000D01*
X120668Y187745D02*
X129665D01*
X131914Y186995D01*
X132664Y186245D01*
X133414Y184746D01*
Y182496D01*
X132664Y180997D01*
X131914Y180247D01*
X129665Y179498D01*
X123667D01*
X129665Y187745D02*
X131165Y186995D01*
X131914Y186245D01*
X132664Y184746D01*
Y182496D01*
X131914Y180997D01*
X131165Y180247D01*
X129665Y179498D01*
X120668Y172000D02*
X125916D01*
X137762Y182496D02*
Y172000D01*
X138512Y182496D02*
Y172000D01*
Y177998D02*
X139262Y180247D01*
X140761Y181747D01*
X142261Y182496D01*
X144510D01*
X145260Y181747D01*
Y180997D01*
X144510Y180247D01*
X143760Y180997D01*
X144510Y181747D01*
X135513Y182496D02*
X138512D01*
X135513Y172000D02*
X140761D01*
X152157Y182496D02*
X149908Y181747D01*
X148409Y180247D01*
X147659Y177998D01*
Y176498D01*
X148409Y174249D01*
X149908Y172750D01*
X152157Y172000D01*
X153657D01*
X155906Y172750D01*
X157406Y174249D01*
X158155Y176498D01*
Y177998D01*
X157406Y180247D01*
X155906Y181747D01*
X153657Y182496D01*
X152157D01*
X150658Y181747D01*
X149159Y180247D01*
X148409Y177998D01*
Y176498D01*
X149159Y174249D01*
X150658Y172750D01*
X152157Y172000D01*
X153657D02*
X155157Y172750D01*
X156656Y174249D01*
X157406Y176498D01*
Y177998D01*
X156656Y180247D01*
X155157Y181747D01*
X153657Y182496D01*
X167977Y180997D02*
X168727Y182496D01*
Y179498D01*
X167977Y180997D01*
X167227Y181747D01*
X165728Y182496D01*
X162729D01*
X161229Y181747D01*
X160480Y180997D01*
Y179498D01*
X161229Y178748D01*
X162729Y177998D01*
X166478Y176498D01*
X167977Y175749D01*
X168727Y174999D01*
X160480Y180247D02*
X161229Y179498D01*
X162729Y178748D01*
X166478Y177248D01*
X167977Y176498D01*
X168727Y175749D01*
Y173500D01*
X167977Y172750D01*
X166478Y172000D01*
X163479D01*
X161979Y172750D01*
X161229Y173500D01*
X160480Y174999D01*
Y172000D01*
X161229Y173500D01*
D17*
X254300Y65753D02*
X256014D01*
X256585Y65943D01*
X256776Y66133D01*
X256966Y66514D01*
Y67086D01*
X256776Y67466D01*
X256585Y67657D01*
X256014Y67847D01*
X254300D01*
Y63848D01*
X257861Y66514D02*
Y63848D01*
Y65372D02*
X258052Y65943D01*
X258433Y66324D01*
X258814Y66514D01*
X259385D01*
X260699D02*
X260318Y66324D01*
X259937Y65943D01*
X259747Y65372D01*
Y64991D01*
X259937Y64420D01*
X260318Y64039D01*
X260699Y63848D01*
X261270D01*
X261651Y64039D01*
X262032Y64420D01*
X262222Y64991D01*
Y65372D01*
X262032Y65943D01*
X261651Y66324D01*
X261270Y66514D01*
X260699D01*
X265193Y65943D02*
X265003Y66324D01*
X264431Y66514D01*
X263860D01*
X263289Y66324D01*
X263098Y65943D01*
X263289Y65562D01*
X263670Y65372D01*
X264622Y65181D01*
X265003Y64991D01*
X265193Y64610D01*
Y64420D01*
X265003Y64039D01*
X264431Y63848D01*
X263860D01*
X263289Y64039D01*
X263098Y64420D01*
X238133Y67847D02*
Y63848D01*
X236800Y67847D02*
X239466D01*
X239942Y66514D02*
Y63848D01*
Y65372D02*
X240133Y65943D01*
X240514Y66324D01*
X240895Y66514D01*
X241466D01*
X242780D02*
X242399Y66324D01*
X242018Y65943D01*
X241828Y65372D01*
Y64991D01*
X242018Y64420D01*
X242399Y64039D01*
X242780Y63848D01*
X243351D01*
X243732Y64039D01*
X244113Y64420D01*
X244303Y64991D01*
Y65372D01*
X244113Y65943D01*
X243732Y66324D01*
X243351Y66514D01*
X242780D01*
X245179D02*
Y63848D01*
Y65753D02*
X245751Y66324D01*
X246131Y66514D01*
X246703D01*
X247084Y66324D01*
X247274Y65753D01*
Y63848D01*
X248702Y67847D02*
X248893Y67657D01*
X249083Y67847D01*
X248893Y68038D01*
X248702Y67847D01*
X248893Y66514D02*
Y63848D01*
X252073Y65943D02*
X251692Y66324D01*
X251311Y66514D01*
X250740D01*
X250359Y66324D01*
X249978Y65943D01*
X249788Y65372D01*
Y64991D01*
X249978Y64420D01*
X250359Y64039D01*
X250740Y63848D01*
X251311D01*
X251692Y64039D01*
X252073Y64420D01*
X269250Y107918D02*
Y109584D01*
Y108751D01*
X271750D01*
X269667Y112083D02*
X269250Y111667D01*
Y110834D01*
X269667Y110417D01*
X270083D01*
X270500Y110834D01*
Y111667D01*
X270917Y112083D01*
X271333D01*
X271750Y111667D01*
Y110834D01*
X271333Y110417D01*
X269250Y114166D02*
Y113333D01*
X269667Y112917D01*
X271333D01*
X271750Y113333D01*
Y114166D01*
X271333Y114583D01*
X269667D01*
X269250Y114166D01*
X271750Y115416D02*
X269250D01*
Y116665D01*
X269667Y117082D01*
X270500D01*
X270917Y116665D01*
Y115416D01*
X177333Y131999D02*
X176001D01*
X176667D01*
Y128667D01*
X176001Y128001D01*
X175334D01*
X174668Y128667D01*
X181332Y128001D02*
X178666D01*
X181332Y130666D01*
Y131333D01*
X180666Y131999D01*
X179333D01*
X178666Y131333D01*
X233500Y122499D02*
X232167D01*
X232834D01*
Y119167D01*
X232167Y118501D01*
X231501D01*
X230834Y119167D01*
X234833Y118501D02*
X236166D01*
X235499D01*
Y122499D01*
X234833Y121833D01*
X28667Y151833D02*
X28001Y151167D01*
Y149834D01*
X28667Y149168D01*
X31333D01*
X31999Y149834D01*
Y151167D01*
X31333Y151833D01*
X28001Y155832D02*
X28667Y154499D01*
X30000Y153166D01*
X31333D01*
X31999Y153833D01*
Y155166D01*
X31333Y155832D01*
X30666D01*
X30000Y155166D01*
Y153166D01*
X35834Y118333D02*
X35167Y118999D01*
X33834D01*
X33168Y118333D01*
Y115667D01*
X33834Y115001D01*
X35167D01*
X35834Y115667D01*
X39832Y118999D02*
X37167D01*
Y117000D01*
X38499Y117666D01*
X39166D01*
X39832Y117000D01*
Y115667D01*
X39166Y115001D01*
X37833D01*
X37167Y115667D01*
X223500Y111333D02*
X222834Y111999D01*
X221501D01*
X220834Y111333D01*
Y108667D01*
X221501Y108001D01*
X222834D01*
X223500Y108667D01*
X224833Y108001D02*
X226166D01*
X225499D01*
Y111999D01*
X224833Y111333D01*
X194001Y106335D02*
Y109001D01*
X194667D01*
X197333Y106335D01*
X197999D01*
Y109001D01*
X194001Y110334D02*
X197999D01*
Y112333D01*
X197333Y112999D01*
X194667D01*
X194001Y112333D01*
Y110334D01*
X197999Y114332D02*
Y115665D01*
Y114999D01*
X194001D01*
X194667Y114332D01*
X228170Y28166D02*
X227503Y28833D01*
X226171D01*
X225504Y28166D01*
Y27500D01*
X226171Y26833D01*
X227503D01*
X228170Y26167D01*
Y25500D01*
X227503Y24834D01*
X226171D01*
X225504Y25500D01*
X229503Y28833D02*
Y24834D01*
X230836Y26167D01*
X232169Y24834D01*
Y28833D01*
X233502Y24167D02*
X236167D01*
X237500Y24834D02*
Y28833D01*
X239500D01*
X240166Y28166D01*
Y26833D01*
X239500Y26167D01*
X237500D01*
X241499Y24834D02*
X242832D01*
X242165D01*
Y27500D01*
X241499D01*
X244831Y24834D02*
Y27500D01*
X246831D01*
X247497Y26833D01*
Y24834D01*
X248830D02*
X250829D01*
X251496Y25500D01*
X250829Y26167D01*
X249497D01*
X248830Y26833D01*
X249497Y27500D01*
X251496D01*
X110334Y66833D02*
X109668Y67499D01*
X108335D01*
X107668Y66833D01*
Y66166D01*
X108335Y65500D01*
X109668D01*
X110334Y64834D01*
Y64167D01*
X109668Y63501D01*
X108335D01*
X107668Y64167D01*
X111667Y67499D02*
Y63501D01*
X113000Y64834D01*
X114333Y63501D01*
Y67499D01*
X118332D02*
X115666D01*
Y65500D01*
X116999Y66166D01*
X117665D01*
X118332Y65500D01*
Y64167D01*
X117665Y63501D01*
X116332D01*
X115666Y64167D01*
X74166Y36004D02*
X70167D01*
Y38003D01*
X70834Y38669D01*
X72167D01*
X72833Y38003D01*
Y36004D01*
Y37336D02*
X74166Y38669D01*
X74833Y40002D02*
Y42668D01*
X74166Y44001D02*
X70167D01*
Y46000D01*
X70834Y46667D01*
X72167D01*
X72833Y46000D01*
Y44001D01*
X74166Y48000D02*
Y49333D01*
Y48666D01*
X71500D01*
Y48000D01*
X74166Y51332D02*
X71500D01*
Y53331D01*
X72167Y53998D01*
X74166D01*
Y55331D02*
Y57330D01*
X73500Y57996D01*
X72833Y57330D01*
Y55997D01*
X72167Y55331D01*
X71500Y55997D01*
Y57996D01*
X84999Y140668D02*
X81001D01*
Y142667D01*
X81667Y143333D01*
X83000D01*
X83666Y142667D01*
Y140668D01*
Y142001D02*
X84999Y143333D01*
Y146666D02*
X81001D01*
X83000Y144667D01*
Y147332D01*
X67168Y103001D02*
Y106999D01*
X69167D01*
X69834Y106333D01*
Y105000D01*
X69167Y104333D01*
X67168D01*
X68501D02*
X69834Y103001D01*
X71166Y106333D02*
X71833Y106999D01*
X73166D01*
X73832Y106333D01*
Y105666D01*
X73166Y105000D01*
X72499D01*
X73166D01*
X73832Y104333D01*
Y103667D01*
X73166Y103001D01*
X71833D01*
X71166Y103667D01*
X118499Y141168D02*
X114501D01*
Y143167D01*
X115167Y143833D01*
X116500D01*
X117166Y143167D01*
Y141168D01*
Y142501D02*
X118499Y143833D01*
Y147832D02*
Y145167D01*
X115833Y147832D01*
X115167D01*
X114501Y147166D01*
Y145833D01*
X115167Y145167D01*
X101499Y141334D02*
X97501D01*
Y143333D01*
X98167Y144000D01*
X99500D01*
X100166Y143333D01*
Y141334D01*
Y142667D02*
X101499Y144000D01*
Y145333D02*
Y146666D01*
Y145999D01*
X97501D01*
X98167Y145333D01*
X59668Y161499D02*
Y158834D01*
X61001Y157501D01*
X62334Y158834D01*
Y161499D01*
X63666Y157501D02*
Y161499D01*
X65666D01*
X66332Y160833D01*
Y159500D01*
X65666Y158834D01*
X63666D01*
X64999D02*
X66332Y157501D01*
X266501Y143668D02*
X270499D01*
Y146334D01*
X266501Y150333D02*
Y147667D01*
X270499D01*
Y150333D01*
X268500Y147667D02*
Y149000D01*
X266501Y151666D02*
X270499D01*
Y153665D01*
X269833Y154332D01*
X267167D01*
X266501Y153665D01*
Y151666D01*
X30001Y66834D02*
Y64168D01*
X33999D01*
Y66834D01*
X32000Y64168D02*
Y65501D01*
X30667Y70833D02*
X30001Y70166D01*
Y68834D01*
X30667Y68167D01*
X31334D01*
X32000Y68834D01*
Y70166D01*
X32666Y70833D01*
X33333D01*
X33999Y70166D01*
Y68834D01*
X33333Y68167D01*
X33999Y72166D02*
X30001D01*
Y74165D01*
X30667Y74832D01*
X32000D01*
X32666Y74165D01*
Y72166D01*
X173501Y61230D02*
X172834Y60564D01*
Y59231D01*
X173501Y58564D01*
X176166D01*
X176833Y59231D01*
Y60564D01*
X176166Y61230D01*
X174167Y62563D02*
X176833D01*
X175500D01*
X174834Y63230D01*
X174167Y63896D01*
Y64562D01*
Y66562D02*
X176166D01*
X176833Y67228D01*
Y69228D01*
X177499D01*
X178166Y68561D01*
Y67895D01*
X176833Y69228D02*
X174167D01*
X176833Y70561D02*
Y72560D01*
X176166Y73226D01*
X175500Y72560D01*
Y71227D01*
X174834Y70561D01*
X174167Y71227D01*
Y73226D01*
X173501Y75226D02*
X174167D01*
Y74559D01*
Y75892D01*
Y75226D01*
X176166D01*
X176833Y75892D01*
X174167Y78558D02*
Y79891D01*
X174834Y80557D01*
X176833D01*
Y78558D01*
X176166Y77891D01*
X175500Y78558D01*
Y80557D01*
X176833Y81890D02*
Y83223D01*
Y82557D01*
X172834D01*
Y81890D01*
X104667Y96334D02*
X104001Y95667D01*
Y94334D01*
X104667Y93668D01*
X107333D01*
X107999Y94334D01*
Y95667D01*
X107333Y96334D01*
X107999Y99666D02*
X104001D01*
X106000Y97667D01*
Y100332D01*
X218334Y84833D02*
X217667Y85499D01*
X216334D01*
X215668Y84833D01*
Y82167D01*
X216334Y81501D01*
X217667D01*
X218334Y82167D01*
X219667Y84833D02*
X220333Y85499D01*
X221666D01*
X222332Y84833D01*
Y84166D01*
X221666Y83500D01*
X220999D01*
X221666D01*
X222332Y82834D01*
Y82167D01*
X221666Y81501D01*
X220333D01*
X219667Y82167D01*
X201834Y84833D02*
X201167Y85499D01*
X199834D01*
X199168Y84833D01*
Y82167D01*
X199834Y81501D01*
X201167D01*
X201834Y82167D01*
X205832Y81501D02*
X203167D01*
X205832Y84166D01*
Y84833D01*
X205166Y85499D01*
X203833D01*
X203167Y84833D01*
X150833Y74174D02*
X148167D01*
X146834Y75507D01*
X148167Y76839D01*
X150833D01*
X148834D01*
Y74174D01*
X146834Y78172D02*
Y80838D01*
Y79505D01*
X150833D01*
Y82171D02*
X148167D01*
Y82837D01*
X148834Y83504D01*
X150833D01*
X148834D01*
X148167Y84170D01*
X148834Y84837D01*
X150833D01*
Y88169D02*
Y86836D01*
X150166Y86170D01*
X148834D01*
X148167Y86836D01*
Y88169D01*
X148834Y88836D01*
X149500D01*
Y86170D01*
X152166Y91501D02*
Y92168D01*
X151499Y92834D01*
X148167D01*
Y90835D01*
X148834Y90168D01*
X150166D01*
X150833Y90835D01*
Y92834D01*
X148167Y94834D02*
Y96166D01*
X148834Y96833D01*
X150833D01*
Y94834D01*
X150166Y94167D01*
X149500Y94834D01*
Y96833D01*
X147501Y98166D02*
X146834Y98832D01*
Y100165D01*
X147501Y100832D01*
X148167D01*
X148834Y100165D01*
Y99499D01*
Y100165D01*
X149500Y100832D01*
X150166D01*
X150833Y100165D01*
Y98832D01*
X150166Y98166D01*
X150833Y104830D02*
Y102164D01*
X148167Y104830D01*
X147501D01*
X146834Y104164D01*
Y102831D01*
X147501Y102164D01*
Y106163D02*
X146834Y106830D01*
Y108163D01*
X147501Y108829D01*
X148167D01*
X148834Y108163D01*
X149500Y108829D01*
X150166D01*
X150833Y108163D01*
Y106830D01*
X150166Y106163D01*
X149500D01*
X148834Y106830D01*
X148167Y106163D01*
X147501D01*
X148834Y106830D02*
Y108163D01*
X150833Y110162D02*
X146834D01*
Y112161D01*
X147501Y112828D01*
X148834D01*
X149500Y112161D01*
Y110162D01*
X146834Y114161D02*
X150166D01*
X150833Y114827D01*
Y116160D01*
X150166Y116826D01*
X146834D01*
D18*
X219834Y151833D02*
X219168Y152499D01*
X217835D01*
X217168Y151833D01*
Y151166D01*
X217835Y150500D01*
X219168D01*
X219834Y149834D01*
Y149167D01*
X219168Y148501D01*
X217835D01*
X217168Y149167D01*
X221167Y152499D02*
Y148501D01*
X222500Y149834D01*
X223833Y148501D01*
Y152499D01*
X225166Y151833D02*
X225832Y152499D01*
X227165D01*
X227832Y151833D01*
Y149167D01*
X227165Y148501D01*
X225832D01*
X225166Y149167D01*
Y151833D01*
M02*
