G04*
G04 #@! TF.GenerationSoftware,Altium Limited,Altium Designer,23.1.1 (15)*
G04*
G04 Layer_Physical_Order=1*
G04 Layer_Color=255*
%FSLAX25Y25*%
%MOIN*%
G70*
G04*
G04 #@! TF.SameCoordinates,7FBAD907-ECE7-4216-98B3-75AA29109797*
G04*
G04*
G04 #@! TF.FilePolarity,Positive*
G04*
G01*
G75*
%ADD21C,0.04724*%
%ADD22R,0.04724X0.04724*%
%ADD23C,0.07874*%
%ADD31C,0.04921*%
%ADD32R,0.04921X0.04921*%
%ADD35R,0.04724X0.04724*%
%ADD36R,0.04921X0.04921*%
%ADD41C,0.03000*%
%ADD42R,0.05906X0.05906*%
%ADD43C,0.05906*%
%ADD44O,0.10400X0.05200*%
%ADD45R,0.06102X0.06102*%
%ADD46C,0.06102*%
%ADD47C,0.13500*%
%ADD48R,0.05512X0.05512*%
%ADD49C,0.05512*%
%ADD50C,0.06299*%
%ADD51R,0.06299X0.06299*%
%ADD52R,0.06102X0.06102*%
%ADD53R,0.05906X0.05906*%
%ADD54C,0.05150*%
%ADD55C,0.02362*%
G36*
X271701Y193697D02*
X273091Y193514D01*
X274446Y193151D01*
X275741Y192615D01*
X276956Y191913D01*
X278068Y191060D01*
X279060Y190068D01*
X279913Y188956D01*
X280615Y187741D01*
X281151Y186446D01*
X281514Y185091D01*
X281697Y183701D01*
X281697Y183000D01*
Y183000D01*
D01*
X281697Y12500D01*
X281697Y11766D01*
X281506Y10311D01*
X281126Y8893D01*
X280564Y7537D01*
X279830Y6266D01*
X278937Y5101D01*
X277899Y4063D01*
X276734Y3170D01*
X275463Y2436D01*
X274107Y1874D01*
X272689Y1494D01*
X271234Y1303D01*
X270500Y1303D01*
D01*
X270500D01*
X12000D01*
D01*
X12000D01*
X11266Y1303D01*
X9811Y1494D01*
X8393Y1874D01*
X7037Y2436D01*
X5766Y3170D01*
X4601Y4063D01*
X3563Y5101D01*
X2670Y6266D01*
X1936Y7537D01*
X1374Y8893D01*
X994Y10311D01*
X803Y11766D01*
X803Y12500D01*
Y12500D01*
D01*
Y182000D01*
Y182767D01*
X1003Y184287D01*
X1400Y185768D01*
X1987Y187185D01*
X2753Y188513D01*
X3687Y189729D01*
X4771Y190813D01*
X5987Y191747D01*
X7315Y192513D01*
X8732Y193100D01*
X10213Y193497D01*
X11733Y193697D01*
X271000D01*
X271701Y193697D01*
D02*
G37*
%LPC*%
G36*
X268717Y187784D02*
X267283D01*
X265875Y187504D01*
X264550Y186955D01*
X263357Y186158D01*
X262342Y185143D01*
X261545Y183950D01*
X260996Y182625D01*
X260716Y181217D01*
Y179783D01*
X260996Y178375D01*
X261545Y177050D01*
X262342Y175857D01*
X263357Y174842D01*
X264550Y174045D01*
X265875Y173496D01*
X267283Y173216D01*
X268717D01*
X270125Y173496D01*
X271450Y174045D01*
X272643Y174842D01*
X273658Y175857D01*
X274455Y177050D01*
X275004Y178375D01*
X275284Y179783D01*
Y181217D01*
X275004Y182625D01*
X274455Y183950D01*
X273658Y185143D01*
X272643Y186158D01*
X271450Y186955D01*
X270125Y187504D01*
X268717Y187784D01*
D02*
G37*
G36*
X15217D02*
X13783D01*
X12375Y187504D01*
X11050Y186955D01*
X9857Y186158D01*
X8842Y185143D01*
X8045Y183950D01*
X7496Y182625D01*
X7216Y181217D01*
Y179783D01*
X7496Y178375D01*
X8045Y177050D01*
X8842Y175857D01*
X9857Y174842D01*
X11050Y174045D01*
X12375Y173496D01*
X13783Y173216D01*
X15217D01*
X16625Y173496D01*
X17950Y174045D01*
X19143Y174842D01*
X20158Y175857D01*
X20955Y177050D01*
X21504Y178375D01*
X21784Y179783D01*
Y181217D01*
X21504Y182625D01*
X20955Y183950D01*
X20158Y185143D01*
X19143Y186158D01*
X17950Y186955D01*
X16625Y187504D01*
X15217Y187784D01*
D02*
G37*
G36*
X99890Y165831D02*
X99750D01*
Y163120D01*
X102461D01*
Y163260D01*
X102259Y164013D01*
X101869Y164688D01*
X101318Y165239D01*
X100643Y165629D01*
X99890Y165831D01*
D02*
G37*
G36*
X99250D02*
X99110D01*
X98357Y165629D01*
X97682Y165239D01*
X97131Y164688D01*
X96741Y164013D01*
X96539Y163260D01*
Y163120D01*
X99250D01*
Y165831D01*
D02*
G37*
G36*
X236250Y163311D02*
X236045D01*
Y160108D01*
X239248D01*
Y160313D01*
X239013Y161191D01*
X238558Y161978D01*
X237915Y162621D01*
X237128Y163076D01*
X236250Y163311D01*
D02*
G37*
G36*
X235545D02*
X235341D01*
X234463Y163076D01*
X233675Y162621D01*
X233032Y161978D01*
X232578Y161191D01*
X232343Y160313D01*
Y160108D01*
X235545D01*
Y163311D01*
D02*
G37*
G36*
X117390Y165831D02*
X116610D01*
X115857Y165629D01*
X115182Y165239D01*
X114631Y164688D01*
X114241Y164013D01*
X114039Y163260D01*
Y162480D01*
X114241Y161727D01*
X114631Y161052D01*
X115182Y160501D01*
X115857Y160111D01*
X116610Y159909D01*
X117390D01*
X118143Y160111D01*
X118818Y160501D01*
X119369Y161052D01*
X119759Y161727D01*
X119961Y162480D01*
Y163260D01*
X119759Y164013D01*
X119369Y164688D01*
X118818Y165239D01*
X118143Y165629D01*
X117390Y165831D01*
D02*
G37*
G36*
X102461Y162620D02*
X99750D01*
Y159909D01*
X99890D01*
X100643Y160111D01*
X101318Y160501D01*
X101869Y161052D01*
X102259Y161727D01*
X102461Y162480D01*
Y162620D01*
D02*
G37*
G36*
X99250D02*
X96539D01*
Y162480D01*
X96741Y161727D01*
X97131Y161052D01*
X97682Y160501D01*
X98357Y160111D01*
X99110Y159909D01*
X99250D01*
Y162620D01*
D02*
G37*
G36*
X82890Y164831D02*
X82110D01*
X81357Y164629D01*
X80682Y164239D01*
X80131Y163688D01*
X79741Y163013D01*
X79539Y162260D01*
Y161480D01*
X79741Y160727D01*
X80131Y160052D01*
X80682Y159501D01*
X81357Y159111D01*
X82110Y158909D01*
X82890D01*
X83643Y159111D01*
X84318Y159501D01*
X84869Y160052D01*
X85259Y160727D01*
X85461Y161480D01*
Y162260D01*
X85259Y163013D01*
X84869Y163688D01*
X84318Y164239D01*
X83643Y164629D01*
X82890Y164831D01*
D02*
G37*
G36*
X239248Y159608D02*
X236045D01*
Y156405D01*
X236250D01*
X237128Y156641D01*
X237915Y157095D01*
X238558Y157738D01*
X239013Y158526D01*
X239248Y159404D01*
Y159608D01*
D02*
G37*
G36*
X235545D02*
X232343D01*
Y159404D01*
X232578Y158526D01*
X233032Y157738D01*
X233675Y157095D01*
X234463Y156641D01*
X235341Y156405D01*
X235545D01*
Y159608D01*
D02*
G37*
G36*
X210659Y163311D02*
X209750D01*
X208872Y163076D01*
X208085Y162621D01*
X207442Y161978D01*
X206987Y161191D01*
X206752Y160313D01*
Y159404D01*
X206987Y158526D01*
X207442Y157738D01*
X208085Y157095D01*
X208872Y156641D01*
X209750Y156405D01*
X210659D01*
X211537Y156641D01*
X212325Y157095D01*
X212968Y157738D01*
X213422Y158526D01*
X213657Y159404D01*
Y160313D01*
X213422Y161191D01*
X212968Y161978D01*
X212325Y162621D01*
X211537Y163076D01*
X210659Y163311D01*
D02*
G37*
G36*
X164455Y162953D02*
X163545D01*
X162667Y162717D01*
X161880Y162263D01*
X161237Y161620D01*
X160783Y160833D01*
X160547Y159955D01*
Y159045D01*
X160783Y158167D01*
X161237Y157380D01*
X161880Y156737D01*
X162667Y156282D01*
X163545Y156047D01*
X164455D01*
X165333Y156282D01*
X166120Y156737D01*
X166763Y157380D01*
X167218Y158167D01*
X167453Y159045D01*
Y159955D01*
X167218Y160833D01*
X166763Y161620D01*
X166120Y162263D01*
X165333Y162717D01*
X164455Y162953D01*
D02*
G37*
G36*
X192362Y156299D02*
X189750D01*
Y153687D01*
X192362D01*
Y156299D01*
D02*
G37*
G36*
X189250D02*
X186638D01*
Y153687D01*
X189250D01*
Y156299D01*
D02*
G37*
G36*
X39362Y157736D02*
X33638D01*
Y152012D01*
X39362D01*
Y157736D01*
D02*
G37*
G36*
X192362Y153187D02*
X189750D01*
Y150575D01*
X192362D01*
Y153187D01*
D02*
G37*
G36*
X189250D02*
X186638D01*
Y150575D01*
X189250D01*
Y153187D01*
D02*
G37*
G36*
X261584Y157937D02*
X260416D01*
X259287Y157635D01*
X258276Y157051D01*
X257450Y156224D01*
X256865Y155213D01*
X256563Y154084D01*
Y152916D01*
X256865Y151787D01*
X257450Y150776D01*
X258276Y149950D01*
X259287Y149365D01*
X260416Y149063D01*
X261584D01*
X262713Y149365D01*
X263724Y149950D01*
X264550Y150776D01*
X265135Y151787D01*
X265437Y152916D01*
Y154084D01*
X265135Y155213D01*
X264550Y156224D01*
X263724Y157051D01*
X262713Y157635D01*
X261584Y157937D01*
D02*
G37*
G36*
X64150Y155650D02*
X56850D01*
Y148350D01*
X64150D01*
Y155650D01*
D02*
G37*
G36*
X164455Y152953D02*
X163545D01*
X162667Y152717D01*
X161880Y152263D01*
X161237Y151620D01*
X160783Y150833D01*
X160547Y149955D01*
Y149045D01*
X160783Y148167D01*
X161237Y147380D01*
X161880Y146737D01*
X162667Y146282D01*
X163545Y146047D01*
X164455D01*
X165333Y146282D01*
X166120Y146737D01*
X166763Y147380D01*
X167218Y148167D01*
X167453Y149045D01*
Y149955D01*
X167218Y150833D01*
X166763Y151620D01*
X166120Y152263D01*
X165333Y152717D01*
X164455Y152953D01*
D02*
G37*
G36*
X134455D02*
X133545D01*
X132667Y152717D01*
X131880Y152263D01*
X131237Y151620D01*
X130782Y150833D01*
X130547Y149955D01*
Y149045D01*
X130782Y148167D01*
X131237Y147380D01*
X131880Y146737D01*
X132667Y146282D01*
X133545Y146047D01*
X134455D01*
X135333Y146282D01*
X136120Y146737D01*
X136763Y147380D01*
X137217Y148167D01*
X137453Y149045D01*
Y149955D01*
X137217Y150833D01*
X136763Y151620D01*
X136120Y152263D01*
X135333Y152717D01*
X134455Y152953D01*
D02*
G37*
G36*
X167743Y175796D02*
X114350D01*
X113570Y175641D01*
X112908Y175199D01*
X105768Y168059D01*
X105326Y167397D01*
X105171Y166617D01*
Y133290D01*
X105326Y132510D01*
X105768Y131848D01*
X114039Y123577D01*
Y120539D01*
X119961D01*
Y126461D01*
X116923D01*
X109249Y134134D01*
Y165772D01*
X115195Y171718D01*
X166898D01*
X170461Y168155D01*
Y147845D01*
X165441Y142825D01*
X165295Y142727D01*
X164455Y142953D01*
X163545D01*
X162667Y142718D01*
X161880Y142263D01*
X161237Y141620D01*
X160783Y140833D01*
X160547Y139955D01*
Y139045D01*
X160783Y138167D01*
X161237Y137380D01*
X161880Y136737D01*
X162667Y136283D01*
X163545Y136047D01*
X164455D01*
X165333Y136283D01*
X166120Y136737D01*
X166763Y137380D01*
X167218Y138167D01*
X167453Y139045D01*
Y139216D01*
X167895Y139511D01*
X173942Y145558D01*
X174384Y146220D01*
X174539Y147000D01*
Y169000D01*
X174384Y169780D01*
X173942Y170442D01*
X169185Y175199D01*
X168523Y175641D01*
X167743Y175796D01*
D02*
G37*
G36*
X189877Y148425D02*
X189123D01*
X188395Y148230D01*
X187743Y147853D01*
X187210Y147320D01*
X186833Y146668D01*
X186638Y145940D01*
Y145186D01*
X186833Y144458D01*
X187210Y143806D01*
X187743Y143273D01*
X188395Y142896D01*
X189123Y142701D01*
X189877D01*
X190605Y142896D01*
X191257Y143273D01*
X191790Y143806D01*
X192167Y144458D01*
X192362Y145186D01*
Y145940D01*
X192167Y146668D01*
X191790Y147320D01*
X191257Y147853D01*
X190605Y148230D01*
X189877Y148425D01*
D02*
G37*
G36*
X261584Y147937D02*
X260416D01*
X259287Y147635D01*
X258276Y147050D01*
X257450Y146224D01*
X256865Y145213D01*
X256563Y144084D01*
Y142916D01*
X256865Y141787D01*
X257450Y140776D01*
X258276Y139950D01*
X259287Y139365D01*
X260416Y139063D01*
X261584D01*
X262713Y139365D01*
X263724Y139950D01*
X264550Y140776D01*
X265135Y141787D01*
X265437Y142916D01*
Y144084D01*
X265135Y145213D01*
X264550Y146224D01*
X263724Y147050D01*
X262713Y147635D01*
X261584Y147937D01*
D02*
G37*
G36*
X239248Y145595D02*
X232343D01*
Y138689D01*
X239248D01*
Y145595D01*
D02*
G37*
G36*
X210659D02*
X209750D01*
X208872Y145359D01*
X208085Y144905D01*
X207442Y144262D01*
X206987Y143474D01*
X206752Y142596D01*
Y141687D01*
X206987Y140809D01*
X207442Y140022D01*
X208085Y139379D01*
X208872Y138924D01*
X209750Y138689D01*
X210659D01*
X211537Y138924D01*
X212325Y139379D01*
X212968Y140022D01*
X213422Y140809D01*
X213657Y141687D01*
Y142596D01*
X213422Y143474D01*
X212968Y144262D01*
X212325Y144905D01*
X211537Y145359D01*
X210659Y145595D01*
D02*
G37*
G36*
X36877Y149862D02*
X36123D01*
X35395Y149667D01*
X34743Y149290D01*
X34210Y148757D01*
X33833Y148105D01*
X33638Y147377D01*
Y146623D01*
X33833Y145895D01*
X34210Y145243D01*
X34743Y144710D01*
X35395Y144333D01*
X36123Y144138D01*
X36478D01*
X40058Y140558D01*
X40720Y140116D01*
X41500Y139961D01*
X57463D01*
X57580Y139759D01*
X58259Y139080D01*
X59091Y138599D01*
X60019Y138350D01*
X60980D01*
X61909Y138599D01*
X62741Y139080D01*
X63420Y139759D01*
X63901Y140591D01*
X64150Y141519D01*
Y142481D01*
X63901Y143409D01*
X63420Y144241D01*
X62741Y144920D01*
X61909Y145401D01*
X60980Y145650D01*
X60019D01*
X59091Y145401D01*
X58259Y144920D01*
X57580Y144241D01*
X57463Y144039D01*
X42345D01*
X39362Y147022D01*
Y147377D01*
X39167Y148105D01*
X38790Y148757D01*
X38257Y149290D01*
X37605Y149667D01*
X36877Y149862D01*
D02*
G37*
G36*
X134455Y142953D02*
X133545D01*
X132667Y142718D01*
X131880Y142263D01*
X131237Y141620D01*
X130782Y140833D01*
X130547Y139955D01*
Y139045D01*
X130782Y138167D01*
X131237Y137380D01*
X131880Y136737D01*
X132667Y136283D01*
X133545Y136047D01*
X134455D01*
X135333Y136283D01*
X136120Y136737D01*
X136763Y137380D01*
X137217Y138167D01*
X137453Y139045D01*
Y139955D01*
X137217Y140833D01*
X136763Y141620D01*
X136120Y142263D01*
X135333Y142718D01*
X134455Y142953D01*
D02*
G37*
G36*
X60980Y135650D02*
X60750D01*
Y132250D01*
X64150D01*
Y132481D01*
X63901Y133409D01*
X63420Y134241D01*
X62741Y134920D01*
X61909Y135401D01*
X60980Y135650D01*
D02*
G37*
G36*
X60250D02*
X60019D01*
X59091Y135401D01*
X58259Y134920D01*
X57580Y134241D01*
X57099Y133409D01*
X56850Y132481D01*
Y132250D01*
X60250D01*
Y135650D01*
D02*
G37*
G36*
X64150Y131750D02*
X60750D01*
Y128350D01*
X60980D01*
X61909Y128599D01*
X62741Y129080D01*
X63420Y129759D01*
X63901Y130591D01*
X64150Y131519D01*
Y131750D01*
D02*
G37*
G36*
X60250D02*
X56850D01*
Y131519D01*
X57099Y130591D01*
X57580Y129759D01*
X58259Y129080D01*
X59091Y128599D01*
X60019Y128350D01*
X60250D01*
Y131750D01*
D02*
G37*
G36*
X164455Y132953D02*
X163545D01*
X162667Y132718D01*
X161880Y132263D01*
X161237Y131620D01*
X160783Y130833D01*
X160547Y129955D01*
Y129045D01*
X160783Y128167D01*
X161237Y127380D01*
X161880Y126737D01*
X162667Y126283D01*
X163545Y126047D01*
X164455D01*
X165333Y126283D01*
X166120Y126737D01*
X166763Y127380D01*
X167218Y128167D01*
X167453Y129045D01*
Y129955D01*
X167218Y130833D01*
X166763Y131620D01*
X166120Y132263D01*
X165333Y132718D01*
X164455Y132953D01*
D02*
G37*
G36*
X134455D02*
X133545D01*
X132667Y132718D01*
X131880Y132263D01*
X131237Y131620D01*
X130782Y130833D01*
X130547Y129955D01*
Y129045D01*
X130782Y128167D01*
X131237Y127380D01*
X131880Y126737D01*
X132667Y126283D01*
X133545Y126047D01*
X134455D01*
X135333Y126283D01*
X136120Y126737D01*
X136763Y127380D01*
X137217Y128167D01*
X137453Y129045D01*
Y129955D01*
X137217Y130833D01*
X136763Y131620D01*
X136120Y132263D01*
X135333Y132718D01*
X134455Y132953D01*
D02*
G37*
G36*
X40877Y126862D02*
X40750D01*
Y124250D01*
X43362D01*
Y124377D01*
X43167Y125105D01*
X42790Y125757D01*
X42257Y126290D01*
X41605Y126667D01*
X40877Y126862D01*
D02*
G37*
G36*
X40250D02*
X40123D01*
X39395Y126667D01*
X38743Y126290D01*
X38210Y125757D01*
X37833Y125105D01*
X37638Y124377D01*
Y124250D01*
X40250D01*
Y126862D01*
D02*
G37*
G36*
X196405Y126886D02*
X196250D01*
Y124061D01*
X199075D01*
Y124216D01*
X198865Y124998D01*
X198460Y125699D01*
X197888Y126271D01*
X197187Y126676D01*
X196405Y126886D01*
D02*
G37*
G36*
X195750D02*
X195595D01*
X194813Y126676D01*
X194112Y126271D01*
X193540Y125699D01*
X193135Y124998D01*
X192925Y124216D01*
Y124061D01*
X195750D01*
Y126886D01*
D02*
G37*
G36*
X263205Y125465D02*
X260855D01*
Y122588D01*
X266299D01*
X266225Y123147D01*
X265913Y123901D01*
X265416Y124549D01*
X264768Y125046D01*
X264014Y125358D01*
X263205Y125465D01*
D02*
G37*
G36*
X260355D02*
X258005D01*
X257195Y125358D01*
X256441Y125046D01*
X255794Y124549D01*
X255297Y123901D01*
X254984Y123147D01*
X254911Y122588D01*
X260355D01*
Y125465D01*
D02*
G37*
G36*
X183256Y125256D02*
X180250D01*
Y122250D01*
X183256D01*
Y125256D01*
D02*
G37*
G36*
X179750D02*
X176744D01*
Y122250D01*
X179750D01*
Y125256D01*
D02*
G37*
G36*
X43362Y123750D02*
X40750D01*
Y121138D01*
X40877D01*
X41605Y121333D01*
X42257Y121710D01*
X42790Y122243D01*
X43167Y122895D01*
X43362Y123623D01*
Y123750D01*
D02*
G37*
G36*
X40250D02*
X37638D01*
Y123623D01*
X37833Y122895D01*
X38210Y122243D01*
X38743Y121710D01*
X39395Y121333D01*
X40123Y121138D01*
X40250D01*
Y123750D01*
D02*
G37*
G36*
X35488Y126862D02*
X29764D01*
Y121138D01*
X35488D01*
Y126862D01*
D02*
G37*
G36*
X199075Y123561D02*
X196250D01*
Y120736D01*
X196405D01*
X197187Y120946D01*
X197888Y121351D01*
X198460Y121923D01*
X198865Y122624D01*
X199075Y123406D01*
Y123561D01*
D02*
G37*
G36*
X195750D02*
X192925D01*
Y123406D01*
X193135Y122624D01*
X193540Y121923D01*
X194112Y121351D01*
X194813Y120946D01*
X195595Y120736D01*
X195750D01*
Y123561D01*
D02*
G37*
G36*
X266299Y122088D02*
X260855D01*
Y119211D01*
X263205D01*
X264014Y119318D01*
X264768Y119630D01*
X265416Y120127D01*
X265913Y120774D01*
X266225Y121529D01*
X266299Y122088D01*
D02*
G37*
G36*
X260355D02*
X254911D01*
X254984Y121529D01*
X255297Y120774D01*
X255794Y120127D01*
X256441Y119630D01*
X257195Y119318D01*
X258005Y119211D01*
X260355D01*
Y122088D01*
D02*
G37*
G36*
X183256Y121750D02*
X180250D01*
Y118744D01*
X183256D01*
Y121750D01*
D02*
G37*
G36*
X179750D02*
X176744D01*
Y118744D01*
X179750D01*
Y121750D01*
D02*
G37*
G36*
X137453Y162953D02*
X130547D01*
Y159784D01*
X130105Y159489D01*
X130105Y159489D01*
X123558Y152942D01*
X123116Y152280D01*
X122961Y151500D01*
Y119845D01*
X119655Y116539D01*
X109345D01*
X102461Y123423D01*
Y126461D01*
X96539D01*
Y120539D01*
X99577D01*
X107058Y113058D01*
X107720Y112616D01*
X108500Y112461D01*
X120500D01*
X121280Y112616D01*
X121942Y113058D01*
X126442Y117558D01*
X126884Y118220D01*
X127039Y119000D01*
Y150655D01*
X132392Y156008D01*
X132547D01*
X132744Y156047D01*
X137453D01*
Y162953D01*
D02*
G37*
G36*
X242467Y119551D02*
X242250D01*
Y116250D01*
X245551D01*
Y116467D01*
X245309Y117371D01*
X244842Y118181D01*
X244180Y118842D01*
X243371Y119309D01*
X242467Y119551D01*
D02*
G37*
G36*
X241750D02*
X241532D01*
X240629Y119309D01*
X239820Y118842D01*
X239158Y118181D01*
X238691Y117371D01*
X238449Y116467D01*
Y116250D01*
X241750D01*
Y119551D01*
D02*
G37*
G36*
X217377Y118799D02*
X217250D01*
Y116187D01*
X219862D01*
Y116314D01*
X219667Y117042D01*
X219290Y117694D01*
X218757Y118227D01*
X218105Y118604D01*
X217377Y118799D01*
D02*
G37*
G36*
X216750D02*
X216623D01*
X215895Y118604D01*
X215243Y118227D01*
X214710Y117694D01*
X214333Y117042D01*
X214138Y116314D01*
Y116187D01*
X216750D01*
Y118799D01*
D02*
G37*
G36*
X164455Y122953D02*
X163545D01*
X162667Y122717D01*
X161880Y122263D01*
X161237Y121620D01*
X160783Y120833D01*
X160547Y119955D01*
Y119045D01*
X160783Y118167D01*
X161237Y117380D01*
X161880Y116737D01*
X162667Y116282D01*
X163545Y116047D01*
X164455D01*
X165333Y116282D01*
X166120Y116737D01*
X166763Y117380D01*
X167218Y118167D01*
X167453Y119045D01*
Y119955D01*
X167218Y120833D01*
X166763Y121620D01*
X166120Y122263D01*
X165333Y122717D01*
X164455Y122953D01*
D02*
G37*
G36*
X134455D02*
X133545D01*
X132667Y122717D01*
X131880Y122263D01*
X131237Y121620D01*
X130782Y120833D01*
X130547Y119955D01*
Y119045D01*
X130782Y118167D01*
X131237Y117380D01*
X131880Y116737D01*
X132667Y116282D01*
X133545Y116047D01*
X134455D01*
X135333Y116282D01*
X136120Y116737D01*
X136763Y117380D01*
X137217Y118167D01*
X137453Y119045D01*
Y119955D01*
X137217Y120833D01*
X136763Y121620D01*
X136120Y122263D01*
X135333Y122717D01*
X134455Y122953D01*
D02*
G37*
G36*
X219862Y115687D02*
X217250D01*
Y113075D01*
X217377D01*
X218105Y113270D01*
X218757Y113647D01*
X219290Y114180D01*
X219667Y114832D01*
X219862Y115560D01*
Y115687D01*
D02*
G37*
G36*
X216750D02*
X214138D01*
Y115560D01*
X214333Y114832D01*
X214710Y114180D01*
X215243Y113647D01*
X215895Y113270D01*
X216623Y113075D01*
X216750D01*
Y115687D01*
D02*
G37*
G36*
X245551Y115750D02*
X242250D01*
Y112449D01*
X242467D01*
X243371Y112691D01*
X244180Y113158D01*
X244842Y113820D01*
X245309Y114629D01*
X245551Y115533D01*
Y115750D01*
D02*
G37*
G36*
X241750D02*
X238449D01*
Y115533D01*
X238691Y114629D01*
X239158Y113820D01*
X239820Y113158D01*
X240629Y112691D01*
X241532Y112449D01*
X241750D01*
Y115750D01*
D02*
G37*
G36*
X263205Y115622D02*
X258005D01*
X257195Y115515D01*
X256441Y115203D01*
X255794Y114706D01*
X255297Y114059D01*
X254984Y113304D01*
X254878Y112495D01*
X254984Y111686D01*
X255297Y110932D01*
X255794Y110284D01*
X256441Y109787D01*
X257195Y109475D01*
X258005Y109369D01*
X263205D01*
X264014Y109475D01*
X264768Y109787D01*
X265416Y110284D01*
X265913Y110932D01*
X266225Y111686D01*
X266332Y112495D01*
X266225Y113304D01*
X265913Y114059D01*
X265416Y114706D01*
X264768Y115203D01*
X264014Y115515D01*
X263205Y115622D01*
D02*
G37*
G36*
X180429Y115256D02*
X179571D01*
X178743Y115034D01*
X178001Y114605D01*
X177395Y113999D01*
X176966Y113257D01*
X176744Y112429D01*
Y111571D01*
X176966Y110743D01*
X177395Y110001D01*
X178001Y109395D01*
X178743Y108966D01*
X179571Y108744D01*
X180429D01*
X181257Y108966D01*
X181999Y109395D01*
X182605Y110001D01*
X183034Y110743D01*
X183256Y111571D01*
Y112429D01*
X183034Y113257D01*
X182605Y113999D01*
X181999Y114605D01*
X181257Y115034D01*
X180429Y115256D01*
D02*
G37*
G36*
X85461Y125461D02*
X79539D01*
Y122423D01*
X64155Y107039D01*
X53276D01*
Y107961D01*
X47354D01*
Y104923D01*
X39558Y97127D01*
X39116Y96465D01*
X38961Y95685D01*
Y86423D01*
X38820Y86342D01*
X38158Y85681D01*
X37691Y84871D01*
X37449Y83968D01*
Y83033D01*
X37691Y82129D01*
X38158Y81319D01*
X38820Y80658D01*
X39629Y80191D01*
X40532Y79949D01*
X41467D01*
X42371Y80191D01*
X43181Y80658D01*
X43842Y81319D01*
X44309Y82129D01*
X44551Y83033D01*
Y83968D01*
X44309Y84871D01*
X43842Y85681D01*
X43181Y86342D01*
X43039Y86423D01*
Y94840D01*
X50238Y102039D01*
X53276D01*
Y102961D01*
X65000D01*
X65780Y103116D01*
X66442Y103558D01*
X82423Y119539D01*
X85461D01*
Y125461D01*
D02*
G37*
G36*
X134455Y112953D02*
X133545D01*
X132667Y112717D01*
X131880Y112263D01*
X131237Y111620D01*
X130782Y110833D01*
X130547Y109955D01*
Y109045D01*
X130782Y108167D01*
X131237Y107380D01*
X131880Y106737D01*
X132667Y106282D01*
X133545Y106047D01*
X134455D01*
X135333Y106282D01*
X136120Y106737D01*
X136763Y107380D01*
X137217Y108167D01*
X137453Y109045D01*
Y109955D01*
X137217Y110833D01*
X136763Y111620D01*
X136120Y112263D01*
X135333Y112717D01*
X134455Y112953D01*
D02*
G37*
G36*
X219862Y110925D02*
X214138D01*
Y105201D01*
X219862D01*
Y110925D01*
D02*
G37*
G36*
X245551Y109551D02*
X238449D01*
Y102449D01*
X245551D01*
Y109551D01*
D02*
G37*
G36*
X112377Y104736D02*
X112250D01*
Y102124D01*
X114862D01*
Y102251D01*
X114667Y102979D01*
X114290Y103631D01*
X113757Y104164D01*
X113105Y104541D01*
X112377Y104736D01*
D02*
G37*
G36*
X111750D02*
X111623D01*
X110895Y104541D01*
X110243Y104164D01*
X109710Y103631D01*
X109333Y102979D01*
X109138Y102251D01*
Y102124D01*
X111750D01*
Y104736D01*
D02*
G37*
G36*
X90075Y107961D02*
X89295D01*
X88542Y107759D01*
X87867Y107369D01*
X87316Y106818D01*
X86926Y106143D01*
X86724Y105390D01*
Y104610D01*
X86926Y103857D01*
X87316Y103182D01*
X87867Y102631D01*
X88542Y102241D01*
X89295Y102039D01*
X90075D01*
X90828Y102241D01*
X91503Y102631D01*
X92054Y103182D01*
X92444Y103857D01*
X92646Y104610D01*
Y105390D01*
X92444Y106143D01*
X92054Y106818D01*
X91503Y107369D01*
X90828Y107759D01*
X90075Y107961D01*
D02*
G37*
G36*
X134455Y102953D02*
X134250D01*
Y99750D01*
X137453D01*
Y99955D01*
X137217Y100833D01*
X136763Y101620D01*
X136120Y102263D01*
X135333Y102717D01*
X134455Y102953D01*
D02*
G37*
G36*
X133750D02*
X133545D01*
X132667Y102717D01*
X131880Y102263D01*
X131237Y101620D01*
X130782Y100833D01*
X130547Y99955D01*
Y99750D01*
X133750D01*
Y102953D01*
D02*
G37*
G36*
X241500Y133039D02*
X178000D01*
X177220Y132884D01*
X176558Y132442D01*
X169859Y125743D01*
X169417Y125081D01*
X169262Y124301D01*
Y117645D01*
X164545Y112929D01*
X164455Y112953D01*
X163545D01*
X162667Y112717D01*
X161880Y112263D01*
X161237Y111620D01*
X160783Y110833D01*
X160547Y109955D01*
Y109045D01*
X160783Y108167D01*
X161237Y107380D01*
X161880Y106737D01*
X162667Y106282D01*
X163545Y106047D01*
X164455D01*
X165333Y106282D01*
X166120Y106737D01*
X166763Y107380D01*
X167218Y108167D01*
X167453Y109045D01*
Y109955D01*
X167429Y110045D01*
X172743Y115359D01*
X173185Y116020D01*
X173340Y116801D01*
Y123456D01*
X178845Y128961D01*
X240655D01*
X247461Y122155D01*
Y110500D01*
X247616Y109720D01*
X248058Y109058D01*
X254805Y102311D01*
X254934Y102225D01*
X254984Y101843D01*
X255297Y101089D01*
X255794Y100442D01*
X256441Y99945D01*
X257195Y99633D01*
X258005Y99526D01*
X263205D01*
X264014Y99633D01*
X264768Y99945D01*
X265416Y100442D01*
X265913Y101089D01*
X266225Y101843D01*
X266332Y102653D01*
X266225Y103462D01*
X265913Y104216D01*
X265416Y104864D01*
X264768Y105360D01*
X264014Y105673D01*
X263205Y105779D01*
X258005D01*
X257209Y105675D01*
X251539Y111345D01*
Y123000D01*
X251384Y123780D01*
X250942Y124442D01*
X242942Y132442D01*
X242280Y132884D01*
X241500Y133039D01*
D02*
G37*
G36*
X114862Y101624D02*
X112250D01*
Y99012D01*
X112377D01*
X113105Y99207D01*
X113757Y99584D01*
X114290Y100117D01*
X114667Y100769D01*
X114862Y101497D01*
Y101624D01*
D02*
G37*
G36*
X111750D02*
X109138D01*
Y101497D01*
X109333Y100769D01*
X109710Y100117D01*
X110243Y99584D01*
X110895Y99207D01*
X111623Y99012D01*
X111750D01*
Y101624D01*
D02*
G37*
G36*
X180429Y105256D02*
X179571D01*
X178743Y105034D01*
X178001Y104605D01*
X177395Y103999D01*
X176966Y103257D01*
X176744Y102429D01*
Y101571D01*
X176966Y100743D01*
X177395Y100001D01*
X178001Y99395D01*
X178743Y98966D01*
X179571Y98744D01*
X180429D01*
X181257Y98966D01*
X181999Y99395D01*
X182605Y100001D01*
X183034Y100743D01*
X183256Y101571D01*
Y102429D01*
X183034Y103257D01*
X182605Y103999D01*
X181999Y104605D01*
X181257Y105034D01*
X180429Y105256D01*
D02*
G37*
G36*
X196405Y103264D02*
X195595D01*
X194813Y103054D01*
X194112Y102649D01*
X193540Y102077D01*
X193135Y101376D01*
X192925Y100594D01*
Y99784D01*
X193135Y99002D01*
X193540Y98301D01*
X194112Y97729D01*
X194813Y97324D01*
X195595Y97114D01*
X196405D01*
X197187Y97324D01*
X197888Y97729D01*
X198460Y98301D01*
X198865Y99002D01*
X199075Y99784D01*
Y100594D01*
X198865Y101376D01*
X198460Y102077D01*
X197888Y102649D01*
X197187Y103054D01*
X196405Y103264D01*
D02*
G37*
G36*
X164455Y102953D02*
X163545D01*
X162667Y102717D01*
X161880Y102263D01*
X161237Y101620D01*
X160783Y100833D01*
X160547Y99955D01*
Y99045D01*
X160783Y98167D01*
X161237Y97380D01*
X161880Y96737D01*
X162667Y96283D01*
X163545Y96047D01*
X164455D01*
X165333Y96283D01*
X166120Y96737D01*
X166763Y97380D01*
X167218Y98167D01*
X167453Y99045D01*
Y99955D01*
X167218Y100833D01*
X166763Y101620D01*
X166120Y102263D01*
X165333Y102717D01*
X164455Y102953D01*
D02*
G37*
G36*
X137453Y99250D02*
X134250D01*
Y96047D01*
X134455D01*
X135333Y96283D01*
X136120Y96737D01*
X136763Y97380D01*
X137217Y98167D01*
X137453Y99045D01*
Y99250D01*
D02*
G37*
G36*
X133750D02*
X130547D01*
Y99045D01*
X130782Y98167D01*
X131237Y97380D01*
X131880Y96737D01*
X132667Y96283D01*
X133545Y96047D01*
X133750D01*
Y99250D01*
D02*
G37*
G36*
X114862Y96862D02*
X109138D01*
Y91138D01*
X114862D01*
Y96862D01*
D02*
G37*
G36*
X219377Y92862D02*
X218623D01*
X217895Y92667D01*
X217243Y92290D01*
X216710Y91757D01*
X216333Y91105D01*
X216138Y90377D01*
Y89623D01*
X216333Y88895D01*
X216710Y88243D01*
X217243Y87710D01*
X217895Y87333D01*
X218623Y87138D01*
X219377D01*
X220105Y87333D01*
X220757Y87710D01*
X221290Y88243D01*
X221667Y88895D01*
X221862Y89623D01*
Y90377D01*
X221667Y91105D01*
X221290Y91757D01*
X220757Y92290D01*
X220105Y92667D01*
X219377Y92862D01*
D02*
G37*
G36*
X202377Y92705D02*
X201623D01*
X200895Y92510D01*
X200243Y92133D01*
X199710Y91600D01*
X199333Y90947D01*
X199138Y90219D01*
Y89466D01*
X199333Y88738D01*
X199710Y88085D01*
X200243Y87552D01*
X200895Y87175D01*
X201623Y86980D01*
X202377D01*
X203105Y87175D01*
X203757Y87552D01*
X204290Y88085D01*
X204667Y88738D01*
X204862Y89466D01*
Y90219D01*
X204667Y90947D01*
X204290Y91600D01*
X203757Y92133D01*
X203105Y92510D01*
X202377Y92705D01*
D02*
G37*
G36*
X164455Y92953D02*
X163545D01*
X162667Y92717D01*
X161880Y92263D01*
X161237Y91620D01*
X160783Y90833D01*
X160547Y89955D01*
Y89045D01*
X160783Y88167D01*
X161237Y87380D01*
X161880Y86737D01*
X162667Y86283D01*
X163545Y86047D01*
X164455D01*
X165333Y86283D01*
X166120Y86737D01*
X166763Y87380D01*
X167218Y88167D01*
X167453Y89045D01*
Y89955D01*
X167218Y90833D01*
X166763Y91620D01*
X166120Y92263D01*
X165333Y92717D01*
X164455Y92953D01*
D02*
G37*
G36*
X134455D02*
X133545D01*
X132667Y92717D01*
X131880Y92263D01*
X131237Y91620D01*
X130782Y90833D01*
X130547Y89955D01*
Y89045D01*
X130782Y88167D01*
X131237Y87380D01*
X131880Y86737D01*
X132667Y86283D01*
X133545Y86047D01*
X134455D01*
X135333Y86283D01*
X136120Y86737D01*
X136763Y87380D01*
X137217Y88167D01*
X137453Y89045D01*
Y89955D01*
X137217Y90833D01*
X136763Y91620D01*
X136120Y92263D01*
X135333Y92717D01*
X134455Y92953D01*
D02*
G37*
G36*
X81467Y93051D02*
X80532D01*
X79629Y92809D01*
X78820Y92342D01*
X78158Y91681D01*
X77691Y90871D01*
X77449Y89968D01*
Y89033D01*
X77691Y88129D01*
X78158Y87319D01*
X78820Y86658D01*
X79629Y86191D01*
X80532Y85949D01*
X81467D01*
X82371Y86191D01*
X83180Y86658D01*
X83842Y87319D01*
X84309Y88129D01*
X84551Y89033D01*
Y89968D01*
X84309Y90871D01*
X83842Y91681D01*
X83180Y92342D01*
X82371Y92809D01*
X81467Y93051D01*
D02*
G37*
G36*
X54551Y87051D02*
X47449D01*
Y79949D01*
X54551D01*
Y87051D01*
D02*
G37*
G36*
X164455Y82953D02*
X164250D01*
Y79750D01*
X167453D01*
Y79955D01*
X167218Y80833D01*
X166763Y81620D01*
X166120Y82263D01*
X165333Y82717D01*
X164455Y82953D01*
D02*
G37*
G36*
X163750D02*
X163545D01*
X162667Y82717D01*
X161880Y82263D01*
X161237Y81620D01*
X160783Y80833D01*
X160547Y79955D01*
Y79750D01*
X163750D01*
Y82953D01*
D02*
G37*
G36*
X167453Y79250D02*
X164250D01*
Y76047D01*
X164455D01*
X165333Y76283D01*
X166120Y76737D01*
X166763Y77380D01*
X167218Y78167D01*
X167453Y79045D01*
Y79250D01*
D02*
G37*
G36*
X163750D02*
X160547D01*
Y79045D01*
X160783Y78167D01*
X161237Y77380D01*
X161880Y76737D01*
X162667Y76283D01*
X163545Y76047D01*
X163750D01*
Y79250D01*
D02*
G37*
G36*
X134455Y82953D02*
X133545D01*
X132667Y82717D01*
X131880Y82263D01*
X131237Y81620D01*
X130782Y80833D01*
X130547Y79955D01*
Y79045D01*
X130782Y78167D01*
X131237Y77380D01*
X131880Y76737D01*
X132667Y76283D01*
X133545Y76047D01*
X134455D01*
X135333Y76283D01*
X136120Y76737D01*
X136763Y77380D01*
X137217Y78167D01*
X137453Y79045D01*
Y79955D01*
X137217Y80833D01*
X136763Y81620D01*
X136120Y82263D01*
X135333Y82717D01*
X134455Y82953D01*
D02*
G37*
G36*
X81467Y83051D02*
X80532D01*
X79629Y82809D01*
X78820Y82342D01*
X78158Y81681D01*
X77691Y80871D01*
X77449Y79967D01*
Y79032D01*
X77691Y78129D01*
X78158Y77320D01*
X78820Y76658D01*
X79629Y76191D01*
X80532Y75949D01*
X81467D01*
X82371Y76191D01*
X83180Y76658D01*
X83842Y77320D01*
X84309Y78129D01*
X84551Y79032D01*
Y79967D01*
X84309Y80871D01*
X83842Y81681D01*
X83180Y82342D01*
X82371Y82809D01*
X81467Y83051D01*
D02*
G37*
G36*
X122313Y81248D02*
X121404D01*
X120526Y81013D01*
X119738Y80558D01*
X119095Y79915D01*
X118641Y79128D01*
X118405Y78250D01*
Y77341D01*
X118641Y76463D01*
X119095Y75675D01*
X119738Y75032D01*
X120526Y74578D01*
X121404Y74342D01*
X122313D01*
X123191Y74578D01*
X123978Y75032D01*
X124621Y75675D01*
X125076Y76463D01*
X125311Y77341D01*
Y78250D01*
X125076Y79128D01*
X124621Y79915D01*
X123978Y80558D01*
X123191Y81013D01*
X122313Y81248D01*
D02*
G37*
G36*
X104596D02*
X103687D01*
X102809Y81013D01*
X102022Y80558D01*
X101379Y79915D01*
X100924Y79128D01*
X100689Y78250D01*
Y77341D01*
X100924Y76463D01*
X101379Y75675D01*
X102022Y75032D01*
X102809Y74578D01*
X103687Y74342D01*
X104596D01*
X105474Y74578D01*
X106262Y75032D01*
X106905Y75675D01*
X107359Y76463D01*
X107595Y77341D01*
Y78250D01*
X107359Y79128D01*
X106905Y79915D01*
X106262Y80558D01*
X105474Y81013D01*
X104596Y81248D01*
D02*
G37*
G36*
X125000Y97539D02*
X124220Y97384D01*
X123558Y96942D01*
X113655Y87039D01*
X96500D01*
X95720Y86884D01*
X95058Y86442D01*
X81625Y73009D01*
X81467Y73051D01*
X80532D01*
X79629Y72809D01*
X78820Y72342D01*
X78158Y71680D01*
X77691Y70871D01*
X77449Y69968D01*
Y69033D01*
X77691Y68129D01*
X78158Y67320D01*
X78820Y66658D01*
X79629Y66191D01*
X80532Y65949D01*
X81467D01*
X82371Y66191D01*
X83180Y66658D01*
X83842Y67320D01*
X84309Y68129D01*
X84551Y69033D01*
Y69968D01*
X84509Y70125D01*
X97345Y82961D01*
X114500D01*
X115280Y83116D01*
X115942Y83558D01*
X126442Y94058D01*
X126884Y94720D01*
X127039Y95500D01*
X126884Y96280D01*
X126442Y96942D01*
X125780Y97384D01*
X125000Y97539D01*
D02*
G37*
G36*
X41467Y77051D02*
X40532D01*
X39629Y76809D01*
X38820Y76342D01*
X38158Y75681D01*
X37691Y74871D01*
X37449Y73967D01*
Y73032D01*
X37691Y72129D01*
X38158Y71320D01*
X38820Y70658D01*
X39629Y70191D01*
X40532Y69949D01*
X41467D01*
X42371Y70191D01*
X43181Y70658D01*
X43842Y71320D01*
X44309Y72129D01*
X44551Y73032D01*
Y73967D01*
X44309Y74871D01*
X43842Y75681D01*
X43181Y76342D01*
X42371Y76809D01*
X41467Y77051D01*
D02*
G37*
G36*
X181377Y83969D02*
X180623D01*
X179895Y83774D01*
X179243Y83397D01*
X178710Y82864D01*
X178333Y82211D01*
X178138Y81483D01*
Y80730D01*
X178333Y80002D01*
X178710Y79349D01*
X179243Y78816D01*
X179895Y78439D01*
X180623Y78244D01*
X181377D01*
X182105Y78439D01*
X182757Y78816D01*
X183009Y79067D01*
X207364D01*
X216138Y70293D01*
Y67453D01*
X221862D01*
Y73177D01*
X219022D01*
X209650Y82548D01*
X208989Y82990D01*
X208208Y83146D01*
X183009D01*
X182757Y83397D01*
X182105Y83774D01*
X181377Y83969D01*
D02*
G37*
G36*
X134455Y72953D02*
X133545D01*
X132667Y72717D01*
X131880Y72263D01*
X131237Y71620D01*
X130782Y70833D01*
X130547Y69955D01*
Y69045D01*
X130782Y68167D01*
X131237Y67380D01*
X131880Y66737D01*
X132667Y66283D01*
X133545Y66047D01*
X134455D01*
X135333Y66283D01*
X136120Y66737D01*
X136763Y67380D01*
X137217Y68167D01*
X137453Y69045D01*
Y69955D01*
X137217Y70833D01*
X136763Y71620D01*
X136120Y72263D01*
X135333Y72717D01*
X134455Y72953D01*
D02*
G37*
G36*
X204862Y73020D02*
X199138D01*
Y70179D01*
X192892Y63933D01*
X183009D01*
X182757Y64184D01*
X182105Y64561D01*
X181377Y64756D01*
X180623D01*
X179895Y64561D01*
X179243Y64184D01*
X178710Y63651D01*
X178333Y62999D01*
X178138Y62271D01*
Y61517D01*
X178333Y60789D01*
X178710Y60136D01*
X179243Y59604D01*
X179895Y59227D01*
X180623Y59032D01*
X181377D01*
X182105Y59227D01*
X182757Y59604D01*
X183009Y59855D01*
X193736D01*
X194517Y60010D01*
X195178Y60452D01*
X202022Y67295D01*
X204862D01*
Y73020D01*
D02*
G37*
G36*
X51468Y67051D02*
X50533D01*
X49629Y66809D01*
X48820Y66342D01*
X48158Y65680D01*
X47691Y64871D01*
X47449Y63968D01*
Y63033D01*
X47691Y62129D01*
X48158Y61320D01*
X48820Y60658D01*
X49629Y60191D01*
X50533Y59949D01*
X51468D01*
X52371Y60191D01*
X53180Y60658D01*
X53842Y61320D01*
X54309Y62129D01*
X54551Y63033D01*
Y63968D01*
X54309Y64871D01*
X53842Y65680D01*
X53180Y66342D01*
X52371Y66809D01*
X51468Y67051D01*
D02*
G37*
G36*
X41467D02*
X40532D01*
X39629Y66809D01*
X38820Y66342D01*
X38158Y65680D01*
X37691Y64871D01*
X37449Y63968D01*
Y63033D01*
X37691Y62129D01*
X38158Y61320D01*
X38820Y60658D01*
X39629Y60191D01*
X40532Y59949D01*
X41467D01*
X42371Y60191D01*
X43181Y60658D01*
X43842Y61320D01*
X44309Y62129D01*
X44551Y63033D01*
Y63968D01*
X44309Y64871D01*
X43842Y65680D01*
X43181Y66342D01*
X42371Y66809D01*
X41467Y67051D01*
D02*
G37*
G36*
X134455Y62953D02*
X133545D01*
X132667Y62717D01*
X131880Y62263D01*
X131237Y61620D01*
X130782Y60833D01*
X130547Y59955D01*
Y59045D01*
X130782Y58167D01*
X131237Y57380D01*
X131880Y56737D01*
X132667Y56283D01*
X133545Y56047D01*
X134455D01*
X135333Y56283D01*
X136120Y56737D01*
X136763Y57380D01*
X137217Y58167D01*
X137453Y59045D01*
Y59955D01*
X137217Y60833D01*
X136763Y61620D01*
X136120Y62263D01*
X135333Y62717D01*
X134455Y62953D01*
D02*
G37*
G36*
X81467Y63051D02*
X80532D01*
X79629Y62809D01*
X78820Y62342D01*
X78158Y61681D01*
X77691Y60871D01*
X77449Y59967D01*
Y59032D01*
X77691Y58129D01*
X78158Y57319D01*
X78820Y56658D01*
X79629Y56191D01*
X80532Y55949D01*
X81467D01*
X82371Y56191D01*
X83180Y56658D01*
X83842Y57319D01*
X84309Y58129D01*
X84551Y59032D01*
Y59967D01*
X84309Y60871D01*
X83842Y61681D01*
X83180Y62342D01*
X82371Y62809D01*
X81467Y63051D01*
D02*
G37*
G36*
X51468Y77051D02*
X50533D01*
X49629Y76809D01*
X48820Y76342D01*
X48158Y75681D01*
X47691Y74871D01*
X47449Y73967D01*
Y73032D01*
X47691Y72129D01*
X48158Y71320D01*
X48820Y70658D01*
X49629Y70191D01*
X50533Y69949D01*
X51468D01*
X51625Y69991D01*
X62961Y58655D01*
Y52000D01*
X63116Y51220D01*
X63558Y50558D01*
X64220Y50116D01*
X65000Y49961D01*
X65780Y50116D01*
X66442Y50558D01*
X66884Y51220D01*
X67039Y52000D01*
Y59500D01*
X66884Y60280D01*
X66442Y60942D01*
X54509Y72875D01*
X54551Y73032D01*
Y73967D01*
X54309Y74871D01*
X53842Y75681D01*
X53180Y76342D01*
X52371Y76809D01*
X51468Y77051D01*
D02*
G37*
G36*
Y57051D02*
X50533D01*
X49629Y56809D01*
X48820Y56342D01*
X48158Y55681D01*
X47691Y54871D01*
X47449Y53967D01*
Y53032D01*
X47691Y52129D01*
X48158Y51319D01*
X48820Y50658D01*
X49629Y50191D01*
X50533Y49949D01*
X51468D01*
X52371Y50191D01*
X53180Y50658D01*
X53842Y51319D01*
X54309Y52129D01*
X54551Y53032D01*
Y53967D01*
X54309Y54871D01*
X53842Y55681D01*
X53180Y56342D01*
X52371Y56809D01*
X51468Y57051D01*
D02*
G37*
G36*
X41467D02*
X40532D01*
X39629Y56809D01*
X38820Y56342D01*
X38158Y55681D01*
X37691Y54871D01*
X37449Y53967D01*
Y53032D01*
X37691Y52129D01*
X38158Y51319D01*
X38820Y50658D01*
X39629Y50191D01*
X40532Y49949D01*
X41467D01*
X42371Y50191D01*
X43181Y50658D01*
X43842Y51319D01*
X44309Y52129D01*
X44551Y53032D01*
Y53967D01*
X44309Y54871D01*
X43842Y55681D01*
X43181Y56342D01*
X42371Y56809D01*
X41467Y57051D01*
D02*
G37*
G36*
X122313Y55658D02*
X121404D01*
X120526Y55422D01*
X119738Y54968D01*
X119095Y54325D01*
X118641Y53537D01*
X118405Y52659D01*
Y51750D01*
X118641Y50872D01*
X119095Y50085D01*
X119738Y49442D01*
X120526Y48987D01*
X121404Y48752D01*
X122313D01*
X123191Y48987D01*
X123978Y49442D01*
X124621Y50085D01*
X125076Y50872D01*
X125311Y51750D01*
Y52659D01*
X125076Y53537D01*
X124621Y54325D01*
X123978Y54968D01*
X123191Y55422D01*
X122313Y55658D01*
D02*
G37*
G36*
X107595D02*
X100689D01*
Y48752D01*
X107595D01*
Y55658D01*
D02*
G37*
G36*
X81467Y53051D02*
X80532D01*
X79629Y52809D01*
X78820Y52342D01*
X78158Y51680D01*
X77691Y50871D01*
X77449Y49968D01*
Y49033D01*
X77691Y48129D01*
X78158Y47319D01*
X78820Y46658D01*
X79629Y46191D01*
X80532Y45949D01*
X81467D01*
X82371Y46191D01*
X83180Y46658D01*
X83842Y47319D01*
X83923Y47461D01*
X87655D01*
X92058Y43058D01*
X92720Y42616D01*
X93500Y42461D01*
X128214D01*
X128994Y42616D01*
X129656Y43058D01*
X132835Y46238D01*
X133545Y46047D01*
X134455D01*
X135333Y46283D01*
X136120Y46737D01*
X136763Y47380D01*
X137217Y48167D01*
X137453Y49045D01*
Y49955D01*
X137217Y50833D01*
X136763Y51620D01*
X136120Y52263D01*
X135333Y52717D01*
X134455Y52953D01*
X133545D01*
X132667Y52717D01*
X131880Y52263D01*
X131237Y51620D01*
X130782Y50833D01*
X130547Y49955D01*
Y49717D01*
X127369Y46539D01*
X94345D01*
X89942Y50942D01*
X89280Y51384D01*
X88500Y51539D01*
X83923D01*
X83842Y51680D01*
X83180Y52342D01*
X82371Y52809D01*
X81467Y53051D01*
D02*
G37*
G36*
X84551Y43051D02*
X77449D01*
Y35949D01*
X84551D01*
Y37461D01*
X131190D01*
X131237Y37380D01*
X131880Y36737D01*
X132667Y36283D01*
X133545Y36047D01*
X134455D01*
X135333Y36283D01*
X136120Y36737D01*
X136763Y37380D01*
X137217Y38167D01*
X137453Y39045D01*
Y39955D01*
X137217Y40833D01*
X136763Y41620D01*
X136120Y42263D01*
X135333Y42717D01*
X134455Y42953D01*
X133545D01*
X132667Y42717D01*
X131880Y42263D01*
X131237Y41620D01*
X131190Y41539D01*
X84551D01*
Y43051D01*
D02*
G37*
G36*
X164455Y72953D02*
X163545D01*
X162667Y72717D01*
X161880Y72263D01*
X161237Y71620D01*
X160783Y70833D01*
X160547Y69955D01*
Y69045D01*
X160783Y68167D01*
X161237Y67380D01*
X161880Y66737D01*
X162667Y66283D01*
X163545Y66047D01*
X163716D01*
X164011Y65605D01*
X177058Y52558D01*
X177720Y52116D01*
X178500Y51961D01*
X228155D01*
X244949Y35167D01*
Y30949D01*
X252051D01*
Y38051D01*
X247833D01*
X230442Y55442D01*
X229780Y55884D01*
X229000Y56039D01*
X179345D01*
X167325Y68059D01*
X167227Y68205D01*
X167453Y69045D01*
Y69955D01*
X167218Y70833D01*
X166763Y71620D01*
X166120Y72263D01*
X165333Y72717D01*
X164455Y72953D01*
D02*
G37*
G36*
Y62953D02*
X163545D01*
X162667Y62717D01*
X161880Y62263D01*
X161237Y61620D01*
X160783Y60833D01*
X160547Y59955D01*
Y59045D01*
X160783Y58167D01*
X161237Y57380D01*
X161880Y56737D01*
X162667Y56283D01*
X163545Y56047D01*
X164455D01*
X164545Y56071D01*
X174558Y46058D01*
X175220Y45616D01*
X176000Y45461D01*
X224655D01*
X234991Y35125D01*
X234949Y34967D01*
Y34032D01*
X235191Y33129D01*
X235658Y32320D01*
X236319Y31658D01*
X237129Y31191D01*
X238033Y30949D01*
X238967D01*
X239871Y31191D01*
X240681Y31658D01*
X241342Y32320D01*
X241809Y33129D01*
X242051Y34032D01*
Y34967D01*
X241809Y35871D01*
X241342Y36680D01*
X240681Y37342D01*
X239871Y37809D01*
X238967Y38051D01*
X238033D01*
X237875Y38009D01*
X226942Y48942D01*
X226280Y49384D01*
X225500Y49539D01*
X176845D01*
X167429Y58955D01*
X167453Y59045D01*
Y59955D01*
X167218Y60833D01*
X166763Y61620D01*
X166120Y62263D01*
X165333Y62717D01*
X164455Y62953D01*
D02*
G37*
G36*
Y52953D02*
X163545D01*
X162667Y52717D01*
X161880Y52263D01*
X161237Y51620D01*
X160783Y50833D01*
X160547Y49955D01*
Y49045D01*
X160783Y48167D01*
X161237Y47380D01*
X161880Y46737D01*
X162667Y46283D01*
X163545Y46047D01*
X164455D01*
X164545Y46071D01*
X170058Y40558D01*
X170720Y40116D01*
X171500Y39961D01*
X220155D01*
X224991Y35125D01*
X224949Y34967D01*
Y34032D01*
X225191Y33129D01*
X225658Y32320D01*
X226320Y31658D01*
X227129Y31191D01*
X228032Y30949D01*
X228967D01*
X229871Y31191D01*
X230680Y31658D01*
X231342Y32320D01*
X231809Y33129D01*
X232051Y34032D01*
Y34967D01*
X231809Y35871D01*
X231342Y36680D01*
X230680Y37342D01*
X229871Y37809D01*
X228967Y38051D01*
X228032D01*
X227875Y38009D01*
X222442Y43442D01*
X221780Y43884D01*
X221000Y44039D01*
X172345D01*
X167429Y48955D01*
X167453Y49045D01*
Y49955D01*
X167218Y50833D01*
X166763Y51620D01*
X166120Y52263D01*
X165333Y52717D01*
X164455Y52953D01*
D02*
G37*
G36*
X208967Y38051D02*
X208032D01*
X207129Y37809D01*
X206319Y37342D01*
X205658Y36680D01*
X205191Y35871D01*
X204949Y34967D01*
Y34032D01*
X205191Y33129D01*
X205658Y32320D01*
X206319Y31658D01*
X207129Y31191D01*
X208032Y30949D01*
X208967D01*
X209871Y31191D01*
X210681Y31658D01*
X211342Y32320D01*
X211809Y33129D01*
X212051Y34032D01*
Y34967D01*
X211809Y35871D01*
X211342Y36680D01*
X210681Y37342D01*
X209871Y37809D01*
X208967Y38051D01*
D02*
G37*
G36*
X198968D02*
X198032D01*
X197129Y37809D01*
X196319Y37342D01*
X195658Y36680D01*
X195191Y35871D01*
X194949Y34967D01*
Y34032D01*
X195191Y33129D01*
X195658Y32320D01*
X196319Y31658D01*
X197129Y31191D01*
X198032Y30949D01*
X198968D01*
X199871Y31191D01*
X200680Y31658D01*
X201342Y32320D01*
X201809Y33129D01*
X202051Y34032D01*
Y34967D01*
X201809Y35871D01*
X201342Y36680D01*
X200680Y37342D01*
X199871Y37809D01*
X198968Y38051D01*
D02*
G37*
G36*
X164455Y32953D02*
X163545D01*
X162667Y32717D01*
X161880Y32263D01*
X161237Y31620D01*
X160783Y30833D01*
X160547Y29955D01*
Y29045D01*
X160783Y28167D01*
X161237Y27380D01*
X161880Y26737D01*
X162667Y26283D01*
X163545Y26047D01*
X164455D01*
X165333Y26283D01*
X166120Y26737D01*
X166763Y27380D01*
X167218Y28167D01*
X167453Y29045D01*
Y29955D01*
X167218Y30833D01*
X166763Y31620D01*
X166120Y32263D01*
X165333Y32717D01*
X164455Y32953D01*
D02*
G37*
G36*
X134455D02*
X133545D01*
X132667Y32717D01*
X131880Y32263D01*
X131237Y31620D01*
X130782Y30833D01*
X130547Y29955D01*
Y29045D01*
X130782Y28167D01*
X131237Y27380D01*
X131880Y26737D01*
X132667Y26283D01*
X133545Y26047D01*
X134455D01*
X135333Y26283D01*
X136120Y26737D01*
X136763Y27380D01*
X137217Y28167D01*
X137453Y29045D01*
Y29955D01*
X137217Y30833D01*
X136763Y31620D01*
X136120Y32263D01*
X135333Y32717D01*
X134455Y32953D01*
D02*
G37*
G36*
X164455Y42953D02*
X163545D01*
X162667Y42717D01*
X161880Y42263D01*
X161237Y41620D01*
X160783Y40833D01*
X160547Y39955D01*
Y39045D01*
X160783Y38167D01*
X161237Y37380D01*
X161880Y36737D01*
X162667Y36283D01*
X163545Y36047D01*
X164455D01*
X164545Y36071D01*
X179058Y21558D01*
X179720Y21116D01*
X180500Y20961D01*
X212000D01*
X212780Y21116D01*
X213442Y21558D01*
X219942Y28058D01*
X220384Y28720D01*
X220539Y29500D01*
Y31577D01*
X220680Y31658D01*
X221342Y32320D01*
X221809Y33129D01*
X222051Y34032D01*
Y34967D01*
X221809Y35871D01*
X221342Y36680D01*
X220680Y37342D01*
X219871Y37809D01*
X218968Y38051D01*
X218033D01*
X217129Y37809D01*
X216319Y37342D01*
X215658Y36680D01*
X215191Y35871D01*
X214949Y34967D01*
Y34032D01*
X215191Y33129D01*
X215658Y32320D01*
X216319Y31658D01*
X216461Y31577D01*
Y30345D01*
X211155Y25039D01*
X181345D01*
X167429Y38955D01*
X167453Y39045D01*
Y39955D01*
X167218Y40833D01*
X166763Y41620D01*
X166120Y42263D01*
X165333Y42717D01*
X164455Y42953D01*
D02*
G37*
G36*
X268717Y21784D02*
X267283D01*
X265875Y21504D01*
X264550Y20955D01*
X263357Y20158D01*
X262342Y19143D01*
X261545Y17950D01*
X260996Y16625D01*
X260716Y15217D01*
Y13783D01*
X260996Y12375D01*
X261545Y11050D01*
X262342Y9857D01*
X263357Y8842D01*
X264550Y8045D01*
X265875Y7496D01*
X267283Y7216D01*
X268717D01*
X270125Y7496D01*
X271450Y8045D01*
X272643Y8842D01*
X273658Y9857D01*
X274455Y11050D01*
X275004Y12375D01*
X275284Y13783D01*
Y15217D01*
X275004Y16625D01*
X274455Y17950D01*
X273658Y19143D01*
X272643Y20158D01*
X271450Y20955D01*
X270125Y21504D01*
X268717Y21784D01*
D02*
G37*
G36*
X15217D02*
X13783D01*
X12375Y21504D01*
X11050Y20955D01*
X9857Y20158D01*
X8842Y19143D01*
X8045Y17950D01*
X7496Y16625D01*
X7216Y15217D01*
Y13783D01*
X7496Y12375D01*
X8045Y11050D01*
X8842Y9857D01*
X9857Y8842D01*
X11050Y8045D01*
X12375Y7496D01*
X13783Y7216D01*
X15217D01*
X16625Y7496D01*
X17950Y8045D01*
X19143Y8842D01*
X20158Y9857D01*
X20955Y11050D01*
X21504Y12375D01*
X21784Y13783D01*
Y15217D01*
X21504Y16625D01*
X20955Y17950D01*
X20158Y19143D01*
X19143Y20158D01*
X17950Y20955D01*
X16625Y21504D01*
X15217Y21784D01*
D02*
G37*
%LPD*%
D21*
X189500Y145563D02*
D03*
X112000Y101874D02*
D03*
X181000Y61894D02*
D03*
Y81106D02*
D03*
X219000Y90000D02*
D03*
X36500Y147000D02*
D03*
X40500Y124000D02*
D03*
X202000Y89842D02*
D03*
X217000Y115937D02*
D03*
D22*
X189500Y153437D02*
D03*
X112000Y94000D02*
D03*
X219000Y70315D02*
D03*
X36500Y154874D02*
D03*
X202000Y70157D02*
D03*
X217000Y108063D02*
D03*
D23*
X261000Y143500D02*
D03*
Y153500D02*
D03*
D31*
X117000Y162870D02*
D03*
X99500D02*
D03*
X82500Y161870D02*
D03*
X89685Y105000D02*
D03*
D32*
X117000Y123500D02*
D03*
X99500D02*
D03*
X82500Y122500D02*
D03*
D35*
X32626Y124000D02*
D03*
D36*
X50315Y105000D02*
D03*
D41*
X208208Y81106D02*
X219000Y70315D01*
X181000Y81106D02*
X208208D01*
X193736Y61894D02*
X202000Y70157D01*
X181000Y61894D02*
X193736D01*
X241500Y131000D02*
X249500Y123000D01*
X178000Y131000D02*
X241500D01*
X249500Y110500D02*
Y123000D01*
X171301Y116801D02*
Y124301D01*
X178000Y131000D01*
X257409Y102653D02*
X260605D01*
X256247Y103753D02*
X256309D01*
X257409Y102653D01*
X249500Y110500D02*
X256247Y103753D01*
X167743Y173757D02*
X172500Y169000D01*
X166453Y140953D02*
X172500Y147000D01*
Y169000D01*
X164000Y139500D02*
X164786D01*
X166239Y140953D01*
X166453D01*
X114350Y173757D02*
X167743D01*
X164000Y109500D02*
X171301Y116801D01*
X128214Y44500D02*
X133214Y49500D01*
X88500D02*
X93500Y44500D01*
X128214D01*
X81000Y39500D02*
X134000D01*
X81000Y49500D02*
X88500D01*
X96500Y85000D02*
X114500D01*
X81000Y69500D02*
X96500Y85000D01*
X114500D02*
X125000Y95500D01*
X65000Y52000D02*
Y59500D01*
X51000Y73500D02*
X65000Y59500D01*
X164000D02*
X176000Y47500D01*
X225500D02*
X238500Y34500D01*
X176000Y47500D02*
X225500D01*
X164000Y49500D02*
X171500Y42000D01*
X221000D02*
X228500Y34500D01*
X171500Y42000D02*
X221000D01*
X180500Y23000D02*
X212000D01*
X218500Y29500D02*
Y34500D01*
X212000Y23000D02*
X218500Y29500D01*
X164000Y39500D02*
X180500Y23000D01*
X164000Y68714D02*
Y69500D01*
Y68714D02*
X165453Y67261D01*
Y67047D02*
Y67261D01*
Y67047D02*
X178500Y54000D01*
X229000D01*
X248500Y34500D01*
X125000Y119000D02*
Y151500D01*
X132547Y158047D02*
X134000Y159500D01*
X131547Y158047D02*
X132547D01*
X125000Y151500D02*
X131547Y158047D01*
X120500Y114500D02*
X125000Y119000D01*
X108500Y114500D02*
X120500D01*
X99500Y123500D02*
X108500Y114500D01*
X107210Y166617D02*
X114350Y173757D01*
X107210Y133290D02*
Y166617D01*
Y133290D02*
X117000Y123500D01*
X36500Y147000D02*
X41500Y142000D01*
X60500D01*
X51000Y53500D02*
Y54339D01*
X50315Y105000D02*
X65000D01*
X82500Y122500D01*
X41000Y83500D02*
Y95685D01*
X50315Y105000D01*
X133214Y49500D02*
X134000D01*
D42*
X235795Y142142D02*
D03*
X134000Y159500D02*
D03*
D43*
X235795Y159858D02*
D03*
X210205D02*
D03*
Y142142D02*
D03*
X134000Y149500D02*
D03*
Y139500D02*
D03*
Y129500D02*
D03*
Y119500D02*
D03*
Y109500D02*
D03*
Y99500D02*
D03*
Y89500D02*
D03*
Y79500D02*
D03*
Y69500D02*
D03*
Y59500D02*
D03*
Y49500D02*
D03*
Y39500D02*
D03*
Y29500D02*
D03*
X164000Y159500D02*
D03*
Y149500D02*
D03*
Y139500D02*
D03*
Y129500D02*
D03*
Y119500D02*
D03*
Y109500D02*
D03*
Y99500D02*
D03*
Y89500D02*
D03*
Y79500D02*
D03*
Y69500D02*
D03*
Y59500D02*
D03*
Y49500D02*
D03*
Y39500D02*
D03*
Y29500D02*
D03*
X121858Y52205D02*
D03*
Y77795D02*
D03*
X104142D02*
D03*
D44*
X260605Y102653D02*
D03*
Y112495D02*
D03*
Y122338D02*
D03*
D45*
X81000Y39500D02*
D03*
X51000Y83500D02*
D03*
X242000Y106000D02*
D03*
D46*
X81000Y49500D02*
D03*
Y89500D02*
D03*
Y79500D02*
D03*
Y69500D02*
D03*
Y59500D02*
D03*
X51000Y73500D02*
D03*
Y63500D02*
D03*
Y53500D02*
D03*
X41000Y83500D02*
D03*
Y73500D02*
D03*
Y63500D02*
D03*
Y53500D02*
D03*
X242000Y116000D02*
D03*
X228500Y34500D02*
D03*
X218500D02*
D03*
X208500D02*
D03*
X198500D02*
D03*
X238500D02*
D03*
D47*
X268000Y180500D02*
D03*
Y14500D02*
D03*
X14500D02*
D03*
Y180500D02*
D03*
D48*
X180000Y122000D02*
D03*
D49*
Y112000D02*
D03*
Y102000D02*
D03*
D50*
X60500Y132000D02*
D03*
Y142000D02*
D03*
D51*
Y152000D02*
D03*
D52*
X248500Y34500D02*
D03*
D53*
X104142Y52205D02*
D03*
D54*
X196000Y100189D02*
D03*
Y123811D02*
D03*
D55*
X65000Y52000D02*
D03*
X125000Y95500D02*
D03*
M02*
