G04*
G04 #@! TF.GenerationSoftware,Altium Limited,Altium Designer,23.1.1 (15)*
G04*
G04 Layer_Color=0*
%FSLAX25Y25*%
%MOIN*%
G70*
G04*
G04 #@! TF.SameCoordinates,7FBAD907-ECE7-4216-98B3-75AA29109797*
G04*
G04*
G04 #@! TF.FilePolarity,Positive*
G04*
G01*
G75*
%ADD56C,0.00394*%
D56*
X187531Y149500D02*
X191469D01*
X189500Y147531D02*
Y151469D01*
X261000Y146532D02*
Y150469D01*
X259032Y148500D02*
X262969D01*
X112000Y95969D02*
Y99906D01*
X110031Y97937D02*
X113969D01*
X217032Y80157D02*
X220969D01*
X219000Y78189D02*
Y82126D01*
X115032Y143185D02*
X118969D01*
X117000Y141217D02*
Y145154D01*
X97532Y143185D02*
X101469D01*
X99500Y141217D02*
Y145154D01*
X80532Y142185D02*
X84469D01*
X82500Y140217D02*
Y144154D01*
X34532Y150937D02*
X38469D01*
X36500Y148969D02*
Y152905D01*
X36563Y122031D02*
Y125969D01*
X34595Y124000D02*
X38532D01*
X70000Y103032D02*
Y106969D01*
X68032Y105000D02*
X71969D01*
X200032Y80000D02*
X203969D01*
X202000Y78031D02*
Y81968D01*
X217000Y110032D02*
Y113969D01*
X215031Y112000D02*
X218968D01*
M02*
