M48
;Layer_Color=9474304
;FILE_FORMAT=2:4
INCH,TZ
;TYPE=PLATED
T1F00S00C0.0118
T2F00S00C0.0276
T3F00S00C0.0295
T4F00S00C0.0315
T5F00S00C0.0320
T6F00S00C0.0339
T7F00S00C0.0354
T8F00S00C0.0390
T9F00S00C0.0394
T10F00S00C0.0402
T11F00S00C0.0409
T12F00S00C0.1260
%
T01
X6500Y5200
X12500Y9550
T02
X21900Y7031
X20200Y7016
X18100Y6189
Y8111
X4050Y12400
X3263
X3650Y14700
Y15487
X11200Y10187
Y9400
X20200Y8984
X18950Y14556
Y15344
X21700Y11594
Y10806
X21900Y9000
T03
X5031Y10500
X8968
X8250Y12250
X9950Y12350
X11700
Y16287
X9950
X8250Y16187
T04
X19600Y10019
Y12381
T05
X26060Y10265
Y11250
Y12234
T06
X18000Y10200
Y11200
Y12200
T07
X13400Y2950
Y3950
Y4950
Y5950
Y6950
Y7950
X16400
Y6950
Y5950
Y4950
Y3950
Y2950
Y8950
Y9950
Y10950
Y11950
Y12950
Y13950
Y14950
Y15950
X13400
Y14950
Y13950
Y12950
Y11950
Y10950
Y9950
Y8950
T08
X10414Y5220
X12186
Y7780
X10414
X21020Y14214
Y15986
X23580
Y14214
T09
X6050Y13200
Y14200
Y15200
X26100Y15350
Y14350
T10
X21850Y3450
X22850
X23850
X24850
X20850
X19850
X8100Y3950
Y4950
Y5950
Y6950
Y7950
Y8950
T11
X4100Y5350
X5100
Y6350
Y7350
Y8350
X4100
Y7350
Y6350
X24200Y10600
Y11600
T12
X26800Y1450
X1450
Y18050
X26800
M30
