G04*
G04 #@! TF.GenerationSoftware,Altium Limited,Altium Designer,23.1.1 (15)*
G04*
G04 Layer_Color=128*
%FSLAX25Y25*%
%MOIN*%
G70*
G04*
G04 #@! TF.SameCoordinates,7FBAD907-ECE7-4216-98B3-75AA29109797*
G04*
G04*
G04 #@! TF.FilePolarity,Positive*
G04*
G01*
G75*
%ADD12C,0.00500*%
D12*
X233846Y142142D02*
X237744D01*
X235795Y140193D02*
Y144090D01*
X233846Y159858D02*
X237744D01*
X235795Y157909D02*
Y161807D01*
X208256Y159858D02*
X212154D01*
X210205Y157909D02*
Y161807D01*
X208256Y142142D02*
X212154D01*
X210205Y140193D02*
Y144090D01*
X188122Y145563D02*
X190878D01*
X189500Y144185D02*
Y146941D01*
X188122Y153437D02*
X190878D01*
X189500Y152059D02*
Y154815D01*
X259032Y143500D02*
X262968D01*
X261000Y141532D02*
Y145468D01*
X259032Y153500D02*
X262968D01*
X261000Y151532D02*
Y155468D01*
X259005Y102653D02*
X262205D01*
X260605Y101053D02*
Y104253D01*
X259005Y112495D02*
X262205D01*
X260605Y110895D02*
Y114095D01*
X259005Y122338D02*
X262205D01*
X260605Y120738D02*
Y123938D01*
X110622Y94000D02*
X113378D01*
X112000Y92622D02*
Y95378D01*
X110622Y101874D02*
X113378D01*
X112000Y100496D02*
Y103252D01*
X78992Y39500D02*
X83008D01*
X81000Y37492D02*
Y41508D01*
X78992Y49500D02*
X83008D01*
X81000Y47492D02*
Y51508D01*
X78992Y89500D02*
X83008D01*
X81000Y87492D02*
Y91508D01*
X78992Y79500D02*
X83008D01*
X81000Y77492D02*
Y81508D01*
X78992Y69500D02*
X83008D01*
X81000Y67492D02*
Y71508D01*
X78992Y59500D02*
X83008D01*
X81000Y57492D02*
Y61508D01*
X179622Y61894D02*
X182378D01*
X181000Y60516D02*
Y63272D01*
X179622Y81106D02*
X182378D01*
X181000Y79728D02*
Y82484D01*
X132228Y159500D02*
X135772D01*
X134000Y157728D02*
Y161272D01*
X132228Y149500D02*
X135772D01*
X134000Y147728D02*
Y151272D01*
X132228Y139500D02*
X135772D01*
X134000Y137728D02*
Y141272D01*
X132228Y129500D02*
X135772D01*
X134000Y127728D02*
Y131272D01*
X132228Y119500D02*
X135772D01*
X134000Y117728D02*
Y121272D01*
X132228Y109500D02*
X135772D01*
X134000Y107728D02*
Y111272D01*
X132228Y99500D02*
X135772D01*
X134000Y97728D02*
Y101272D01*
X132228Y89500D02*
X135772D01*
X134000Y87728D02*
Y91272D01*
X132228Y79500D02*
X135772D01*
X134000Y77728D02*
Y81272D01*
X132228Y69500D02*
X135772D01*
X134000Y67728D02*
Y71272D01*
X132228Y59500D02*
X135772D01*
X134000Y57728D02*
Y61272D01*
X132228Y49500D02*
X135772D01*
X134000Y47728D02*
Y51272D01*
X132228Y39500D02*
X135772D01*
X134000Y37728D02*
Y41272D01*
X132228Y29500D02*
X135772D01*
X134000Y27728D02*
Y31272D01*
X162228Y159500D02*
X165772D01*
X164000Y157728D02*
Y161272D01*
X162228Y149500D02*
X165772D01*
X164000Y147728D02*
Y151272D01*
X162228Y139500D02*
X165772D01*
X164000Y137728D02*
Y141272D01*
X162228Y129500D02*
X165772D01*
X164000Y127728D02*
Y131272D01*
X162228Y119500D02*
X165772D01*
X164000Y117728D02*
Y121272D01*
X162228Y109500D02*
X165772D01*
X164000Y107728D02*
Y111272D01*
X162228Y99500D02*
X165772D01*
X164000Y97728D02*
Y101272D01*
X162228Y89500D02*
X165772D01*
X164000Y87728D02*
Y91272D01*
X162228Y79500D02*
X165772D01*
X164000Y77728D02*
Y81272D01*
X162228Y69500D02*
X165772D01*
X164000Y67728D02*
Y71272D01*
X162228Y59500D02*
X165772D01*
X164000Y57728D02*
Y61272D01*
X162228Y49500D02*
X165772D01*
X164000Y47728D02*
Y51272D01*
X162228Y39500D02*
X165772D01*
X164000Y37728D02*
Y41272D01*
X162228Y29500D02*
X165772D01*
X164000Y27728D02*
Y31272D01*
X48953Y73500D02*
X53047D01*
X51000Y71453D02*
Y75547D01*
X48953Y63500D02*
X53047D01*
X51000Y61453D02*
Y65547D01*
X48953Y53500D02*
X53047D01*
X51000Y51453D02*
Y55547D01*
X48953Y83500D02*
X53047D01*
X51000Y81453D02*
Y85547D01*
X38953Y83500D02*
X43047D01*
X41000Y81453D02*
Y85547D01*
X38953Y73500D02*
X43047D01*
X41000Y71453D02*
Y75547D01*
X38953Y63500D02*
X43047D01*
X41000Y61453D02*
Y65547D01*
X38953Y53500D02*
X43047D01*
X41000Y51453D02*
Y55547D01*
X261700Y180500D02*
X274300D01*
X268000Y174200D02*
Y186800D01*
X261700Y14500D02*
X274300D01*
X268000Y8200D02*
Y20800D01*
X8200Y14500D02*
X20800D01*
X14500Y8200D02*
Y20800D01*
X8200Y180500D02*
X20800D01*
X14500Y174200D02*
Y186800D01*
X178307Y122000D02*
X181693D01*
X180000Y120307D02*
Y123693D01*
X178307Y112000D02*
X181693D01*
X180000Y110307D02*
Y113693D01*
X178307Y102000D02*
X181693D01*
X180000Y100307D02*
Y103693D01*
X217622Y90000D02*
X220378D01*
X219000Y88622D02*
Y91378D01*
X217622Y70315D02*
X220378D01*
X219000Y68937D02*
Y71693D01*
X239953Y106000D02*
X244047D01*
X242000Y103953D02*
Y108047D01*
X239953Y116000D02*
X244047D01*
X242000Y113953D02*
Y118047D01*
X115524Y162870D02*
X118476D01*
X117000Y161394D02*
Y164346D01*
X115524Y123500D02*
X118476D01*
X117000Y122024D02*
Y124976D01*
X98024Y162870D02*
X100976D01*
X99500Y161394D02*
Y164346D01*
X98024Y123500D02*
X100976D01*
X99500Y122024D02*
Y124976D01*
X81024Y161870D02*
X83976D01*
X82500Y160394D02*
Y163346D01*
X81024Y122500D02*
X83976D01*
X82500Y121024D02*
Y123976D01*
X58531Y132000D02*
X62468D01*
X60500Y130032D02*
Y133968D01*
X58531Y142000D02*
X62468D01*
X60500Y140032D02*
Y143968D01*
X58531Y152000D02*
X62468D01*
X60500Y150031D02*
Y153969D01*
X35122Y147000D02*
X37878D01*
X36500Y145622D02*
Y148378D01*
X35122Y154874D02*
X37878D01*
X36500Y153496D02*
Y156252D01*
X39122Y124000D02*
X41878D01*
X40500Y122622D02*
Y125378D01*
X31248Y124000D02*
X34004D01*
X32626Y122622D02*
Y125378D01*
X88209Y105000D02*
X91161D01*
X89685Y103524D02*
Y106476D01*
X48839Y105000D02*
X51791D01*
X50315Y103524D02*
Y106476D01*
X226492Y34500D02*
X230508D01*
X228500Y32492D02*
Y36508D01*
X216492Y34500D02*
X220508D01*
X218500Y32492D02*
Y36508D01*
X206492Y34500D02*
X210508D01*
X208500Y32492D02*
Y36508D01*
X196492Y34500D02*
X200508D01*
X198500Y32492D02*
Y36508D01*
X236492Y34500D02*
X240508D01*
X238500Y32492D02*
Y36508D01*
X246492Y34500D02*
X250508D01*
X248500Y32492D02*
Y36508D01*
X102193Y52205D02*
X106091D01*
X104142Y50256D02*
Y54154D01*
X119909Y52205D02*
X123807D01*
X121858Y50256D02*
Y54154D01*
X119909Y77795D02*
X123807D01*
X121858Y75846D02*
Y79744D01*
X102193Y77795D02*
X106091D01*
X104142Y75846D02*
Y79744D01*
X200622Y89842D02*
X203378D01*
X202000Y88465D02*
Y91220D01*
X200622Y70157D02*
X203378D01*
X202000Y68780D02*
Y71535D01*
X215622Y115937D02*
X218378D01*
X217000Y114559D02*
Y117315D01*
X215622Y108063D02*
X218378D01*
X217000Y106685D02*
Y109441D01*
X194425Y100189D02*
X197575D01*
X196000Y98614D02*
Y101764D01*
X194425Y123811D02*
X197575D01*
X196000Y122236D02*
Y125386D01*
X64410Y52000D02*
X65591D01*
X65000Y51410D02*
Y52591D01*
X124409Y95500D02*
X125591D01*
X125000Y94910D02*
Y96091D01*
M02*
