G04*
G04 #@! TF.GenerationSoftware,Altium Limited,Altium Designer,23.1.1 (15)*
G04*
G04 Layer_Color=16711935*
%FSLAX25Y25*%
%MOIN*%
G70*
G04*
G04 #@! TF.SameCoordinates,7FBAD907-ECE7-4216-98B3-75AA29109797*
G04*
G04*
G04 #@! TF.FilePolarity,Positive*
G04*
G01*
G75*
%ADD15C,0.01000*%
%ADD56C,0.00394*%
D15*
X12450Y194000D02*
G03*
X500Y182050I0J-11950D01*
G01*
X500Y12000D02*
G03*
X11950Y1000I11225J225D01*
G01*
X271000Y1000D02*
G03*
X282000Y12000I0J11000D01*
G01*
X281961Y183375D02*
G03*
X270615Y193961I-10966J-380D01*
G01*
X500Y12000D02*
X500Y182050D01*
X12450Y194000D02*
X270615Y193961D01*
X281961Y183375D02*
X282000Y12000D01*
X11950Y1000D02*
X271000D01*
D56*
X190154Y84689D02*
G03*
X171846Y84689I-9154J0D01*
G01*
X173716Y59000D02*
G03*
X188284Y59000I7283J0D01*
G01*
Y84000D02*
G03*
X173716Y84000I-7283J0D01*
G01*
X171846Y58311D02*
G03*
X190154Y58311I9154J0D01*
G01*
X140339Y160445D02*
G03*
X140339Y160445I-1969J0D01*
G01*
X211209Y162791D02*
X234791D01*
X211209Y139209D02*
Y162791D01*
Y139209D02*
X234791D01*
Y162791D01*
X68500Y94500D02*
X93500D01*
X68500Y34500D02*
X93500D01*
Y94500D01*
X68500Y34500D02*
Y94500D01*
X171846Y58311D02*
Y84689D01*
X190154Y58311D02*
Y84689D01*
X173717Y59000D02*
Y84886D01*
X188283Y59000D02*
Y84886D01*
X134827Y25012D02*
Y163988D01*
X163173Y25012D02*
Y163988D01*
X134827D02*
X163173D01*
X134827Y25012D02*
X163173D01*
X55744Y47496D02*
Y89504D01*
X36256Y47496D02*
X55744D01*
X36256D02*
Y89504D01*
X55744D01*
X185001Y96508D02*
Y127492D01*
X175000D02*
X185000D01*
X175001Y96508D02*
Y127492D01*
X175000Y96508D02*
X185000D01*
X237256Y99996D02*
Y122004D01*
Y99996D02*
X246745D01*
X246744D02*
Y122004D01*
X237256D02*
X246744D01*
X71720Y120937D02*
Y163063D01*
X53217Y120937D02*
Y163063D01*
X71720D01*
X53217Y120937D02*
X71720D01*
X66602D02*
Y163063D01*
X193500Y22000D02*
X253500D01*
X193500Y47000D02*
X253500D01*
Y22000D02*
Y47000D01*
X193500Y22000D02*
Y47000D01*
X124791Y53209D02*
Y76791D01*
X101209D02*
X124791D01*
X101209Y53209D02*
Y76791D01*
Y53209D02*
X124791D01*
M02*
