G04*
G04 #@! TF.GenerationSoftware,Altium Limited,Altium Designer,23.1.1 (15)*
G04*
G04 Layer_Color=16711935*
%FSLAX25Y25*%
%MOIN*%
G70*
G04*
G04 #@! TF.SameCoordinates,7FBAD907-ECE7-4216-98B3-75AA29109797*
G04*
G04*
G04 #@! TF.FilePolarity,Negative*
G04*
G01*
G75*
%ADD19R,0.06496X0.06496*%
%ADD20C,0.06496*%
%ADD21C,0.04724*%
%ADD22R,0.04724X0.04724*%
%ADD23C,0.07874*%
%ADD24O,0.10991X0.05791*%
%ADD25R,0.06693X0.06693*%
%ADD26C,0.06693*%
%ADD27C,0.05315*%
%ADD28C,0.14091*%
%ADD29R,0.06102X0.06102*%
%ADD30C,0.06102*%
%ADD31C,0.04921*%
%ADD32R,0.04921X0.04921*%
%ADD33C,0.06890*%
%ADD34R,0.06890X0.06890*%
%ADD35R,0.04724X0.04724*%
%ADD36R,0.04921X0.04921*%
%ADD37R,0.06693X0.06693*%
%ADD38R,0.06496X0.06496*%
%ADD39C,0.05740*%
%ADD40C,0.02953*%
D19*
X235795Y142142D02*
D03*
X134000Y159500D02*
D03*
D20*
X235795Y159858D02*
D03*
X210205D02*
D03*
Y142142D02*
D03*
X134000Y149500D02*
D03*
Y139500D02*
D03*
Y129500D02*
D03*
Y119500D02*
D03*
Y109500D02*
D03*
Y99500D02*
D03*
Y89500D02*
D03*
Y79500D02*
D03*
Y69500D02*
D03*
Y59500D02*
D03*
Y49500D02*
D03*
Y39500D02*
D03*
Y29500D02*
D03*
X164000Y159500D02*
D03*
Y149500D02*
D03*
Y139500D02*
D03*
Y129500D02*
D03*
Y119500D02*
D03*
Y109500D02*
D03*
Y99500D02*
D03*
Y89500D02*
D03*
Y79500D02*
D03*
Y69500D02*
D03*
Y59500D02*
D03*
Y49500D02*
D03*
Y39500D02*
D03*
Y29500D02*
D03*
X121858Y52205D02*
D03*
Y77795D02*
D03*
X104142D02*
D03*
D21*
X189500Y145563D02*
D03*
X112000Y101874D02*
D03*
X219000Y90000D02*
D03*
X36500Y147000D02*
D03*
X40500Y124000D02*
D03*
X202000Y89842D02*
D03*
X217000Y115937D02*
D03*
D22*
X189500Y153437D02*
D03*
X112000Y94000D02*
D03*
X219000Y70315D02*
D03*
X36500Y154874D02*
D03*
X202000Y70157D02*
D03*
X217000Y108063D02*
D03*
D23*
X261000Y143500D02*
D03*
Y153500D02*
D03*
D24*
X260605Y102653D02*
D03*
Y112495D02*
D03*
Y122338D02*
D03*
D25*
X81000Y39500D02*
D03*
X51000Y83500D02*
D03*
X242000Y106000D02*
D03*
D26*
X81000Y49500D02*
D03*
Y89500D02*
D03*
Y79500D02*
D03*
Y69500D02*
D03*
Y59500D02*
D03*
X51000Y73500D02*
D03*
Y63500D02*
D03*
Y53500D02*
D03*
X41000Y83500D02*
D03*
Y73500D02*
D03*
Y63500D02*
D03*
Y53500D02*
D03*
X242000Y116000D02*
D03*
X228500Y34500D02*
D03*
X218500D02*
D03*
X208500D02*
D03*
X198500D02*
D03*
X238500D02*
D03*
D27*
X181000Y61894D02*
D03*
Y81106D02*
D03*
D28*
X268000Y180500D02*
D03*
Y14500D02*
D03*
X14500D02*
D03*
Y180500D02*
D03*
D29*
X180000Y122000D02*
D03*
D30*
Y112000D02*
D03*
Y102000D02*
D03*
D31*
X117000Y162870D02*
D03*
X99500D02*
D03*
X82500Y161870D02*
D03*
X89685Y105000D02*
D03*
D32*
X117000Y123500D02*
D03*
X99500D02*
D03*
X82500Y122500D02*
D03*
D33*
X60500Y132000D02*
D03*
Y142000D02*
D03*
D34*
Y152000D02*
D03*
D35*
X32626Y124000D02*
D03*
D36*
X50315Y105000D02*
D03*
D37*
X248500Y34500D02*
D03*
D38*
X104142Y52205D02*
D03*
D39*
X196000Y100189D02*
D03*
Y123811D02*
D03*
D40*
X65000Y52000D02*
D03*
X125000Y95500D02*
D03*
M02*
